<?xml version="1.0" encoding="utf-8"?>
<!-- Generator: Adobe Illustrator 21.1.0, SVG Export Plug-In . SVG Version: 6.00 Build 0)  -->
<svg version="1.1" id="Calque_1" xmlns="http://www.w3.org/2000/svg" xmlns:xlink="http://www.w3.org/1999/xlink" x="0px" y="0px"
	 viewBox="0 0 224 116" style="enable-background:new 0 0 224 116;" xml:space="preserve">
<style type="text/css">
	.st0{fill:none;}
	.st1{fill:#78D6EF;}
</style>
<g>
	<path class="st0" d="M191.5,102.1c-0.7-0.4-1.4-0.6-2.2-0.6c-0.8,0-1.4,0.2-2.2,0.6c-0.7,0.4-1.2,0.9-1.6,1.7
		c-0.4,0.7-0.6,1.4-0.6,2.2c0,0.8,0.2,1.5,0.6,2.2c0.4,0.7,0.9,1.3,1.7,1.7c0.7,0.4,1.4,0.6,2.2,0.6c0.8,0,1.5-0.2,2.2-0.6
		c0.7-0.4,1.3-0.9,1.7-1.7c0.4-0.7,0.6-1.4,0.5-2.2c0-0.8-0.2-1.5-0.6-2.2C192.7,103.1,192.2,102.5,191.5,102.1z M190.8,108.9
		l-0.5-0.9c-0.4-0.7-0.7-1.2-0.9-1.3c-0.2-0.1-0.4-0.2-0.7-0.2h-0.6v2.4h-0.9v-5.7h1.9c0.6,0,1.1,0.1,1.4,0.2
		c0.3,0.1,0.6,0.3,0.7,0.6c0.2,0.2,0.3,0.6,0.3,0.8c0,0.4-0.2,0.8-0.4,1.1c-0.3,0.3-0.7,0.5-1.2,0.6c0.2,0.1,0.4,0.2,0.5,0.3
		c0.3,0.2,0.5,0.6,0.9,1.1l0.7,1.1H190.8z"/>
	<path class="st0" d="M190.5,104.8c0-0.2,0-0.3-0.1-0.4c-0.1-0.1-0.2-0.2-0.4-0.3c-0.2-0.1-0.4-0.1-0.9-0.1h-1.1v1.7h1.1
		c0.5,0,0.9-0.1,1.1-0.2C190.4,105.3,190.5,105.1,190.5,104.8z"/>
	<path class="st1" d="M190.3,106.7c-0.1-0.1-0.3-0.2-0.5-0.3c0.5-0.1,0.9-0.2,1.2-0.6c0.3-0.3,0.4-0.7,0.4-1.1
		c0-0.3-0.1-0.6-0.3-0.8c-0.2-0.2-0.4-0.4-0.7-0.6c-0.3-0.1-0.8-0.2-1.4-0.2h-1.9v5.7h0.9v-2.4h0.6c0.3,0,0.6,0.1,0.7,0.2
		c0.2,0.2,0.6,0.6,0.9,1.3l0.5,0.9h1.1l-0.7-1.1C190.8,107.3,190.6,106.9,190.3,106.7z M189.2,105.7h-1.1V104h1.1
		c0.4,0,0.7,0.1,0.9,0.1c0.2,0.1,0.3,0.2,0.4,0.3c0.1,0.2,0.1,0.3,0.1,0.4c0,0.3-0.1,0.4-0.3,0.7
		C190.1,105.7,189.7,105.7,189.2,105.7z"/>
	<path class="st1" d="M192,101.4c-0.8-0.4-1.7-0.7-2.6-0.7c-0.9,0-1.7,0.2-2.5,0.7c-0.8,0.5-1.5,1.1-2,2c-0.5,0.9-0.7,1.8-0.7,2.7
		c0,0.9,0.2,1.8,0.7,2.7c0.5,0.8,1.1,1.5,1.9,2c0.8,0.5,1.7,0.7,2.6,0.7c0.9,0,1.8-0.2,2.6-0.7c0.8-0.4,1.5-1.1,1.9-2
		c0.4-0.8,0.7-1.7,0.7-2.7s-0.2-1.8-0.7-2.7C193.5,102.5,192.8,101.9,192,101.4z M193.2,108.2c-0.4,0.7-0.9,1.3-1.7,1.7
		c-0.7,0.4-1.4,0.6-2.2,0.6c-0.8,0-1.5-0.2-2.2-0.6c-0.7-0.4-1.2-0.9-1.7-1.7c-0.4-0.7-0.6-1.4-0.6-2.2c0-0.8,0.2-1.5,0.6-2.2
		c0.4-0.7,0.9-1.3,1.6-1.7c0.7-0.4,1.4-0.6,2.2-0.6c0.7,0,1.4,0.2,2.2,0.6c0.7,0.4,1.2,0.9,1.7,1.7c0.4,0.7,0.6,1.4,0.6,2.2
		C193.8,106.8,193.6,107.6,193.2,108.2z"/>
	<path class="st1" d="M2.8,3.6l20.9,98.9l1.6-0.8c22.3-11.7,44.5-11,59.2-8.3c16,2.9,26.9,8.6,27,8.6l0.6,0.3l0.6-0.3
		c26.3-11.7,48-11,61.5-8.4c14.7,2.9,23.3,8.5,23.4,8.6l1.7,1.1l0.4-1.9l21.4-97.8H2.8z M60.6,63.9H29.8V31.4H42v24.2h18.6V63.9z
		 M80.4,65c-12.6,0-19.2-6.5-19.2-17.4c0-10.8,6.9-17.3,18.5-17.3c12.4,0,18.5,8,18.6,17.3c0,0.7-0.1,1.4-0.2,2H74.6
		c0,4.6,2.6,7.5,6.7,7.5c3.5,0,6.2-1,6.7-3.9h10.2C97,60.6,91.8,65,80.4,65z M121,63.9h-10.1L94.8,31.2H109l8.6,18.9h0.2l8.6-18.9
		h10.1L121,63.9z M150.7,63.9h-12.3V31.1h12.3V63.9z M162,33.7l-4.3,5.1H156l1.9-5.6h-3.9v-7.5h8V33.7z M178,64.7
		c-11.2,0-15.4-5-15.4-10.9v-0.2h10.3c0,2.8,2.2,4.3,5.4,4.3c2.8,0,4.2-0.9,4.2-2.7c0-4.7-19.6-0.2-19.6-13.4
		c0-7.1,6.6-11.2,16.9-11.2c9.2,0,14.8,4.6,14.6,10.1H185c0-1.6-2-3.2-5.3-3.2c-3.4,0-4.7,1.2-4.7,2.3c0,5.1,20.5,0.1,20.5,13.5
		C195.5,59.6,190.7,64.7,178,64.7z"/>
	<path class="st1" d="M79.8,37.4c-3.5,0-4.7,3.3-4.6,6.5h9.3C84.5,40.2,83.3,37.4,79.8,37.4z"/>
</g>
</svg>
