<?xml version="1.0" encoding="utf-8"?>
<!-- Generator: Adobe Illustrator 21.1.0, SVG Export Plug-In . SVG Version: 6.00 Build 0)  -->
<svg version="1.1" id="Calque_1" xmlns="http://www.w3.org/2000/svg" xmlns:xlink="http://www.w3.org/1999/xlink" x="0px" y="0px"
	 viewBox="0 0 358 49" style="enable-background:new 0 0 358 49;" xml:space="preserve">
<style type="text/css">
	.st0{fill:#7AEDE2;}
</style>
<g id="layer1" transform="translate(-61.969643,-493.41065)">
	<path id="text2396" class="st0" d="M70.5,540.2v-19.5h9.7c2.8,0,5.2-0.1,7.1-0.4c1.9-0.3,3.6-0.6,4.9-1.2c2.4-1,4.2-2.5,5.3-4.4
		c1.1-1.9,1.7-4.1,1.6-6.6c0-2.4-0.5-4.5-1.5-6.3c-1-1.8-2.3-3.1-4-4c-1.1-0.5-2.5-0.9-4.2-1.2c-1.7-0.3-4.1-0.4-7.1-0.4H66.6v43.8
		H70.5z M70.5,517.1v-17.3H81c2.9,0,5.2,0,6.9,0.2c1.7,0.2,3.1,0.7,4.2,1.6c0.9,0.7,1.6,1.5,2,2.6c0.5,1.1,0.7,2.4,0.7,3.8
		c0,1.8-0.4,3.4-1.1,4.7c-0.7,1.3-1.8,2.3-3.2,2.9c-1.2,0.5-2.7,0.9-4.6,1.1c-1.8,0.2-3.8,0.3-6.1,0.3H70.5z M150.7,540.2
		l-13.8-19.7c4-0.5,7.1-1.7,9.2-3.8c2.1-2.1,3.2-4.8,3.2-8.3c0-2.7-0.6-4.9-1.8-6.8c-1.1-1.8-2.6-3.2-4.4-3.9
		c-1.5-0.6-3.2-1-5.1-1.2c-1.9-0.2-3.9-0.2-6.2-0.2h-13.5v43.8h3.9v-19.3h10.5l13.1,19.3H150.7z M122.3,517.4v-17.5h10.2
		c2.1,0,3.9,0.1,5.5,0.2c1.5,0.2,2.8,0.6,3.9,1.4c1.1,0.8,1.9,1.7,2.5,2.9c0.5,1.2,0.8,2.5,0.8,3.9c0,1.5-0.2,2.7-0.6,3.8
		c-0.4,1.1-1.1,2-1.9,2.7c-1,0.9-2.4,1.5-4.1,1.9c-1.7,0.4-3.7,0.6-6.1,0.6H122.3z M176,540.2v-43.8h-3.9v43.8H176z M239.7,540.2
		v-43.8h-5.8c-3.4,9.2-6,16.1-7.7,20.9c-1.7,4.7-3,8.3-3.9,10.7c-0.9,2.4-1.6,4.6-2.4,6.7c-0.8-2.3-1.6-4.6-2.5-7
		c-0.9-2.4-2.2-6-4-10.7c-1.8-4.7-4.4-11.5-7.9-20.5h-5.7v43.8h3.8c0-10,0-17.6,0-22.8c0-5.3,0-9.1-0.1-11.5c0-2.4-0.1-4.3-0.2-5.6
		c0.6,2,1.4,4.2,2.3,6.7c0.9,2.5,2.3,6.3,4.2,11.3c1.9,5,4.7,12.4,8.4,22h3c2.9-7.7,5.3-14.1,7.2-19c1.8-4.9,3.4-9,4.5-12.2
		c1.2-3.2,2.2-6.2,3.1-8.8c-0.1,1.5-0.1,3.4-0.1,5.7c0,2.3-0.1,6.1-0.1,11.3c0,5.2,0,12.9,0,23.1H239.7z M294.7,540.2l-16.6-43.8
		H274l-17.1,43.8h4.3l4.7-12.8h19.8l4.6,12.8H294.7z M267.2,524c1.9-5.1,3.4-9.1,4.5-12.1c1.1-3,2-5.3,2.6-6.9
		c0.6-1.7,1.1-3.1,1.6-4.4c0.4,1.3,0.9,2.7,1.5,4.4c0.6,1.7,1.4,3.9,2.5,6.9c1.1,2.9,2.6,7,4.5,12.1H267.2z M345.2,540.2l-13.8-19.7
		c4-0.5,7.1-1.7,9.2-3.8c2.1-2.1,3.2-4.8,3.2-8.3c0-2.7-0.6-4.9-1.8-6.8c-1.1-1.8-2.6-3.2-4.4-3.9c-1.5-0.6-3.2-1-5.1-1.2
		c-1.9-0.2-3.9-0.2-6.2-0.2h-13.5v43.8h3.9v-19.3h10.5l13.1,19.3H345.2z M316.7,517.4v-17.5h10.2c2.1,0,3.9,0.1,5.5,0.2
		c1.5,0.2,2.8,0.6,3.9,1.4c1.1,0.8,1.9,1.7,2.5,2.9c0.5,1.2,0.8,2.5,0.8,3.9c0,1.5-0.2,2.7-0.6,3.8c-0.4,1.1-1.1,2-1.9,2.7
		c-1,0.9-2.4,1.5-4.1,1.9c-1.7,0.4-3.7,0.6-6.1,0.6H316.7z M401,540.2l-18.1-26.8l16.1-17h-5l-23.4,25v-25h-3.9v43.8h3.9v-13.9
		l9.5-10.1l16.1,24H401z"/>
	<path id="text3174" class="st0" d="M415.3,500.5c0-1.4-0.5-2.5-1.4-3.4c-0.9-0.9-2.1-1.4-3.5-1.4c-1.4,0-2.6,0.5-3.6,1.4
		s-1.4,2.1-1.5,3.5c0,1.4,0.5,2.6,1.5,3.5c0.9,0.9,2.2,1.4,3.6,1.4c1.4,0,2.6-0.5,3.5-1.4C414.8,503.2,415.3,502,415.3,500.5
		L415.3,500.5z M414.6,500.6c0,1.2-0.4,2.2-1.2,3c-0.8,0.8-1.8,1.2-3,1.2c-1.2,0-2.3-0.5-3.1-1.3c-0.8-0.8-1.2-1.8-1.3-3.1
		c0-1.2,0.4-2.3,1.2-3.1s1.8-1.2,3.1-1.2c1.2,0,2.2,0.4,3,1.2S414.6,499.4,414.6,500.6L414.6,500.6z M413,503.4l-1.6-2.3
		c0.5-0.1,0.8-0.3,1-0.6c0.2-0.3,0.3-0.7,0.3-1.1c0-0.3-0.1-0.6-0.2-0.9c-0.1-0.3-0.3-0.5-0.6-0.6c-0.2-0.1-0.4-0.2-0.6-0.2
		c-0.2,0-0.6-0.1-1-0.1h-2v5.8h1.1v-2.2h0.8l1.4,2.2H413z M409.4,500.2v-1.6h1c0.2,0,0.3,0,0.4,0c0.1,0,0.2,0,0.3,0.1
		c0.2,0.1,0.3,0.2,0.4,0.3c0.1,0.1,0.1,0.3,0.1,0.4c0,0.2,0,0.3-0.1,0.4c-0.1,0.1-0.1,0.2-0.2,0.3c-0.1,0.1-0.2,0.1-0.3,0.1
		c-0.1,0-0.3,0-0.5,0H409.4z"/>
</g>
</svg>
