<?xml version="1.0" encoding="utf-8"?>
<!-- Generator: Adobe Illustrator 21.1.0, SVG Export Plug-In . SVG Version: 6.00 Build 0)  -->
<svg version="1.1" id="Calque_1" xmlns="http://www.w3.org/2000/svg" xmlns:xlink="http://www.w3.org/1999/xlink" x="0px" y="0px"
	 viewBox="0 0 329 75" style="enable-background:new 0 0 329 75;" xml:space="preserve">
<style type="text/css">
	.st0{fill:#7AEDE2;}
</style>
<g>
	<path class="st0" d="M9.7,33.7c-0.1,1.7-0.3,3.4-0.5,5c-0.1,0.9-0.1,1.2-0.6,2c-0.1,0.1-0.3,0.1-0.3-0.1C7.4,35.8,7.1,30.9,7.7,26
		c0.2-1.9,0.5-3.8,1.1-5.6c0,0,0,0,0,0c0-0.1,0.1-0.2,0.2-0.1c0,0,0,0,0,0c0,0,0,0,0,0c0,0,0.1,0.1,0.1,0.1c0,0,0,0,0,0
		C10.2,24.6,10,29.4,9.7,33.7L9.7,33.7z M47.8,20.2C46.4,12.5,42.1,4.1,34.9,4c-3.7,0-6.7,2.8-9,6c-2.8,3.8-4.7,8.5-6.1,13.3
		c-0.4-1.9-0.9-3.8-1.5-5.7c-0.9-2.6-2-6-4.2-7.4c-2.4-1.5-5.2,1.9-6.3,4C6,17.3,5.3,21.1,5,24.7c-0.5,5.6-0.1,11.4,0.6,17
		c0.3,2.7,0.8,5.5,1.7,7.9c0.2,0.6,0.5,1.4,1,1.7c0,0,0,0,0,0c0,0,0,0,0,0c0.7,0.2,1.7,0.2,1.9-0.9c0.1-0.7,0.2-1.5,0.3-2.3
		c0.3-3.3,0.6-6.7,0.8-10c0.3-4.2,0.4-8.4,0.4-12.7c0-1.9-0.1-3.7-0.2-5.5c-0.1-0.7-0.1-1.4-0.2-2.1c-0.1-0.6-0.4-1.3-0.4-1.9
		c0-1,0.4-2.3,1.4-2.3c1.5,0,2.6,1.8,3.2,3.2c1.3,3.4,1.6,7.4,1.9,11.1c0.2,2.5,0.3,5.1,0.4,7.6c0,0.6-0.1,1.3-0.2,1.9
		c-0.1,1.8-0.3,3.6-0.3,5.4c0,1.1-0.2,7.6,2.1,5.4c1-1,1.5-3.2,1.5-4.7c0-1.6,0-3.2,0-4.7c0-2.1,0.1-4.2,0.2-6.3
		c0.1-1.3,0.1-2.6,0.4-3.8c0.6-2.5,1.4-5,2.3-7.4c2.1-5.8,6.5-15.6,12.9-13.6c3.1,1,5.1,4.6,6.4,8c1.6,4.3,2.2,9.2,2,13.9
		c-0.3,8-3.6,16.4-9.8,19.9c-1.1,0.6-2.3,3.6-0.7,4.3c2.7,1.2,5.2-1.6,6.9-3.8C47.2,42.2,49.6,30.6,47.8,20.2L47.8,20.2z M99.6,50.7
		c-1.4,0-2.7-0.6-3.9-1.2c0,0,0,0,0,0c0,0,0,0-0.1-0.1c0,0,0,0,0,0c0-0.1,0-0.2,0-0.2c0,0,0,0,0.1-0.1c0,0,0,0,0,0
		c1.2-0.3,3.9-0.8,4.7,0.9C100.6,50.5,99.9,50.7,99.6,50.7L99.6,50.7z M76.3,43.8c-0.9,1.5-2.4,2.6-3.8,1.4c-1.1-0.9-2-2.2-2.6-3.6
		c0-0.1,0-0.2,0-0.2c0.5-0.9,0.7-2.5,0.9-3.6c0.2-1,0.4-2,0.6-3v0c0,0,0,0,0-0.1c0,0,0,0,0,0c0,0,0,0,0,0c0,0,0.1-0.1,0.1-0.1
		c0,0,0,0,0,0c0,0,0.1,0,0.1,0c0,0,0,0,0,0C73.6,36.6,78.3,40.2,76.3,43.8L76.3,43.8z M115.2,48.4c-0.4-0.2-1-0.1-1.4-0.2
		c-1.3-0.1-2.6-0.3-3.9-0.4c-2.7-0.3-5.4-0.5-8.1-1c-0.8-0.1-1-0.7-1.4-1.4c-0.8-1.5-1.7-2.8-2.8-4c-1.9-2-4.1-3.3-6.2-4.9
		c-1.9-1.4-3.7-3.1-5.5-4.8c-0.7-0.7-1.5-1.5-2.1-2.4c-0.7-1-1.7-1.9-2.5-0.6c-0.6,1.1-0.2,2.4-0.1,3.6c0.2,1.9,0.1,4-0.4,5.8
		c-0.3,1.2-0.9,2.8-1.7,3.6c-0.3-3.7-3.1-6.5-5.3-8.6c-1.1-1-2.2-2-3.2-3.1c-0.6-0.8-0.9-3-2.2-2.6c-1.2,0.4-0.1,3.3,0.2,4.1
		c0.2,0.6,0.7,1.3,0.7,1.9c-0.2,1.5-0.5,3.1-0.8,4.6c-0.8,3.3-2,7-4.4,9c-0.7,0.6-1.6,1-2.5,1c-2.7-0.3-5.5-1.2-6.7-4.5
		c-0.9-2.3-0.7-4.9-0.8-7.3c0-1-0.1-1.8-0.7-2.6c-0.7-0.9-1.8-0.1-2.3,0.7c0,0,0,0,0,0.1c0,0,0,0.1,0,0.1
		c-0.3,6.5,0.8,14.2,6.3,16.9c3.8,1.9,8.5,0,10.7-4.2c0.2-0.3,0.4-0.7,0.5-1.1c1,1.5,2.1,3,3.7,3.5c0.9,0.3,1.9-0.1,2.8-0.4
		c3-1,5.6-3.2,7.1-6.5c1-2.1,1.4-4.6,1.5-7.1c0-0.4,0-0.8,0-1.1c0,0,0.1,0,0.1,0c0.2,0,0.3,0,0.5,0.1c0.3,0,0.8,0.5,1.1,0.7
		c0.9,0.6,1.8,1.1,2.7,1.8c3.2,2.2,6.5,4.5,9.2,7.5c0.3,0.4,0.7,0.8,1,1.3c0.3,0.5-0.1,0.5-0.4,0.5c-1.3,0.1-2.6-0.1-3.9-0.2
		c-2.9-0.3-5.7-0.7-8.6-1.1c-1.6-0.2-4.4,1.3-2.6,3.4c0.3,0.3,0.6,0.5,0.9,0.7c0.3,0.2,1.3,0,1.7,0c0.9,0,1.7,0.1,2.6,0.2
		c2.7,0.5,5.3,1.8,8,2.6c1.6,0.5,4.2,1.6,5.7,0.1c0.4-0.4,0.6-1.2,0.5-1.8c4.3,0.5,8.5,1.1,12.8,1.6c0.8,0.1,1.8-0.5,2.1-1.5
		C117.1,49.3,115.7,48.6,115.2,48.4L115.2,48.4z M59,23.4c-0.5,1.2-1.4,1.9-2,1.5c-0.6-0.4-0.8-1.7-0.3-2.9c0.5-1.2,1.4-1.9,2-1.5
		C59.3,20.9,59.4,22.2,59,23.4L59,23.4z M264,58.9c0,0,0,0.1-0.1,0.1c0,0,0,0,0,0c0,0,0,0,0,0c-1,0.3-2,0.6-3,0.9
		c-4.1,1.1-8.2,2.1-12.4,2.4c-2.2,0.2-4.5,0.2-6.6-0.4c-1-0.3-2.9-0.9-3.2-2.4c0-0.1,0-0.2,0.1-0.3c4.8-2.7,10.5-2.7,15.7-2.2
		c3.1,0.3,6.3,0.7,9.4,1.6c0,0,0,0,0,0c0,0,0,0,0,0c0,0,0,0.1,0.1,0.1C264,58.8,264,58.8,264,58.9C264,58.8,264,58.9,264,58.9
		L264,58.9z M284.5,44c-0.8,1-2.2,2.1-3.5,2.1c-1.5,0-3.8-0.3-4.7-2c-0.6-1.2-0.3-2.7,0.2-3.8c0.9-1.9,2.2-3.9,4-4.6
		c1.8-0.7,3.8-0.1,5.2,1.4c0,0,0,0,0,0c0,0,0,0,0,0c0,0,0,0,0,0c0,0,0,0,0,0.1c0,0,0,0,0,0l0,0C286.1,39.6,285.9,42.2,284.5,44
		L284.5,44z M262.7,41.7c-1.1,1.8-2.8,2.9-4.6,3.3c-0.2,0-0.3-0.2-0.2-0.4c0.6-0.6,1.2-1.3,1.8-2c0.8-1,1.8-2,2.2-3.3c0,0,0,0,0,0
		c0,0,0-0.1,0.1-0.1c0,0,0,0,0,0c0,0,0.1,0,0.1,0c0,0,0,0,0.1,0c0,0,0,0,0,0c0.4,0.4,0.8,0.9,0.9,1.6
		C263.2,41.1,262.8,41.5,262.7,41.7L262.7,41.7z M254.9,45c-0.5,0.2-0.8,0-1.3-0.2c-0.7-0.3-1.5-0.7-2.1-1.3c-0.8-0.7-1.3-1.8-1-3.1
		c0.6-2.7,2.6-3.7,4.7-4.1c1.5-0.3,4-0.4,5,1.5c0,0,0,0.1,0,0.1c0,0,0,0,0,0c0,0.3,0,0.5,0,0.8C260,41.8,256.9,43.9,254.9,45
		L254.9,45z M215.3,37.2c-0.1,0.1-0.3,0.2-0.3,0c-0.4-1.2-0.6-2.6-0.7-3.9c-0.2-1.9-0.3-3.9-0.4-5.8c-0.1-2.6-0.1-5.1-0.1-7.7
		c0,0,0,0,0,0c0,0,0,0,0,0c0,0,0-0.1,0.1-0.1c0,0,0,0,0.1,0c0,0,0,0,0,0c0,0,0.1,0,0.1,0c0,0,0,0,0,0c0,0,0,0,0,0
		c1.6,3.9,2.8,8.5,2.4,12.9C216.3,34.1,216,35.9,215.3,37.2L215.3,37.2z M199.2,37.6c-0.8-0.6-1.4-1.9-1.7-2.8
		c-1.5-3.8-1.7-8.3-1.8-12.5c0,0,0,0,0,0l0,0c0-0.1,0.1-0.2,0.2-0.2c0,0,0,0,0,0c1.5,0.2,3,1.3,3.9,2.7c2.4,3.7,1.1,8.9-0.4,12.8
		C199.4,37.6,199.2,37.6,199.2,37.6L199.2,37.6z M164.3,46.1C164.3,46.1,164.3,46.1,164.3,46.1c0,0.1-0.1,0.1-0.1,0.1c0,0,0,0-0.1,0
		c0,0,0,0,0,0c-7.4,0.2-14.8,0.1-22.2-1.1c-4.4-0.8-8.9-1.9-13-4.2c-1-0.5-1.9-1.2-2.9-1.7c-0.7-0.4-2.1-0.9-2.2-2
		c-0.1-1,1-1,1.5-1.1c9.3-0.8,18.7,0.7,27.6,4.1c3.8,1.5,7.8,3.2,11.3,5.6c0,0,0,0,0,0c0,0,0,0,0,0.1
		C164.3,45.9,164.3,46,164.3,46.1C164.3,46,164.3,46,164.3,46.1L164.3,46.1z M288.6,51.9c-0.3-3.7-0.4-7.3,0.1-10.9
		c0.4-3.2,0.2-6.8-2.8-7.7c-3.1-1-6.9,0.1-9.4,2.3c-1.2,1.1-2.1,2.6-2.5,4.4c-0.5,2.2,0.1,4.4,0.9,6.3c-2.3,0.3-4.8-1.3-6.5-2.8
		c-0.6-0.5-1.1-1-1.6-1.6c-0.1-0.1-1.4-1.6-1.4-1.5c0.2-0.5,0.4-1,0.5-1.5c0.7-2.5,0.8-5.2,0.2-7.8c-0.1-0.2-0.3-0.2-0.4,0.1
		c-0.1,1.6-0.4,3.2-1,4.6c-0.1,0.3-0.7,1.5-1,0.9c-0.2-0.4-0.3-1-0.4-1.5c-0.5-2.8-0.7-6.1-0.4-9c0-0.2,0.1-0.8,0.2-1
		c-0.1,0,1,1.2,1.2,1.3c0.5,0.3,0.3-0.7,0.3-0.9c-0.3-1.5-0.7-2.9-1.2-4.3c-0.3-0.7-0.9-2.4-1.8-2.2c-0.7,0.2-0.9,1.2-1,1.9
		c-0.3,1.5-0.4,3.1-0.4,4.6c-0.1,3.1-0.1,6.6,0.5,9.6c-3.1-2.6-7.1-2.4-10.1,0.2c-1.6,1.4-2.8,3.5-2.5,6c0.2,1.3,0.8,2.5,1.6,3.5
		c-1.6,0.4-3.3,0.1-4.8-0.4c-0.7-0.3-1.5-0.6-2.1-1.1c-0.4-0.3-1.3-0.7-1.4-1.2c-0.3-1.3-0.6-2.8-0.2-4.1c0-0.1,0-0.2-0.1-0.3
		c-0.6-0.5-1.3-0.3-1.7,0.4c-0.5,0.9-1.1,1.7-1.7,2.5c-2,2.6-4.7,4.2-7.5,2.1c-0.4-0.3-1.2-0.7-1.1-1.2c0-0.4,0.1-0.9,0.1-1.3
		c0-1.3-0.3-2.6-1-3.7c-0.2-0.3-0.4-0.5-0.6-0.7c-0.2-0.2-0.5-0.2-0.5-0.2c0.1-0.6,0-1.2,0-1.7c-0.2-1.4-1.1-1.9-2.2-1.5l0,0
		c0,0,0,0,0,0c0,0,0,0,0,0c0,0,0,0,0,0c-0.8,0.5-0.7,1.7-0.6,2.6c0.1,0.5,0.5,0.9,0.4,1.4c-0.2,0.4-0.4,0.8-0.5,1.2
		c-1.3,2.7-3.6,5.7-6.3,3.6c-0.2-0.2-1.8-2-1.8-1.9c0.1-0.1,0.2-0.3,0.3-0.4c0.4-0.6,0.7-1.3,1-2c1.1-2.6,1.6-5.6,1.5-8.5
		c-0.1-3.4-0.9-6.6-2-9.6c-0.8-2.1-1.8-4-2.9-5.9c-0.7-1.2-1.3-2.6-1.4-4.2c0-0.1,0-0.2-0.1-0.2c-0.5-0.3-1.2-0.5-1.7-0.2
		c-1.1,0.5-0.8,2.4-0.6,3.4c0.4,3.1,0.7,6.1,1,9.2c0.4,4,0.8,8,1.1,12.1c0.1,1.6,0.3,3.1,0.4,4.7c0,0.5,0.1,1,0.1,1.5
		c0,0.2,0,0.9,0.1,0.8c-0.8,1.6-2.5,2.5-3.9,2.8c-1.9,0.4-3.9-0.3-5.6-1.2c-0.5-0.3-1.1-0.6-1.6-1c-0.2-0.1-1.6-1-1.6-1.2
		c-0.1-0.7,0.4-1.3,0.6-1.9c1.7-4.2,2.6-9.7,0.7-14c-0.7-1.5-1.8-2.7-3-3.6c-0.7-0.5-1.5-0.9-2.3-1.3c-0.4-0.2-0.5-0.3-0.8-0.1
		c-2.2,1.4-1.7,4.9-1.2,7.3c0.5,3.1,1.1,6.1,1.8,9.1c0.3,1.4,0.6,2.8,1.1,4.2c0,0.1,0.1,0.2,0.1,0.3c0,0,0,0,0,0.1
		c-0.2,0.3-0.5,0.5-0.7,0.7c-2.5,2.3-5.7,3.5-8.8,3.5c-1.1,0-2.3-0.2-3.4-0.5c-0.3-0.1-2.5-0.8-2.5-0.9c0-0.8,0.6-1.5,1-2
		c0.6-0.7,1.3-1.2,1.9-1.6c0.5-0.4,1.1-0.7,1.6-0.9c0.4-0.2,1.3-0.4,1.6-0.7c0.6-0.7-0.5-1.6-1-1.6c-1.1,0.1-2.3,0.1-3.4-0.1
		c-0.1,0-1.6-0.1-1.5-0.5c0,0.1,0.1,0,0.3-0.1c0.3-0.2,0.6-0.3,1-0.4c1.2-0.5,2.5-1,3.8-1c0.7,0,1.3,0.5,1.9-0.2
		c0.4-0.4,0-1.8-0.4-1.9c-0.7-0.1-1.5-0.1-2.3-0.1c-1.5,0.1-2.9,0.5-4.2,1.2c-0.8,0.4-1.6,0.9-2.4,1.4c-0.3,0.2-0.6,0.3-0.7,0.7
		c-0.5,2,0.8,3.1,2.2,3.3c-0.7,1-1.5,1.8-2.4,2.6c-0.8,0.7-1.8,1.3-2.8,1.7c-0.2,0.1-1.3,0.5-1.3,0.3c-0.3-0.6-0.3-1.2,0-1.9
		c0.1-0.5,0.2-1,0.3-1.5c0.3-2.9-0.8-5.7-2.4-7.8c-2-2.6-4.8-4.3-7.6-5.5c-4.8-2.1-9.9-2.9-14.9-3.4c5-1.7,10.1-3.1,15.3-3.5
		c-0.2,0.9,0,1.9,1,1.8c1.3-0.1,2.7-1,4-1.5c0.8-0.3,1.5-0.6,2.3-0.9c0.3-0.1,0.6-0.2,0.9-0.3c0.2,0,0.5,0,0.7-0.1
		c0.5-0.3,0.9-1.2,0.8-1.8c0-1.3-1.8-1.5-2.6-1.5c-0.8,0-1.6,0.1-2.4,0.2c-2.8,0.3-5.5,0.9-8.2,1.5c-6.9,1.4-13.7,3.1-20.5,5.3
		c-1.2,0.4-2.5,0.8-3.7,1.3c-0.8,0.3-1.4,0.4-1.7,1.4c-0.8,2.5,1.6,2.5,3,2.4c5.1-0.5,10.2-1,15.3-0.5c6.1,0.5,13.1,2.4,17,8.6
		c1.1,1.7,1.8,3.4,1.2,5.6c-0.2,0.6-0.5,1.2-0.7,1.8c-0.1,0.4-0.2,0.9-0.3,1.3c-0.1,0.6-0.7,1-1.2,0.9c-1.3-0.3-2.5-1.2-3.7-1.8
		c-5.8-3-11.8-5.4-18-7c-4.4-1.2-8.9-1.9-13.3-2.3c-2.6-0.2-5.2-0.3-7.8-0.2c-1.6,0-3.3-0.1-4.8,0.3c-0.8,0.2-1.7,0.6-2.2,1.5
		c-0.8,1.3-0.1,2.9,0.6,4.1c1.2,2,3.2,3.2,5,4.2c6.9,3.6,14.7,4.8,22.1,5.4c5.4,0.5,10.8,0.4,16.2,0.1c1.5-0.1,3-0.1,4.5-0.5
		c3-0.7,5.8-2.2,8.6-3.7c0.2-0.1,2.3-1.3,2.2-1.4c0.1,0.1,0.2,0.2,0.3,0.3c0.4,0.5,0.9,1,1.4,1.4c5.5,4.3,12.3,0.6,17.1-3.5
		c1.1,1.7,2.6,3.1,4.2,4c3.5,2.1,7.4,1.3,10.7-1c0.3,2.5,0.5,5.1,0.8,7.7c0,0.1,0,0.3,0,0.4c-0.3,0-0.7,0-1,0
		c-1.6,0-3.2,0.1-4.9,0.3c-1.6,0.2-3.2,0.3-4.8,0.9c-0.7,0.2-1.5,1.4-0.9,2.2c0.9,1.2,2.3,1.1,3.5,1c1.7-0.1,3.4-0.4,5.1-0.7
		c0.7-0.1,1.3-0.2,2-0.2c0.2,0,0.5,0,0.7,0c0.1,0,0.2,0,0.3,0.1c0,0,0,0,0.1,0c0.1,0.9,0.1,1.8,0.2,2.6c0.3,3.2,0.6,6.6,1.3,9.7
		c0.2,0.6,0.4,1.8,1,2c0.2,0.1,0.1,0,0.1,0c0,0,0,0,0,0c0.1,0.1,0.2,0.1,0.2,0.1c1.1-0.1,0.5-4.4,0.5-5c-0.2-2-0.4-3.9-0.7-5.9
		c-0.1-0.9-0.2-2-0.1-2.9c0.1-0.8,0.6-0.7,1.2-0.7c1.2-0.1,2.4-0.2,3.6-0.4c0.6-0.1,1.2-1.4,1.2-2c0.1-1.2-1.3-1.2-2-1.2h-4.2
		c0,0,0,0,0-0.1c-0.1-0.7-0.3-1.4-0.4-2.1c-0.3-2-0.7-4.4-0.2-6.5c0,0,0,0,0,0c1,1.1,2.3,1.9,3.7,2.1c3,0.6,5.2-2.2,6.5-5.2
		c0.5,2.1,1.5,4.5,3.1,5.5c0.6,0.4,1.2,0.4,1.8,0.4c1,0,2,0,3-0.1c2-0.3,3.9-1.3,5.7-2.6c0.5,1.1,1.4,2,2.3,2.7c2.6,2,6,1.9,8.9,1.2
		c0.6-0.1,1.2-0.3,1.7-0.5c0.2-0.1,0.7-0.4,0.9-0.3c0.3,0.1,0.7,0.2,1,0.3c1.3,0.3,2.7,0.2,4,0c1.8-0.4,3.5-1.4,4.9-2.9
		c0.2-0.2,0.7-0.7,0.5-0.9c0,0,0.1,0.1,0.1,0.1c0.2,0.2,0.3,0.4,0.5,0.6c2.1,2.3,4.6,3.9,7.3,4.8c4.7,1.4,9.6-0.1,13.7-2.9
		c0.1,2.7,0.3,5.3,0.5,8c0.3,3.6,0.5,7.6,1.4,11.1c-1.9-1.3-3.9-2.5-5.8-3.6c-3-1.7-6.2-3.6-9.6-4.2c0.3-0.6,0.7-1.3,1-1.9
		c0.1-0.2-0.1-0.4-0.3-0.3c-1.6,1.9-4,1-5.9,0.6c-2.9-0.6-5.8-1.1-8.8-1.5c-7.2-0.8-15.3-0.8-21.8,3.7c-0.9,0.6-1.6,1.5-1.8,2.8
		c-0.4,2.4,2.2,3.4,3.6,3.8c4.7,1.4,10,1,14.8,0.2c4.2-0.8,8.4-2.2,12.4-4c1-0.5,2.1-1.1,3.1-1.5c1-0.4,2.1,0,3.1,0.3
		c2.8,0.9,5.4,2.7,7.9,4.4c2.3,1.5,4.5,3.2,6.8,4.7c1.4,0.9,2.9,1.2,4.5,1.6c0.1,0,0.3-0.1,0.2-0.3C289.8,64.1,289.1,58,288.6,51.9
		L288.6,51.9z M245.4,14c-0.5,1.2-1.4,1.9-2,1.5c-0.6-0.4-0.8-1.7-0.3-2.9c0.5-1.2,1.4-1.9,2-1.5C245.7,11.5,245.8,12.8,245.4,14
		L245.4,14z M300.6,32c0,0,7.2-1.3,7.9-1.6c0,0,2.6-1.7,0-2.4c0,0-11.1-1.9-12.2,5.3c0,0-0.3,2.6,5.7,2.6c0,0-5.1,6.1-6.6,7.9
		c-1.5,1.8-0.9,5.9,2.7,5.7c0,0,23.9,0,24.8,0.2c0,0,2.9-1.1,0.3-3.1c0,0-19.2,0.4-24.6-0.4c0,0-1.2-2.8,8.3-9.4c0,0,2.9-3.1-0.5-4
		C306.4,32.7,302.5,33.3,300.6,32L300.6,32z"/>
</g>
</svg>
