<?xml version="1.0" encoding="utf-8"?>
<!-- Generator: Adobe Illustrator 21.1.0, SVG Export Plug-In . SVG Version: 6.00 Build 0)  -->
<svg version="1.1" id="Calque_1" xmlns="http://www.w3.org/2000/svg" xmlns:xlink="http://www.w3.org/1999/xlink" x="0px" y="0px"
	 viewBox="0 0 141 141" style="enable-background:new 0 0 141 141;" xml:space="preserve">
<style type="text/css">
	.st0{fill:#7AEDE2;}
</style>
<g>
	<path class="st0" d="M106.1,85c-3.1,0-5.7,2.5-5.7,5.6v14.2c0,2.8,2.5,5.3,5.7,5.3c3.1,0,5.7-2.6,5.7-5.3V90.6
		C111.8,87.5,109.3,85,106.1,85z"/>
	<path class="st0" d="M4,4.1v132.6H137V4.1H4z M101.9,22.2h8.5v41.9h-8.5V22.2z M48.7,104.8c0,3.6-1.6,7.1-3.9,9.7l3.9,12.6h-8.2
		l-2.9-8.7c-0.9,0.2-1.8,0.3-2.7,0.3c-7.8,0-14-6.4-14-13.8V90.6c0-7.6,6.1-13.8,14-13.8c7.8,0,13.8,6.3,13.8,13.8V104.8z
		 M48.7,50.2c0,7.9-6,13.9-13.8,13.9c-7.8,0-14-6.1-14-13.9v-28h8.3v28c0,3.2,2.5,5.7,5.7,5.7c3.2,0,5.7-2.6,5.7-5.7v-28h8.2V50.2z
		 M88,118.6h-28V76.8h8.5v33.4H88V118.6z M88,64.1h-8.5l-11-24v24h-8.5V22.2h8.5l11,24v-24H88V64.1z M120,104.8
		c0,7.5-6,13.8-13.8,13.8c-7.8,0-13.8-6.4-13.8-13.8V90.6c0-7.6,6-13.8,13.8-13.8c7.8,0,13.8,6.3,13.8,13.8V104.8z"/>
	<path class="st0" d="M34.9,85c-3.1,0-5.7,2.5-5.7,5.6v14.2c0,2.8,2.5,5.3,5.7,5.3c3.2,0,5.7-2.6,5.7-5.3V90.6
		C40.5,87.5,38,85,34.9,85z"/>
</g>
</svg>
