<?xml version="1.0" encoding="utf-8"?>
<!-- Generator: Adobe Illustrator 21.1.0, SVG Export Plug-In . SVG Version: 6.00 Build 0)  -->
<svg version="1.1" id="Calque_1" xmlns="http://www.w3.org/2000/svg" xmlns:xlink="http://www.w3.org/1999/xlink" x="0px" y="0px"
	 viewBox="0 0 335 89" style="enable-background:new 0 0 335 89;" xml:space="preserve">
<style type="text/css">
	.st0{fill:#78D6EF;}
</style>
<g id="g6649" transform="matrix(1.25,0,0,-1.25,-2.3494291,1048.0504)">
	<g id="g6689" transform="matrix(4.9640925,0,0,4.9640925,-1632.2204,-2174.7375)">
		<path id="path6653" class="st0" d="M340.2,595.7c0-0.8-0.7-1.5-1.2-1.5h-5.9l7.5,11.9h-10v-2h0.5c0,0.8,0.5,1.5,1.1,1.5h5.1
			l-7.5-11.9h10.8l0,2H340.2"/>
		<g>
			<path class="st0" d="M353.2,594.6l-5.8,11.4l-5.3-11.4c-0.1-0.3-0.6-0.6-1.3-0.6v-0.4h2.8v0.4c-0.5,0-1.1,0.3-0.9,0.6l1.3,2.8
				h4.9l1.4-2.8c0.2-0.3-0.5-0.6-1.3-0.6v-0.4h5.9l0,0.4C353.9,594.1,353.3,594.3,353.2,594.6z M344.1,597.8l2.1,4.6l2.4-4.6H344.1z
				"/>
		</g>
		<path id="path6657" class="st0" d="M355.4,605.6c0.9,0,1.6-0.2,1.6-0.5c0-2.1,0-10.4,0-10.4c0-0.3-0.7-0.6-1.6-0.6l0-0.4h5.7v0.3
			c-0.9,0-1.5,0.3-1.5,0.6v11h1.7c1.6,0,2.9-1.3,2.9-2.8s-1.3-2.7-2.9-2.7h-1.1c0,0,3.9-5.9,3.9-5.9c0.2-0.2,0.2-0.6,0.2-0.6h4.2
			v0.3c-0.8,0-1.2,0.3-1.5,0.6l-3.7,4.9c1.8,0.1,3.2,1.6,3.2,3.3c0,1.8-1.5,3.2-3.4,3.2h-7.5V605.6"/>
		<g>
			<path class="st0" d="M381.2,594.6l-5.8,11.4l-5.3-11.4c-0.1-0.3-0.6-0.6-1.3-0.6v-0.4h2.8v0.3c-0.5,0-1.1,0.3-0.9,0.6l1.3,2.8
				h4.9l1.4-2.8c0.2-0.3-0.5-0.6-1.3-0.6v-0.4h5.9l0,0.4C381.9,594,381.4,594.3,381.2,594.6z M372.2,597.8l2.1,4.6l2.4-4.6H372.2z"
				/>
		</g>
	</g>
</g>
</svg>
