<?xml version="1.0" encoding="utf-8"?>
<!-- Generator: Adobe Illustrator 21.1.0, SVG Export Plug-In . SVG Version: 6.00 Build 0)  -->
<svg version="1.1" id="Calque_1" xmlns="http://www.w3.org/2000/svg" xmlns:xlink="http://www.w3.org/1999/xlink" x="0px" y="0px"
	 viewBox="0 0 603 60" style="enable-background:new 0 0 603 60;" xml:space="preserve">
<style type="text/css">
	.st0{fill:#7AEDE2;}
</style>
<g>
	<path id="path15602" class="st0" d="M407,19.5c-4.8,0-9,3.4-9,8.6c0,4,3.1,6.3,4,7.1c-4.3,2.2-8.7,5.6-8.8,11.6
		c0.1,4.6,3.3,10.3,11.6,10.3c4.4,0,8.1-1.8,11.9-5.6c0.7,1.2,2,3,2.8,3.8c1.1,1.1,4,1.8,6.7,1.8c2.9,0,7-1.1,9.8-4.1
		c0.2-0.6-0.2-1.1-0.8-1.2c-1.2,0.9-3.1,1.6-4.6,1.6c-4.1,0-6.7-2.4-9.2-6.2c-0.4-0.6-0.5-1.2-0.1-1.7c2.5-3.6,4.6-6.7,5.9-9
		c2-3.3,3.2-5,6.2-5.6l2.6-0.6c0.5-0.5,0.3-1.4-0.1-1.6c-1.3,0.1-6.7,0.3-9.6,0.3h-3.2c-0.6,0.2-0.7,1.1-0.2,1.6l1.7,0.3
		c1.6,0.3,1.4,0.9,0.4,3.1c-1.7,3.7-3.7,7.6-5.5,10c-3-4.7-5.2-7.4-9.6-10.2c1.9-1.2,5.4-2.5,5.4-6.9
		C415.3,22.9,412.1,19.5,407,19.5L407,19.5z M410.4,41.7c1.7,1.9,3.3,4,4.7,6.2c0.7,1.1,0.7,1.4-0.2,2.2c-1.8,1.6-4.1,2.6-6.7,2.6
		c-5,0-9-3.4-9-8.2c0-2.9,1.6-5.8,3.5-7.2c0.5-0.4,1-0.7,1.3-0.7C404.3,36.7,407.7,38.7,410.4,41.7L410.4,41.7z M406.7,21.5
		c2.2,0,3.6,2.1,3.6,5.1c0,2.4-0.8,4.3-1.9,5.5c-0.1,0.1-0.4,0.3-0.6,0.3c-0.1,0-0.6-0.3-0.9-0.5c-2.5-1.9-3.9-3.6-3.9-6
		C403.1,23.3,404.8,21.5,406.7,21.5z"/>
	<path id="path15606" class="st0" d="M459.3,6c-3.3,0-6.8-0.1-9.4-0.2c-0.6,0.3-0.7,1.7-0.2,2.2l1,0.1c3.6,0.5,4.3,0.8,4.3,8.8v28.3
		c0,8.1-0.7,8.3-4.3,8.8l-1.7,0.2c-0.5,0.5-0.5,1.9,0.2,2.2c3.5-0.2,6.9-0.2,10.3-0.2c3.3,0,6.8,0.1,11.6,0.2
		c0.6-0.3,0.7-1.7,0.2-2.2l-3.2-0.4c-3.6-0.3-4.3-0.5-4.3-8.6V34.6c0-1.9,0-2.1,1.8-2.1h4.5c6.7,0,7.8,0.2,8.6,3.3l0.6,3
		c0.5,0.5,1.9,0.5,2.3-0.1c-0.1-2.4-0.2-5.1-0.2-7.9c0-2.8,0.2-5.6,0.2-7.6c-0.4-0.6-1.9-0.6-2.3-0.1l-0.6,2.6
		c-0.7,3.2-1.9,3.3-8.6,3.3h-4.5c-1.8,0-1.8-0.2-1.8-2.1V13.5c0-4.3,0-4.4,3.2-4.4h3.9c2.4,0,4.3,0,6.4,0.6c2.9,0.8,4.1,3,4.9,7.4
		c0.8,0.5,2.1,0.3,2.4-0.3c-0.1-3.6-0.1-9.3-0.1-11c-1.6,0.2-5.9,0.2-10.7,0.2L459.3,6L459.3,6z"/>
	<path id="path15610" class="st0" d="M498.1,34c0-3.1,0.1-6.7,0.2-9.3c-0.2-0.4-0.6-0.5-1.1-0.6c-2.1,1.3-5.9,3-9.9,4.1
		c-0.3,0.4-0.3,1.4-0.1,1.7l0.9,0.5c1.9,1.1,1.9,2,1.9,5.5v11.2c0,5.6-0.3,6.4-2.9,6.9l-1.4,0.2c-0.5,0.5-0.5,1.9,0.2,2.2
		c2.9-0.2,5.5-0.2,8-0.2c2.8,0,5.4,0.1,8.2,0.2c0.6-0.3,0.7-1.7,0.1-2.2L501,54c-2.6-0.4-2.9-1.2-2.9-6.9L498.1,34L498.1,34z
		 M494.1,15.2c2.9,0,4.9-2.1,4.9-4.8s-2-4.8-4.9-4.8c-2.9,0-4.9,2.1-4.9,4.8S491.2,15.2,494.1,15.2z"/>
	<path id="path15618" class="st0" d="M525.3,29.6c0.6-0.4,0.9-1.1,1-2c0-0.8-0.2-1.4-0.6-1.6h-7.5c-1.4,0-1.4-0.2-1.4-1.4V20
		c-0.4-0.6-1.4-0.9-2.1-0.4c-1.1,2.1-2.7,3.7-4.2,4.8c-1.7,1.2-3.4,2.2-6,3.2c-0.7,0.5-0.5,1.7,0.2,2.1h2.7c1.2,0,1.4,0,1.4,2.7
		v15.4c0,5.3,1.3,9.5,8.5,9.5c4.6,0,8.1-2.1,9.7-4.2c0.1-0.9-0.3-1.4-1-1.5c-1.2,0.8-2.1,1.4-3.7,1.4c-4.8,0-5.5-4.3-5.5-9V32.2
		c0-2.4,0.1-2.6,1.4-2.6L525.3,29.6L525.3,29.6z"/>
	<path id="path15614" class="st0" d="M547.7,25.2c-12.2,0-18.7,8.1-18.7,17c0,4.4,1.7,8.4,4.4,10.9c2.6,2.5,6.5,4.1,10.6,4.1
		c4.8,0,10.6-2.1,13.4-8.3c-0.1-0.9-0.9-1.4-1.6-1.4c-1.5,2.2-3.3,4-8.2,4c-6.9,0-10.9-5.9-10.9-12c0-7.1,4.5-11.4,8.8-11.4
		c2.9,0,5.2,2.4,6.9,4.6c0.5,0.7,0.9,0.8,1.4,0.8c0.6,0,1.9-1.2,1.9-3.6c0-1.8-0.5-3-1.5-3.9C552.1,25.5,549.9,25.2,547.7,25.2z"/>
	<path id="path15622" class="st0" d="M572.4,13.5c0-3.3,0.1-8,0.2-11c-0.2-0.4-0.6-0.7-1.1-0.6c-3.1,1.2-7,2.8-10,3.6
		c-0.5,0.2-0.5,1.4,0,1.7l1,0.7c1.7,1,1.8,1.5,1.8,6.6v32.6c0,5.6-0.3,6.4-2.9,6.9l-1.7,0.2c-0.5,0.5-0.5,1.9,0.2,2.2
		c3.2-0.2,5.8-0.2,8.2-0.2c2.8,0,5.4,0.1,8.1,0.2c0.6-0.3,0.7-1.7,0.2-2.2l-1.2-0.2c-2.6-0.5-2.9-1.3-2.9-6.9V37c0-3,0.1-4.1,0.9-5
		c0.9-1,2.7-2.2,5.2-2.2c4.5,0,6.1,3.1,6.1,6.7v10.7c0,5.6-0.3,6.4-2.9,6.9l-1.2,0.2c-0.5,0.5-0.5,1.9,0.2,2.2
		c2.6-0.2,5.2-0.2,7.8-0.2c2.8,0,5.4,0.1,8.6,0.2c0.7-0.3,0.8-1.7,0.1-2.2l-1.7-0.2c-2.6-0.4-2.9-1.2-2.9-6.9V35.9
		c0-6.5-3.2-10.7-9.7-10.7c-3.8,0-7.1,1.7-9.7,3.6c-0.5,0-0.7-0.4-0.7-1.3L572.4,13.5L572.4,13.5z"/>
	<path id="path15558" class="st0" d="M33.5,38.5c2.1,0,2.4,0,3.1,2.1l3.6,10.3c1,3.3,0.7,3.7-2,4l-1.7,0.2c-0.5,0.5-0.4,1.8,0.2,2.2
		c2.6-0.1,6-0.2,9.3-0.2c3.9,0,6.7,0.1,9.9,0.2c0.5-0.4,0.5-1.7-0.1-2.2l-1.2-0.2c-3.8-0.7-4.3-1.2-6-6.3L37.8,16.7
		c-1.2-3.4-2.2-7-3.4-10.4C34,5.9,33.6,5.7,33,5.7c-0.2,0-2.7,3.1-5.3,3.7c0.2,1.3-0.5,3.1-1.4,5.5L15.9,42
		c-1.6,4.1-2.8,7.3-3.8,9.3c-1.1,2.5-1.9,3.2-4.2,3.5l-2.3,0.4c-0.5,0.7-0.5,1.8,0.1,2.2c2.6-0.2,5-0.2,7.5-0.2
		c3.1,0.1,5.6,0.1,8.1,0.2c0.6-0.3,0.7-1.7,0.2-2.2l-2.2-0.4c-2.9-0.4-3.1-0.6-1.6-5.1l3.1-9.1c0.7-2.1,0.6-2.1,2.6-2.1H33.5
		L33.5,38.5z M24.6,35c-1.8,0-2,0-1.2-2.2l3.2-8.9c1.4-3.6,2-5.5,2.3-6H29c0.4,0.5,0.8,2,2.1,6l3.2,9.1c0.6,1.8,0.3,2-1.8,2H24.6
		L24.6,35z"/>
	<path id="path15562" class="st0" d="M67,14.3c0-3.3,0.1-8,0.2-11c-0.2-0.4-0.6-0.7-1.1-0.6c-3.1,1.2-7.1,2.8-10,3.6
		c-0.5,0.2-0.5,1.4,0,1.7l1.1,0.7c1.7,1,1.7,1.5,1.7,6.6v34.3c0,2.9-0.2,6.9-0.2,7.1c0,0.2,0.5,0.5,0.8,0.5c0.2,0,0.4,0,0.5,0
		c0.5-0.5,1-1.2,1.9-1.2c0.9,0,4.5,2.1,10.1,2.1c10,0,18-6.2,18-17.1c0-8.4-5.6-15-14.5-15c-3,0-5.5,1-8,2.4c-0.5,0-0.6-0.3-0.6-1.4
		V14.3L67,14.3z M67,35.2c0-2.6,0.2-3.6,0.8-4c0.6-0.5,2.2-1,3.8-1c5.4,0,10.1,4.8,10.1,13.7c0,6.4-2.8,11.2-7.9,11.2
		c-2.2,0-4-1.1-5.1-2.6c-1.2-1.6-1.7-4.3-1.7-7.6V35.2z"/>
	<path id="path15566" class="st0" d="M116.7,39.1c3.1,0,4.8-0.3,5.2-1c0.3-0.6,0.4-1.1,0.4-1.8c0-6.6-5.8-10.2-11.4-10.2
		c-10.2,0-16.1,8.3-16.1,16.9c0,8.6,5.9,15.2,14.7,15.2c4.7,0,10.3-2.3,12.9-8.4c-0.1-0.7-0.9-1.4-1.7-1.2c-1.7,2.8-4.3,3.8-7.3,3.8
		c-6.8,0-11.5-5.5-11.5-12.3c0-0.9,0.2-1,1.6-1L116.7,39.1z M103.6,36c-0.9,0-1.1-0.2-1.1-0.5c0-1.6,2.4-6.5,7.4-6.5
		c3.3,0,5,2.2,5,4.9c0,0.7-0.3,1.3-0.7,1.6c-0.5,0.3-1.5,0.5-3.8,0.5H103.6z"/>
	<path id="path15570" class="st0" d="M128.9,48c0,5.6-0.3,6.4-2.9,6.9l-1.4,0.2c-0.5,0.5-0.5,1.9,0.1,2.2c2.9-0.2,5.4-0.2,7.9-0.2
		c2.8,0,5.4,0.1,10,0.2c0.6-0.3,0.7-1.7,0.2-2.2l-3-0.3c-2.6-0.3-3-1.2-3-6.8V37.6c0-3.8,0.5-5.5,2.2-5.5c0.5,0,1.7,0.2,3.6,1.4
		c0.6,0.4,1.3,0.6,2.1,0.6c2,0,4.3-1.4,4.3-4.4c0-2-1.5-3.7-4.2-3.7c-2.6,0-5.1,2.3-7.4,4c-0.5,0-0.7-0.4-0.7-0.9c0-0.7,0-2,0.1-3.4
		c-0.1-0.5-0.6-0.7-1-0.7c-2.3,1.4-6.3,3.1-9.6,4.1c-0.3,0.4-0.3,1.4-0.1,1.7l0.9,0.5c1.9,1.1,1.9,2,1.9,5.5L128.9,48L128.9,48z"/>
	<path id="path15574" class="st0" d="M168.2,26.1c-12.2,0-18.7,8.1-18.7,17c0,4.4,1.7,8.4,4.4,10.9c2.6,2.5,6.5,4.1,10.6,4.1
		c4.8,0,10.6-2.1,13.4-8.3c-0.1-0.9-0.9-1.4-1.6-1.4c-1.5,2.2-3.3,4-8.2,4c-6.9,0-10.9-5.9-10.9-12c0-7.1,4.5-11.4,8.8-11.4
		c2.9,0,5.2,2.4,6.9,4.6c0.5,0.7,0.9,0.8,1.4,0.8c0.6,0,1.9-1.2,1.9-3.6c0-1.8-0.5-3-1.5-3.9C172.6,26.4,170.3,26.1,168.2,26.1z"/>
	<path id="path15578" class="st0" d="M184.3,48c0,5.6-0.3,6.4-2.9,6.9l-1.4,0.2c-0.5,0.5-0.5,1.9,0.1,2.2c2.9-0.2,5.4-0.2,7.9-0.2
		c2.8,0,5.4,0.1,10,0.2c0.6-0.3,0.7-1.7,0.2-2.2l-3-0.3c-2.6-0.3-3-1.2-3-6.8V37.6c0-3.8,0.5-5.5,2.2-5.5c0.5,0,1.7,0.2,3.6,1.4
		c0.6,0.4,1.3,0.6,2.1,0.6c2,0,4.3-1.4,4.3-4.4c0-2-1.5-3.7-4.2-3.7c-2.6,0-5.1,2.3-7.4,4c-0.5,0-0.7-0.4-0.7-0.9c0-0.7,0-2,0.1-3.4
		c-0.1-0.5-0.6-0.7-1-0.7c-2.3,1.4-6.3,3.1-9.6,4.1c-0.3,0.4-0.3,1.4-0.1,1.7l0.9,0.5c1.9,1.1,1.9,2,1.9,5.5L184.3,48L184.3,48z"/>
	<path id="path15582" class="st0" d="M221.5,26.1c-8.9,0-16.6,6.4-16.6,16.6c0,10,7.3,15.5,16.1,15.5c9,0,16.6-5.6,16.6-16.4
		C237.6,31.8,230.1,26.1,221.5,26.1z M213.8,41.5c0-8.5,3.1-12.4,6.9-12.4c5.6,0,7.8,7.5,7.8,13.9c0,5.9-1.5,12.1-6.7,12.1
		C216.4,55.1,213.8,48.4,213.8,41.5z"/>
	<path id="path15586" class="st0" d="M243.6,48c0,5.6-0.3,6.4-2.9,6.9l-1.4,0.2c-0.5,0.5-0.5,1.9,0.2,2.2c2.9-0.2,5.4-0.2,7.9-0.2
		c2.8,0,5.4,0.1,8.1,0.2c0.6-0.3,0.7-1.7,0.2-2.2l-1.2-0.2c-2.6-0.5-2.9-1.3-2.9-6.9V37.8c0-3,0.1-3.6,1-4.9
		c0.8-1.1,2.8-2.4,5.4-2.4c4.4,0,5.8,3.1,5.8,7.1V48c0,5.6-0.3,6.4-2.9,6.9l-1,0.2c-0.5,0.5-0.5,1.9,0.2,2.2
		c2.5-0.2,5.1-0.2,7.6-0.2c2.8,0,5.3,0.1,8,0.2c0.6-0.3,0.7-1.7,0.2-2.2l-1.2-0.2c-2.6-0.5-2.9-1.3-2.9-6.9V36.8
		c0-2.1,0.2-3,0.9-3.9c0.9-1.2,2.9-2.3,5.1-2.3c4.8,0,6.2,3.1,6.2,7.1V48c0,5.6-0.3,6.4-2.9,6.9l-1.2,0.2c-0.5,0.5-0.5,1.9,0.2,2.2
		c2.7-0.2,5.3-0.2,7.8-0.2c2.8,0,5.4,0.1,8.7,0.2c0.3-0.3,0.7-1.7,0-2.2l-1.7-0.2c-2.6-0.4-2.9-1.2-2.9-6.9V36.3
		c0-5.9-2.9-10.2-9.3-10.2c-3.6,0-6.2,1.4-9.7,3.6c-0.9,0.5-1.4,0.8-1.7,0.8c-0.3,0-0.7-0.5-1.2-1.2c-1.1-1.4-3.6-3.2-6.9-3.2
		c-5.2,0-7.1,1.8-10.9,3.8c-0.5-0.1-0.7-0.2-0.7-0.7c0-0.6,0-2.1,0.2-3.5c-0.2-0.3-0.5-0.6-1-0.6c-2.4,1.4-6.5,3.2-9.9,4.1
		c-0.3,0.4-0.3,1.4-0.1,1.7l0.9,0.5c1.9,1.1,1.9,2,1.9,5.5L243.6,48L243.6,48z"/>
	<path id="path15590" class="st0" d="M307.8,14.3c0-3.3,0.1-8,0.2-11c-0.2-0.4-0.6-0.7-1.1-0.6c-3.1,1.2-7.1,2.8-10,3.6
		c-0.5,0.2-0.5,1.4,0,1.7l1.1,0.7c1.7,1,1.7,1.5,1.7,6.6v34.3c0,2.9-0.2,6.9-0.2,7.1c0,0.2,0.5,0.5,0.8,0.5c0.2,0,0.4,0,0.5,0
		c0.5-0.5,1-1.2,1.9-1.2c0.9,0,4.5,2.1,10.1,2.1c10,0,18-6.2,18-17.1c0-8.4-5.6-15-14.5-15c-3,0-5.5,1-8,2.4c-0.5,0-0.6-0.3-0.6-1.4
		L307.8,14.3L307.8,14.3z M307.8,35.2c0-2.6,0.2-3.6,0.8-4c0.6-0.5,2.2-1,3.8-1c5.4,0,10.1,4.8,10.1,13.7c0,6.4-2.8,11.2-7.9,11.2
		c-2.2,0-4-1.1-5.1-2.6c-1.2-1.6-1.7-4.3-1.7-7.6L307.8,35.2L307.8,35.2z"/>
	<path id="path15594" class="st0" d="M344.9,34.9c0-3.1,0.1-6.7,0.2-9.3c-0.2-0.4-0.6-0.5-1.1-0.6c-2.1,1.3-5.9,3-9.9,4.1
		c-0.3,0.4-0.3,1.4-0.1,1.7l0.9,0.5c1.9,1.1,1.9,2,1.9,5.5V48c0,5.6-0.3,6.4-2.9,6.9l-1.4,0.2c-0.5,0.5-0.5,1.9,0.2,2.2
		c2.9-0.2,5.5-0.2,8-0.2c2.8,0,5.4,0.1,8.2,0.2c0.6-0.3,0.7-1.7,0.1-2.2l-1.4-0.2c-2.6-0.4-2.9-1.2-2.9-6.9L344.9,34.9L344.9,34.9z
		 M340.9,16c2.9,0,4.9-2.1,4.9-4.8c0-2.7-2-4.8-4.9-4.8s-4.9,2.1-4.9,4.8C336.1,14,338,16,340.9,16z"/>
	<path id="path15598" class="st0" d="M373.3,39.1c3.1,0,4.8-0.3,5.2-1c0.3-0.6,0.4-1.1,0.4-1.8c0-6.6-5.8-10.2-11.4-10.2
		c-10.2,0-16.1,8.3-16.1,16.9c0,8.6,5.9,15.2,14.7,15.2c4.7,0,10.3-2.3,12.9-8.4c-0.1-0.7-1-1.4-1.7-1.2c-1.7,2.8-4.3,3.8-7.3,3.8
		c-6.8,0-11.5-5.5-11.5-12.3c0-0.9,0.2-1,1.6-1L373.3,39.1z M360.2,36c-0.9,0-1.1-0.2-1.1-0.5c0-1.6,2.4-6.5,7.4-6.5
		c3.3,0,5,2.2,5,4.9c0,0.7-0.3,1.3-0.7,1.6c-0.5,0.3-1.5,0.5-3.8,0.5H360.2z"/>
</g>
</svg>
