<?xml version="1.0" encoding="utf-8"?>
<!-- Generator: Adobe Illustrator 21.1.0, SVG Export Plug-In . SVG Version: 6.00 Build 0)  -->
<svg version="1.1" id="Calque_1" xmlns="http://www.w3.org/2000/svg" xmlns:xlink="http://www.w3.org/1999/xlink" x="0px" y="0px"
	 viewBox="0 0 242 93" style="enable-background:new 0 0 242 93;" xml:space="preserve">
<style type="text/css">
	.st0{fill:#7AEDE2;}
</style>
<g>
	<path class="st0" d="M232.6,39.2c-3-3.1-7-5-11.1-6.4c-5.4-1.9-11.3-2.3-16.7-4.3c-1.8-0.7-3.5-1.5-4.8-3c-1.7-1.9-2.1-4.8-1.1-7.1
		c0.7-1.5,1.9-2.6,3.4-3.3c2.4-1.1,5.1-1.3,7.7-1.1c2.7,0.2,5.4,1.1,7.3,2.9c1.7,1.5,2.8,3.7,3.2,6c0.1,0.6,0.5,1.2,1.2,1.2
		c4.2,0,8.5,0.1,12.7,0.1c0.6,0.1,1.2-0.4,1-1.1c-0.5-3.4-1.7-6.7-3.6-9.5c-2.3-3.5-5.8-6-9.7-7.6c-3.6-1.4-7.4-2-11.2-2.3h-4.4
		c-4.7,0.3-9.5,0.9-13.8,2.9c-3.1,1.4-6,3.6-7.8,6.6c-1.8,2.8-2.5,6.2-2.5,9.6c-2.3-4.7-5.7-8.8-9.8-12c-5.4-4.3-12.3-6.7-19.2-7.1
		h-3.6c-4.7,0.3-9.4,1.6-13.6,3.8c-6.2,3.3-11.3,8.5-14.6,14.6c-0.5-2.6-1.4-5.2-2.8-7.5c-1.8-3.1-4.6-5.7-7.8-7.4
		c-4.2-2.3-9-3.2-13.8-3.5h-4.6c-3.5,0.2-6.9,0.6-10.2,1.6c-3.9,1.1-7.6,3.1-10.1,6.3c-1.5,1.8-2.4,3.9-3.1,6.1c0-3.6,0-7.2,0-10.8
		c0-0.4,0-0.8-0.4-1.1c-0.3-0.3-0.8-0.3-1.1-0.3c-3.9,0-7.7,0-11.5,0c-0.6,0-1,0.5-1.1,1.1c-0.1,1,0,2.1,0,3.1
		c0,0.3-0.1,0.5-0.3,0.6c-0.4-0.2-0.7-0.4-1.1-0.7C49.2,6.1,43.7,3.9,38,3.6H35c-3.1,0.2-6.2,0.7-9.1,1.7c-5.1,1.8-9.7,4.9-13.4,8.7
		C8.1,18.4,5,24.1,3.8,30.2c-0.4,1.8-0.6,3.7-0.7,5.5v3.8c0.2,4.2,1.1,8.3,2.8,12.2c2.7,6.1,7.3,11.2,12.9,14.8
		c5.3,3.5,11.6,5.2,18,5.1c6.3,0,12.5-2.3,17.4-6.2c0.3-0.2,0.8-0.7,1-0.2c0.1,1.2,0,2.4,0,3.6c0,0.5,0.5,1.1,1,1c4,0,8,0,12,0
		c0.6,0,1.1-0.6,1.1-1.2c0-3.5,0-7.1,0-10.6c1.2,2.5,2.7,4.9,4.7,6.8c3.4,3.3,8,5.1,12.5,6c3.8,0.8,7.7,0.8,11.6,0.7
		c4.1-0.2,8.2-0.8,12.1-2.2c3.1-1.1,6.1-2.6,8.5-4.9c2.3-2.1,4-5,4.7-8.1c1,1.5,2.2,2.9,3.4,4.3c4.5,4.9,10.5,8.5,17.1,9.9
		c7.4,1.7,15.4,1.1,22.3-2.2c6.5-3.1,11.8-8.2,15.3-14.5c1,3.7,2.7,7.3,5.4,10.1c2.3,2.4,5.2,4.2,8.3,5.4c5.4,2,11.2,2.3,16.9,2.1
		c4.7-0.2,9.4-1,13.7-2.8c3.4-1.4,6.5-3.5,8.7-6.4c1.9-2.5,2.9-5.6,3.2-8.8v-3C237.5,46.3,235.7,42.2,232.6,39.2z M52.1,50.4
		c-1.8,3.2-4.7,5.8-8.1,7.2c-4.4,1.8-9.5,2-13.9,0.3c-3.9-1.4-7.2-4.3-9.3-7.9c-2.5-4.4-3.4-9.6-3-14.6c0.4-5,2.3-10.1,5.9-13.8
		c2.5-2.7,6-4.5,9.6-5c4.1-0.6,8.4-0.1,12.1,1.7c3.2,1.6,5.8,4.3,7.3,7.6c1.6,3.5,2.2,7.3,2.2,11.1C55,41.6,54.4,46.4,52.1,50.4z
		 M107.3,56c-0.9,1.7-2.5,2.9-4.3,3.7c-2.2,0.9-4.6,1.1-6.9,1c-3.5-0.1-7.2-1-9.8-3.4c-2-1.8-3.2-4.4-3.7-7.1c0-0.5-0.4-1.1-1-1.1
		c-4.1-0.1-8.1-0.1-12.2-0.2c0-7,0-14,0-21.1c0.5,1.4,1,2.7,1.8,3.9c1.5,2.3,3.9,4.1,6.3,5.4c4.6,2.4,9.8,3.5,14.9,4.5
		c3.9,0.8,7.8,1.6,11.3,3.3c2,1,4.1,2.7,4.6,5C108.6,52,108.3,54.2,107.3,56z M118.1,38.4c-3.1-2.7-6.9-4.6-10.7-5.8
		c-4.1-1.4-8.4-1.9-12.6-3.1c-2.2-0.6-4.4-1.3-6.4-2.4c-1.5-0.9-2.8-2.2-3.3-3.9c-0.6-1.9-0.4-4.2,0.7-5.9c1-1.5,2.7-2.4,4.4-3
		c2.3-0.7,4.8-0.7,7.2-0.4c2.4,0.3,4.9,1.3,6.7,3.1c1.6,1.5,2.6,3.6,3,5.7c0.1,0.6,0.4,1.2,1.1,1.2c4.3,0,8.5,0.1,12.8,0.1
		C118.8,28.6,118,33.5,118.1,38.4z M167.8,50c-1.6,3.1-4.3,5.7-7.4,7.3c-3.6,1.8-7.8,2.3-11.7,1.6c-3.3-0.5-6.4-2-8.9-4.2
		c-2.5-2.2-4.2-5.2-5.2-8.4c-1.2-3.9-1.5-8.1-1.1-12.1c0.6-4.4,2.2-8.9,5.3-12.2c2.8-3,6.8-5,10.9-5.4c3.5-0.4,7.1,0.1,10.3,1.6
		c3.4,1.6,6.2,4.3,8,7.7c1.8,3.4,2.6,7.2,2.7,11C170.7,41.3,169.9,46,167.8,50z M219.3,58.1c-1.9,1.6-4.4,2.4-6.9,2.6
		c-3.4,0.2-6.9-0.1-10-1.7c-2.5-1.3-4.5-3.6-5.4-6.2c-0.4-1-0.5-2.1-0.9-3.1c-0.4-0.7-1.3-0.5-1.9-0.6c-3.4,0-6.8-0.1-10.2-0.1
		c1.7-5.3,2.1-10.9,1.4-16.4c2.3,3.1,5.8,5,9.4,6.3c5.9,2.2,12.2,2.8,18.3,4.6c2.3,0.7,4.6,1.6,6.5,3.1c1.3,1,2.3,2.4,2.5,4
		C222.5,53.3,221.5,56.2,219.3,58.1z"/>
	<path class="st0" d="M14.8,75.8c-0.5,0-1,0-1.5,0c0,1.9,0,3.9,0,5.8c-1.9-2.4-5.8-2.5-8-0.4c-2.3,2.1-2.2,6.3,0.3,8.2
		c1,0.9,2.4,1.3,3.8,1.2c1.5,0.1,3-0.7,3.9-1.8c0,0.6,0,1.1,0,1.7c0.5,0,1,0,1.5,0C14.8,85.5,14.8,80.6,14.8,75.8z M12.2,88
		c-1.4,1.4-3.8,1.6-5.4,0.4c-1.5-1.2-1.9-3.4-1.2-5.1C6,82.3,7,81.5,8.1,81.2c1.6-0.4,3.4,0.1,4.4,1.4C13.7,84.2,13.6,86.6,12.2,88z
		"/>
	<path class="st0" d="M19.5,75.8c0.7-0.3,1.5,0.4,1.4,1.2c0,0.9-1.3,1.4-1.9,0.7C18.5,77.1,18.7,76,19.5,75.8L19.5,75.8z"/>
	<path class="st0" d="M98.8,76.4c1-0.8,2.4-0.7,3.6-0.5c-0.1,0.5-0.2,0.9-0.3,1.4c-0.8-0.1-1.7-0.3-2.3,0.2
		c-0.7,0.6-0.7,1.6-0.7,2.4c0.8,0,1.6,0,2.5,0c0,0.5,0,0.9,0,1.4c-0.8,0-1.6,0-2.4,0c0,3,0,6,0,9c-0.5,0-1,0-1.5,0c0-3,0-6,0-9
		c-0.7,0-1.5,0-2.2,0c0-0.5,0-0.9,0-1.4c0.7,0,1.5,0,2.2,0C97.6,78.6,97.8,77.2,98.8,76.4L98.8,76.4z"/>
	<path class="st0" d="M127.9,75.8c0.5,0,1,0,1.5,0c0,1.9,0,3.8,0,5.7c0.8-1.1,2.2-1.9,3.6-1.9c1.2,0,2.5,0.4,3.2,1.4
		c0.8,1.2,0.7,2.6,0.7,4c0,1.8,0,3.6,0,5.4c-0.5,0-1,0-1.5,0c0-1.9,0-3.9,0-5.8c0-1-0.1-2.2-0.8-2.9c-1.1-0.9-2.7-0.8-3.8,0
		c-1,0.8-1.3,2.1-1.3,3.3c0,1.8,0,3.6,0,5.4c-0.5,0-1,0-1.5,0C127.9,85.5,127.9,80.6,127.9,75.8L127.9,75.8z"/>
	<path class="st0" d="M141.3,75.9c0.7-0.4,1.7,0.3,1.5,1.1c0,0.8-1.1,1.3-1.8,0.8C140.4,77.3,140.6,76.2,141.3,75.9L141.3,75.9z"/>
	<path class="st0" d="M210.1,75.9c0.7-0.4,1.7,0.3,1.5,1.1c0,0.9-1.3,1.3-1.9,0.6C209.3,77.1,209.4,76.1,210.1,75.9L210.1,75.9z"/>
	<path class="st0" d="M204.1,75.9c0.5,0,1,0,1.5,0c0,4.8,0,9.6,0,14.4c-0.5,0-1,0-1.5,0C204.1,85.5,204.1,80.8,204.1,75.9
		L204.1,75.9z"/>
	<path class="st0" d="M25.1,80.6c1.1-1,2.7-1.1,4.1-0.9c1,0.2,1.9,0.9,2.4,1.8c-0.4,0.3-0.9,0.6-1.4,0.9c-0.7-1.5-2.7-1.9-3.9-0.8
		c-0.6,0.5-0.6,1.7,0.2,2.1c1.4,0.8,3.2,0.5,4.5,1.6c1.5,1.2,1.2,3.7-0.4,4.6c-1.1,0.7-2.4,0.6-3.6,0.6c-1.3,0-2.5-0.9-3.2-1.9
		c0.4-0.3,0.9-0.6,1.3-0.9c0.9,1.5,2.9,2,4.3,1.2c0.8-0.4,1.1-1.6,0.4-2.3c-0.8-0.7-1.9-0.7-2.9-1c-1.1-0.2-2.2-0.8-2.6-1.9
		C24,82.6,24.2,81.3,25.1,80.6L25.1,80.6z"/>
	<path class="st0" d="M35.6,81.4c2-2.3,6.2-2.3,8.1,0.1c-0.4,0.3-0.8,0.6-1.2,0.9c-1.2-1.8-3.9-1.8-5.4-0.3
		c-1.6,1.7-1.5,4.9,0.4,6.4c1.5,1.2,3.9,1,5-0.6c0.4,0.3,0.8,0.6,1.2,1c-0.8,0.9-1.9,1.6-3.1,1.7s-2.6,0.1-3.7-0.6
		C34,88.3,33.5,83.8,35.6,81.4L35.6,81.4z"/>
	<path class="st0" d="M54.6,80.7c-1.4-1.1-3.4-1.3-5.1-0.9c-1.2,0.3-2.2,1-2.9,1.9c-1.2,1.6-1.4,3.9-0.6,5.8c0.7,1.5,2,2.6,3.6,2.9
		c1,0.1,1.9,0.1,2.9,0c1.7-0.4,3.2-1.6,3.8-3.3C57.1,84.9,56.5,82.2,54.6,80.7z M54,88c-1.3,1.5-3.8,1.6-5.3,0.4
		c-1.5-1.2-1.8-3.3-1.2-5c0.4-1.1,1.3-1.9,2.4-2.3c1.4-0.4,3-0.1,4,1C55.4,83.8,55.4,86.4,54,88z"/>
	<path class="st0" d="M79.2,85.6c0.1-1.6-0.3-3.4-1.5-4.6c-1.6-1.6-4.3-1.8-6.2-0.6c-2.3,1.3-3.1,4.4-2.2,6.8
		c0.5,1.6,1.9,2.8,3.5,3.3c0.8,0.2,1.5,0.1,2.3,0.1c1.5,0,2.9-1,3.8-2.1c-0.4-0.3-0.8-0.6-1.2-1c-0.9,1.4-2.7,2.2-4.3,1.7
		c-1.6-0.4-2.7-1.9-2.8-3.5C73.4,85.6,76.3,85.6,79.2,85.6z M70.5,84.3c0.1-1.7,1.7-3.1,3.4-3.3c1.1-0.1,2.2,0.2,2.9,1.1
		c0.5,0.6,0.7,1.4,0.8,2.2C75.2,84.3,72.9,84.3,70.5,84.3z"/>
	<path class="st0" d="M85.5,80c0.9-0.4,1.9-0.4,2.8-0.3c-0.1,0.5-0.2,1-0.3,1.5c-0.7-0.1-1.4-0.1-2,0.1c-1.2,0.4-2.1,1.8-2.1,3.1
		c0,2,0,4,0,6c-0.5,0-1,0-1.5,0c0-3.5,0.1-7-0.1-10.5c0.5,0,1,0,1.5,0c0,0.6,0,1.2,0,1.8C84.3,81,84.8,80.3,85.5,80L85.5,80z"/>
	<path class="st0" d="M113.8,79.9c-0.5,0-1,0-1.5,0c0,0.3,0,0.7,0,1c-2.2-1.8-5.8-1.7-7.8,0.4c-2.3,2.4-1.9,6.8,1,8.5
		c1.2,0.8,2.8,0.8,4.2,0.7c1-0.1,1.8-0.6,2.6-1.2c0,0.3,0,0.7,0,1c0.5,0,1,0,1.5,0C113.8,86.9,113.7,83.4,113.8,79.9z M111,88.4
		c-1.4,1.2-3.6,1.1-5-0.1c-1.3-1.2-1.7-3.2-1.1-4.9c0.4-1.1,1.3-1.9,2.3-2.3c1.5-0.5,3.3-0.1,4.2,1.2C112.9,84.1,112.7,87,111,88.4z
		"/>
	<path class="st0" d="M117.9,80.7c1.1-1.1,2.7-1.2,4.2-1c1,0.2,1.9,0.9,2.4,1.8c-0.4,0.3-0.9,0.6-1.4,0.9c-0.7-1.5-2.7-1.9-3.9-0.9
		c-0.7,0.5-0.6,1.7,0.2,2.1c1.5,0.8,3.4,0.5,4.7,1.8c0.8,0.8,0.9,2,0.6,3c-0.5,1.3-1.9,2-3.2,2c-1,0-2,0.1-2.9-0.4
		c-0.8-0.4-1.3-0.9-1.8-1.6c0.4-0.3,0.9-0.6,1.3-0.9c0.9,1.5,3,2,4.5,1.1c0.7-0.4,1-1.6,0.3-2.2c-0.8-0.7-1.9-0.7-2.9-1
		c-1.1-0.2-2.2-0.8-2.6-1.9C116.9,82.7,117.1,81.5,117.9,80.7L117.9,80.7z"/>
	<path class="st0" d="M155.1,80.9c-1.4-1.2-3.4-1.5-5.2-1c-1.1,0.3-2.2,0.9-2.9,1.8c-1.9,2.4-1.4,6.5,1.3,8.1
		c1.3,0.9,2.9,0.8,4.4,0.7c1.7-0.3,3.3-1.5,3.9-3.2C157.5,85.1,157,82.4,155.1,80.9z M153.9,88.5c-1.4,1.1-3.4,1.1-4.8,0
		c-1.5-1.2-1.9-3.6-1.1-5.3c0.4-1,1.3-1.7,2.3-2c1.4-0.4,3.1-0.1,4,1C155.9,84,155.7,87,153.9,88.5z"/>
	<path class="st0" d="M161.8,81.5c0.8-0.9,1.8-1.7,3-1.8c1.2-0.1,2.6,0.1,3.5,1.1c0.8,0.8,0.9,2,1,3.1c0,2.2,0,4.4,0,6.6
		c-0.5,0-1,0-1.5,0c0-2,0-4,0-6c0-1-0.1-2.1-0.9-2.8c-1.2-0.9-3-0.7-4,0.4c-0.8,0.8-1,2.1-1,3.2c0,1.7,0,3.5,0,5.2c-0.5,0-1,0-1.5,0
		c-0.1-3.5,0.1-7-0.1-10.5c0.5,0,1.1,0,1.6,0C161.8,80.4,161.8,80.9,161.8,81.5L161.8,81.5z"/>
	<path class="st0" d="M186,80.9c-1.4-1.2-3.4-1.5-5.2-1c-1.2,0.3-2.4,1.1-3.1,2.2c-1.6,2.5-1,6.3,1.7,7.8c1.2,0.8,2.8,0.7,4.2,0.6
		c1.9-0.3,3.5-1.7,4-3.5C188.4,84.9,187.8,82.3,186,80.9z M185.3,88c-1.3,1.5-3.6,1.6-5.2,0.5c-1.6-1.2-2-3.5-1.2-5.2
		c0.4-1,1.3-1.8,2.3-2.1c1.4-0.4,3.1-0.1,4.1,1C186.6,83.8,186.7,86.4,185.3,88z"/>
	<path class="st0" d="M192.5,81.5c0.8-1,1.9-1.7,3.1-1.8c1.2-0.1,2.6,0.1,3.5,1.1c0.8,0.9,0.9,2.1,0.9,3.2c0,2.1,0,4.2,0,6.4
		c-0.5,0-1,0-1.5,0c0-1.9,0-3.9,0-5.8c0-1-0.1-2.2-0.9-3c-1.2-1-3.2-0.7-4.2,0.6c-0.7,0.8-0.8,1.9-0.9,3c0,1.7,0,3.5,0,5.2
		c-0.5,0-1,0-1.5,0c-0.1-3.5,0.1-7-0.1-10.5c0.5,0,1.1,0,1.6,0C192.5,80.4,192.5,81,192.5,81.5L192.5,81.5z"/>
	<path class="st0" d="M216.9,81.5c0.8-1.2,2.3-1.9,3.7-1.9c1.1,0,2.3,0.4,3,1.3c0.7,0.9,0.8,2.1,0.8,3.2c0,2.1,0,4.1,0,6.2
		c-0.5,0-1,0-1.5,0c0-2,0-4,0-6c0-1-0.1-2.2-1-2.9c-1.3-0.9-3.2-0.6-4.2,0.7c-0.6,0.8-0.8,1.8-0.8,2.8c0,1.8,0,3.6,0,5.4
		c-0.5,0-1,0-1.5,0c0-3.5,0.1-7-0.1-10.5c0.5,0,1.1,0,1.6,0C216.9,80.4,216.9,81,216.9,81.5L216.9,81.5z"/>
	<path class="st0" d="M237.7,85.6c0.1-1.4,0-2.9-0.9-4c-1.7-2.4-5.5-2.5-7.6-0.5c-2.5,2.3-2.2,6.9,0.7,8.8c1.3,0.9,2.9,0.8,4.4,0.7
		c1.3-0.2,2.3-1.1,3.1-2c-0.4-0.3-0.8-0.7-1.2-1c-0.9,1.3-2.6,2.1-4.2,1.7c-1.6-0.4-2.8-1.9-3-3.6C232,85.5,234.8,85.6,237.7,85.6z
		 M229.1,84.3c0.2-2,2.3-3.5,4.2-3.2c0.9,0.1,1.7,0.5,2.2,1.3c0.4,0.6,0.5,1.3,0.6,1.9C233.8,84.3,231.5,84.3,229.1,84.3z"/>
	<path class="st0" d="M19,79.9c0.5,0,1,0,1.5,0c0,3.5,0,7,0,10.5c-0.5,0-1,0-1.5,0C19,86.9,19,83.4,19,79.9L19,79.9z"/>
	<path class="st0" d="M57.6,79.9c0.6,0,1.2,0,1.8,0c0.2,0.2,0.2,0.4,0.3,0.7c1,2.7,2,5.4,3.1,8.1c1.1-2.9,2.2-5.8,3.3-8.8
		c0.6,0,1.2,0,1.7,0c-1.4,3.5-2.8,7-4.2,10.5c-0.6,0-1.2,0-1.7,0C60.5,86.9,59.1,83.4,57.6,79.9L57.6,79.9z"/>
	<path class="st0" d="M141,79.9c0.5,0,1,0,1.5,0c0,3.5,0,7,0,10.5c-0.5,0-1,0-1.5,0C141,86.9,141,83.4,141,79.9L141,79.9z"/>
	<path class="st0" d="M209.8,79.9c0.5,0,1,0,1.5,0c0,3.5,0,7,0,10.5c-0.5,0-1,0-1.5,0C209.8,86.9,209.8,83.4,209.8,79.9L209.8,79.9z
		"/>
</g>
</svg>
