<?xml version="1.0" encoding="utf-8"?>
<!-- Generator: Adobe Illustrator 21.1.0, SVG Export Plug-In . SVG Version: 6.00 Build 0)  -->
<svg version="1.1" id="Calque_1" xmlns="http://www.w3.org/2000/svg" xmlns:xlink="http://www.w3.org/1999/xlink" x="0px" y="0px"
	 viewBox="0 0 353 73" style="enable-background:new 0 0 353 73;" xml:space="preserve">
<style type="text/css">
	.st0{fill:#78D6EF;}
</style>
<g>
	<path class="st0" d="M40.4,3.1C19.5,3.1,5.3,17.7,5.3,36.6s14.2,33.5,35.1,33.5c20.9,0,35.1-14.7,35.1-33.5S61.3,3.1,40.4,3.1z
		 M40.4,67.9c-14.6,0-24.3-10.3-24.3-31.3c0-21,9.7-31.3,24.3-31.3c14.5,0,24.3,10.3,24.3,31.3C64.7,57.6,54.9,67.9,40.4,67.9z"/>
	<path class="st0" d="M125.4,5.8v1.4c4,0.1,5.8,0.9,5.8,3.6c0,2.2-1.6,4.9-8.8,16.5c-4,6.2-6.2,11.1-6.9,12.6c-0.9-2.7-3-8-8.3-16.6
		c-1.7-2.9-3.1-4.9-4.3-6.8c-2.5-3.8-3.5-5.7-3.5-6.9c0-1.8,1-2.1,4-2.5V5.8c0,0-5.5,0.1-9,0.1c-9,0-14.9-0.4-14.9-0.4V7
		c6.4,0.9,10,3.5,20.4,20c6.8,11.2,7.9,15.1,8.1,20.1v2.1c0,6.6,0,10.9-0.5,13.4c-0.6,3.1-2.5,3.2-6.5,3.6v1.4
		c1.6-0.1,6.5-0.5,11.3-0.5c4.9,0,11.3,0.5,11.3,0.5v-1.4c-3.9-0.4-5.8-0.5-6.5-3.6c-0.5-2.5-0.5-6.8-0.5-13.4v-2.6
		c0.3-4.4,1.8-8.4,7.7-17.9C133.3,14,137.3,8.3,144.7,7V5.5c-1.6,0.1-7,0.4-12.7,0.4C127.8,5.9,125.4,5.8,125.4,5.8z"/>
	<path class="st0" d="M244.9,5.5V7c4,0.4,5.8,0.5,6.5,3.6c0.5,2.5,0.5,6.9,0.5,13.5v10.1h-34.4V24.1c0-6.6,0-11,0.5-13.5
		c0.6-3.1,2.6-3.2,6.5-3.6V5.5c0,0-6.4,0.4-11.3,0.4c-4.8,0-9.7-0.3-11.3-0.4V7c4,0.4,5.8,0.5,6.5,3.6c0.5,2.5,0.5,6.9,0.5,13.5
		v24.9c0,6.6,0,11-0.5,13.5c-0.7,3.1-2.5,3.2-6.5,3.6v1.4c1.6-0.1,6.5-0.4,11.3-0.4c4.9,0,11.3,0.4,11.3,0.4v-1.4
		c-3.9-0.4-5.8-0.5-6.5-3.6c-0.5-2.5-0.5-6.9-0.5-13.5V37h34.4v12.1c0,6.6,0,11-0.5,13.5c-0.6,3.1-2.5,3.2-6.5,3.6v1.4
		c1.6-0.1,6.5-0.4,11.3-0.4c4.9,0,11.3,0.4,11.3,0.4v-1.4c-3.9-0.4-5.8-0.5-6.5-3.6c-0.5-2.5-0.5-6.9-0.5-13.5V24.1
		c0-6.6,0-11,0.5-13.5c0.6-3.1,2.6-3.2,6.5-3.6V5.5c0,0-6.4,0.4-11.3,0.4C251.4,5.9,246.5,5.7,244.9,5.5z"/>
	<path class="st0" d="M175,33.2l-6.9-4.3c-5.5-3.5-9.6-6.6-9.6-13c0-6.5,4.8-10.5,12-10.5c10.3,0,12.6,8.3,13.5,14.3h1.2
		c0-0.8,0.3-3.1,0.3-6.4c0-4-0.3-6.2-0.3-6.2c-0.8-0.5-5.8-3.5-14.2-3.5c-12.1,0-18.7,7.4-18.7,16.4c0,6.6,2.9,13,12,18.6l6.9,4.3
		c5.5,3.4,10.1,6.9,10.1,13.4c0,7.9-5.5,11.7-13,11.7c-9.7,0-13.9-6-16.4-17h-1.2c-0.1,1.8-0.3,3.8-0.3,6.8c0,3.8,0.3,7,0.3,7
		c0.4,0.4,6.2,5.1,16.5,5.1c13,0,20.5-7.1,20.5-17.9C187.7,44.1,183.8,38.7,175,33.2z"/>
	<path class="st0" d="M315.1,3.1c-20.9,0-35.1,14.7-35.1,33.5s14.2,33.5,35.1,33.5c20.9,0,35.1-14.7,35.1-33.5S336,3.1,315.1,3.1z
		 M315.1,67.9c-14.6,0-24.3-10.3-24.3-31.3c0-21,9.7-31.3,24.3-31.3c14.5,0,24.3,10.3,24.3,31.3C339.3,57.6,329.6,67.9,315.1,67.9z"
		/>
</g>
</svg>
