<?xml version="1.0" encoding="utf-8"?>
<!-- Generator: Adobe Illustrator 21.1.0, SVG Export Plug-In . SVG Version: 6.00 Build 0)  -->
<svg version="1.1" id="Calque_1" xmlns="http://www.w3.org/2000/svg" xmlns:xlink="http://www.w3.org/1999/xlink" x="0px" y="0px"
	 viewBox="0 0 273 180" style="enable-background:new 0 0 273 180;" xml:space="preserve">
<style type="text/css">
	.st0{fill:#7AEDE2;}
</style>
<g id="layer1_3_" transform="translate(-4397.099,-577.1118)">
	<g id="g45263" transform="translate(10.62987,8.863696)">
		<path id="path45125" class="st0" d="M4576.9,575.9c9.7-4.7,14.4-4.1,14.5,0.7c0.1,6.2-0.8,14.5-1.5,20.6
			c-3.6,32.7-9.6,59.3-10,92.9c15.8-40.8,29-69.2,46-104.1c5.4-11.1,8.9-9.1,13.3-11c17.3-7.7,17.9-3,15.7,6.4
			c-8.4,34.9-29.9,144.7-33.1,161.6c-0.9,4.9-6.3,2.8-7.6,0.9c-6.2-8.5-13.1-8.7-12.3-14.3c3.9-28.2,17.8-99,21.4-115.6
			c-18.5,37.9-37.6,85.2-47.5,112.1c-2.1,5.7-5.9,5.3-8.2,1.1c-3.3-5.9-9.8-8.9-10.9-15.8c-3.4-22,3.9-64,4.9-90.5
			c-10.1,29-26.9,85.3-34.4,110.7c-3,10.5-13.2,8.8-10.5-1.5c11.2-42.7,35.5-118.2,45.9-145.3C4565,578.3,4571.5,578.6,4576.9,575.9
			"/>
		<path id="path45127" class="st0" d="M4515.5,570.7c-3.3-0.8-12.7,4.3-18.5,5.3c-1.8,0.3-3.6,2.3-4.2,3.7
			c-9.3,21.4-17.7,41.8-24.9,60.4c-9.2,1.6-20.1,3.7-32.2,6.4c8.7-22.2,17.4-44.2,26-65.3c4.2-10.4-6.9-11.4-11.2-0.9
			c-5.6,13.7-16,39.3-27.6,69.1c-8.5,2.1-17.5,4.5-26.9,7.2c-6.8,2-7.1,3.8-4.2,7.9c1.6,2.3,5,2.1,6.5,3.7c4,4.2,6.4,9.3,13.6,10
			c-6.4,17-12.7,34.6-18.5,51.6c-3.6,10.6,6.7,12.8,10.7,1.6c6.4-18.1,13.1-36.5,20.1-54.8c5.8-1.3,19.7-4.3,32.6-7.1
			c-10.2,28.1-17,49.4-19.5,59.7c-0.5,2,0.3,3.1,0.8,3.9c3.5,5,6.7,5.2,11.2,11.4c1.2,1.7,5.2,2.6,6.6-1.6
			c9.5-28.6,19.2-55.5,28.3-79.6c3.8-0.8,10.6-2.5,14.7-8.7c7.4-11,9.5-8.8,11.3-12.1c2.2-4.2,0.8-8.2-7.1-7.2c0,0-3,0.2-8.5,0.8
			c8.8-22.5,16.4-41.7,21.9-56.2C4518.4,575,4518.6,571.4,4515.5,570.7"/>
		<path id="path45129" class="st0" d="M4502.6,716.9c2,5.2,8.4,3.6,6-2.6c-2.5-6.3-8.6-25.4-10.2-31.5c-2.2-8.3,7.3-6,2.5-0.6
			c-4.1,4.7-6.9,6.5-14.5,15.4c-7.4,8.5-5.4,19.6,2.5,22.1c8.9,2.8,16.7-7,21.6-14.2c4.7-7,0.1-11-4.6-6.9c-3,2.6-6.6,6.7-10.1,8.9
			c-2.9,1.8-5.2-0.1-1.3-5.4c4.5-6.2,9.5-11.3,13.2-17.1c7.6-11.9-7.4-18.7-13.9-11c-3.5,4.1-2.6,8.1-1.7,11.6
			C4493.6,690.9,4499.3,708.5,4502.6,716.9"/>
	</g>
</g>
</svg>
