<?xml version="1.0" encoding="utf-8"?>
<!-- Generator: Adobe Illustrator 21.1.0, SVG Export Plug-In . SVG Version: 6.00 Build 0)  -->
<svg version="1.1" id="Calque_1" xmlns="http://www.w3.org/2000/svg" xmlns:xlink="http://www.w3.org/1999/xlink" x="0px" y="0px"
	 viewBox="0 0 435 73" style="enable-background:new 0 0 435 73;" xml:space="preserve">
<style type="text/css">
	.st0{fill:#78D6EF;}
</style>
<g>
	<polygon class="st0" points="295.3,67.2 291.8,67.2 291.8,38 255.7,38 255.7,67.2 252.2,67.2 252.2,6.3 255.7,6.3 255.7,34.7 
		291.8,34.7 291.8,6.3 295.3,6.3 	"/>
	<path class="st0" d="M230.9,52.4c0,10.8-8,16.1-19.2,16.1c-8,0-14.6-2.8-19.7-7.1l2.4-2.6c5.1,4.2,10.6,6.6,17.5,6.6
		c8.4,0,15.5-3.4,15.5-12.8c0-6.5-3.3-12.5-16.3-15.5c-13.9-3.2-17.6-8.6-17.6-16.4c0-8.7,6.8-14.8,18.4-14.8c8.1,0,13,2.2,17.8,5.7
		l-2.3,2.7C222.9,11,218.6,9,211.6,9c-10.1-0.2-14.8,5.2-14.8,11.3c0,6,2.3,10.5,15.8,13.5C226.9,37.2,230.9,44.1,230.9,52.4"/>
	<path class="st0" d="M425.1,24.6c0-10.2-6.1-14.9-16.8-14.9h-17.2v30.3h16.1C419.1,39.9,425.1,34.8,425.1,24.6 M428.7,24.4
		c0,12.2-8.1,18.7-21.5,18.7h-16.1v24.4h-3.5V6.6h20.9C420.6,6.6,428.7,11.9,428.7,24.4"/>
	<path class="st0" d="M112.4,36.8c0-17.8-10.6-28.1-23.3-28.1S65.8,19,65.8,36.8s10.6,28.1,23.4,28.1
		C101.8,64.9,112.4,54.6,112.4,36.8 M115.9,36.8c0,19.5-11.8,31.4-26.8,31.4S62.3,56.3,62.3,36.8c0-19.4,11.8-31.4,26.8-31.4
		S115.9,17.3,115.9,36.8"/>
	<path class="st0" d="M172.8,24.7c0-10.2-6.1-14.9-16.8-14.9h-17.2V40h16.1C166.8,40,172.8,34.9,172.8,24.7 M176.4,24.5
		c0,12.2-8.1,18.7-21.5,18.7h-16.1v24.4h-3.5V6.7h20.9C168.3,6.7,176.4,12,176.4,24.5"/>
	<path class="st0" d="M364.8,36.8c0-17.8-10.6-28.1-23.3-28.1c-12.7,0-23.3,10.3-23.3,28.1s10.6,28.1,23.4,28.1
		C354.2,64.9,364.8,54.6,364.8,36.8 M368.3,36.8c0,19.5-11.8,31.4-26.8,31.4c-15,0-26.8-11.9-26.8-31.4c0-19.4,11.8-31.4,26.8-31.4
		S368.3,17.3,368.3,36.8"/>
	<polygon class="st0" points="54.9,10 30.6,10 30.6,67.6 27.1,67.6 27.1,10 2.9,10 2.9,6.7 54.9,6.7 	"/>
</g>
</svg>
