<?xml version="1.0" encoding="utf-8"?>
<!-- Generator: Adobe Illustrator 21.1.0, SVG Export Plug-In . SVG Version: 6.00 Build 0)  -->
<svg version="1.1" id="Calque_1" xmlns="http://www.w3.org/2000/svg" xmlns:xlink="http://www.w3.org/1999/xlink" x="0px" y="0px"
	 viewBox="0 0 195 135" style="enable-background:new 0 0 195 135;" xml:space="preserve">
<style type="text/css">
	.st0{fill:#7AEDE2;}
</style>
<g>
	<g transform="translate(105.72 468.11)">
		<path class="st0" d="M70.4-338.5c-8.7,0-13.9-4.5-14.3-10.9h8.4c0,2.1,1.2,5,6.4,5.2c3.6,0,5.6-2.1,5.6-3.8
			c-0.4-2.5-3.6-2.7-6.8-3.2c-3.6-0.5-6.4-1.2-8.4-2.1c-2.8-1.4-4.4-4.5-4.4-7.7c0-5.7,4.8-10.2,13.1-10.2c8,0,13.1,4.1,13.5,10.4
			h-7.9c0-1.6-0.4-4.3-5.2-4.3c-3.2,0-5.2,0.5-5.6,2.9c0,3.2,6.8,3,11.9,4.3c4.8,1.3,8,4.3,8,8.6C84.7-341.5,78.4-338.5,70.4-338.5"
			/>
	</g>
	<path class="st0" d="M23.9,76.8l27.4-15.9l14.7,25.2h-37L23.9,76.8z"/>
	<g>
		<path class="st0" d="M81.6,128.7V96.8"/>
		<rect x="77.6" y="96.8" class="st0" width="7.9" height="31.9"/>
	</g>
	<g transform="translate(93.655 469.31)">
		<path class="st0" d="M-82.5-356.1c0,5,4.4,9.1,9.1,9.1c5.2,0,9.1-4.1,9.1-9.1c0-4.8-4-9.1-9.1-9.1
			C-78.1-365.2-82.5-360.9-82.5-356.1 M-73.7-339.6c-8.7,0-16.3-7.3-16.3-16.5s7.5-16.3,16.3-16.3c3.6,0,6.8,0.9,9.5,2.9v-2.5h8
			v31.7h-8v-2C-66.6-340.5-70.1-339.6-73.7-339.6"/>
	</g>
	<path class="st0" d="M126.1,86.1L87.9,19.5l27.4-16.1L163,86.1"/>
	<g transform="translate(96.33 469.31)">
		<path class="st0" d="M-48.6-356.1c0,5,4,9.1,9.1,9.1c4.8,0,9.1-4.1,9.1-9.1c0-4.8-4.4-9.1-9.1-9.1
			C-44.6-365.2-48.6-360.9-48.6-356.1 M-39.8-339.6c-9.1,0-16.3-7.3-16.3-16.5s7.1-16.3,16.3-16.3c3.6,0,6.8,0.9,9.5,2.9v-13.4h7.9
			v42.6h-7.9v-2C-33.1-340.5-36.2-339.6-39.8-339.6"/>
	</g>
	<path class="st0" d="M77.6,86.1V94h7.9v-7.9h29L83.9,32.6L56.1,48.3L77.6,86.1z"/>
	<g transform="translate(106.39 470.7)">
		<path class="st0" d="M78.9-376.5c-2,0-4-1.8-4-3.9s2-3.9,4-3.9c2.4,0,4,1.8,4,3.9S81.3-376.5,78.9-376.5 M78.9-383.8
			c-2,0-3.2,1.6-3.2,3.4c0,1.8,1.2,3.4,3.2,3.4c2,0,3.2-1.6,3.2-3.4C82.1-382.2,80.9-383.8,78.9-383.8"/>
	</g>
	<g transform="translate(106.45 470.83)">
		<path class="st0" d="M79.7-378.4l-0.8-1.8h-0.8v1.8h-0.6v-4.3h1.8c0.4,0,1.2,0.5,1.2,1.3c0,0.7-0.4,1.1-0.8,1.2l0.8,1.8
			 M78.9-382.1h-0.8v1.4h0.8c0.8,0,0.8-0.2,0.8-0.7C79.7-381.8,79.7-382.1,78.9-382.1"/>
	</g>
	<g transform="translate(102.55 469.31)">
		<path class="st0" d="M30.3-356.1c0,5,4,9.1,9.1,9.1c4.8,0,9.1-4.1,9.1-9.1c0-4.8-4.4-9.1-9.1-9.1
			C34.2-365.2,30.3-360.9,30.3-356.1 M39-339.6c-9.1,0-16.3-7.3-16.3-16.5s7.1-16.3,16.3-16.3c3.6,0,6.8,0.9,9.5,2.9v-2.5h7.6v31.7
			h-7.6v-2C45.8-340.5,42.6-339.6,39-339.6"/>
	</g>
	<g transform="translate(99.877 469.31)">
		<path class="st0" d="M-3.6-356.1c0,5,4.4,9.1,9.1,9.1c5.2,0,9.1-4.1,9.1-9.1c0-4.8-4-9.1-9.1-9.1C0.8-365.2-3.6-360.9-3.6-356.1
			 M14.7-382.9h7.9v42.6h-7.9v-2c-2.4,1.8-5.6,2.7-9.1,2.7c-9.1,0-16.7-7.3-16.7-16.5s7.5-16.3,16.7-16.3c3.6,0,6.8,0.9,9.1,2.9
			V-382.9z"/>
	</g>
</g>
</svg>
