<?xml version="1.0" encoding="utf-8"?>
<!-- Generator: Adobe Illustrator 21.1.0, SVG Export Plug-In . SVG Version: 6.00 Build 0)  -->
<svg version="1.1" id="Calque_1" xmlns="http://www.w3.org/2000/svg" xmlns:xlink="http://www.w3.org/1999/xlink" x="0px" y="0px"
	 viewBox="0 0 149 147" style="enable-background:new 0 0 149 147;" xml:space="preserve">
<style type="text/css">
	.st0{fill:#78D6EF;}
</style>
<g>
	<path class="st0" d="M37.8,92c-1.1,0-2,0.9-2,2c0,1.1,0.9,2,2,2c1.1,0,2-0.9,2-2C39.8,92.9,38.9,92,37.8,92z M38.7,94.9L38.6,95
		L38,94.1h-0.8v0.8H37v-2H38c0.5,0,0.8,0.2,0.8,0.6c0,0.3-0.2,0.6-0.5,0.6L38.7,94.9z"/>
	<path class="st0" d="M4.9,3.6v138.8h138.8V3.6H4.9z M78.6,64.2h3.2v5.7h5.9v-5.7h3.2v15.2h-3.2v-6.8h-5.9v6.8h-3.2V64.2z
		 M65.9,47.5h3.2v5.8H75v-5.8h3.2v15.2H75v-6.8h-5.9v6.8h-3.2V47.5z M65.1,64.2h12.3v2.7h-4.6v12.5h-3.2V66.9h-4.6V64.2z M52.7,47.5
		h12.3v2.7h-4.6v12.5h-3.2V50.2h-4.6V47.5z M51.9,64.2h7.7c4,0,4.8,3,4.8,4.3c0,1.7-0.8,3.1-2.3,3.6c1.2,0.5,1.9,1,1.9,3.8
		c0,2.2,0,2.8,0.7,3v0.4h-3.5c-0.2-0.7-0.3-1.5-0.3-3.1c0-2.1-0.1-2.9-2.5-2.9H55v5.9h-3.1V64.2z M43,63.8c2,0,7.3,0.9,7.3,8
		c0,7.1-5.3,8-7.3,8c-2,0-7.3-0.9-7.3-8C35.8,64.6,41,63.8,43,63.8z M34.2,79.4H31l-6.2-10.8h0v10.8h-3V64.2h3.3l6,10.6h0V64.2h3
		V79.4z M37.8,96.1c-1.2,0-2.2-1-2.2-2.2s1-2.2,2.2-2.2c1.2,0,2.2,1,2.2,2.2S39,96.1,37.8,96.1z M45.6,96h-3.2V80.9h10.8v2.7h-7.6
		V87h6.7v2.7h-6.7V96z M62.3,96l-1-3.1h-5.6L54.6,96h-3.3l5.4-15.2h3.7L65.7,96H62.3z M72.1,93.7c1.8,0,3-1,3.4-2.9h3.2
		c-0.6,3.3-2.8,5.6-6.6,5.6c-4,0-6.9-2.7-6.9-8c0-5.3,3.1-8,7-8c4.5,0,6.4,3.1,6.5,5.4h-3.2c-0.3-0.9-0.7-2.6-3.4-2.6
		c-1.5,0-3.8,1-3.8,5.3C68.3,91.2,69.4,93.7,72.1,93.7z M90.8,96H79.9V80.9h10.9v2.7h-8v3.2h7v2.7h-7v3.9h8V96z M90.8,62.7H79.9
		V47.5h10.9v2.7h-8v3.2h7v2.7h-7V60h8V62.7z M128.2,96l-14.6,0v0.2h-0.3V96l-12.1,0l0,0.2h-0.3l0-0.2l-7.9,0V80.3l-0.2,0l0-0.3
		l0.2,0V63.6h-0.2v-0.3h0.2V47.5h0c19.5,0,35.2,15.8,35.2,35.3V96z"/>
	<path class="st0" d="M38,93.1h-0.8v0.9h0.8c0.5,0,0.5-0.3,0.5-0.4C38.6,93.3,38.5,93.1,38,93.1z"/>
	<path class="st0" d="M61.2,68.8c0-0.8-0.4-2-2.2-2H55v4h3.7C60.4,70.8,61.2,70.3,61.2,68.8z"/>
	<path class="st0" d="M43,77.1c1.7,0,4.1-1.1,4.1-5.3c0-4.2-2.4-5.3-4.1-5.3c-1.7,0-4.1,1.1-4.1,5.3C38.9,76,41.3,77.1,43,77.1z"/>
	<polygon class="st0" points="58.5,84.3 56.5,90.3 60.4,90.3 58.5,84.3 	"/>
	<rect x="113.2" y="96" class="st0" width="0.3" height="0.2"/>
	<rect x="92.7" y="63.2" class="st0" width="0.2" height="0.3"/>
	
		<rect x="92.7" y="79.9" transform="matrix(1 -4.361438e-03 4.361438e-03 1 -0.3484 0.4056)" class="st0" width="0.2" height="0.3"/>
	<rect x="100.8" y="96" class="st0" width="0.3" height="0.2"/>
	<path class="st0" d="M94.5,63.2h-1.6v0.3h1.6c10.3,0,18.7,8.4,18.7,18.7V96h0.3V82.3C113.6,71.8,105,63.2,94.5,63.2z"/>
	<path class="st0" d="M95.6,79.9l-2.7,0v0.3l2.7,0c2.8,0,5.2,2.3,5.2,5.2l0,10.6h0.3l0-10.6C101.1,82.4,98.6,79.9,95.6,79.9z"/>
</g>
</svg>
