<?xml version="1.0" encoding="utf-8"?>
<!-- Generator: Adobe Illustrator 21.1.0, SVG Export Plug-In . SVG Version: 6.00 Build 0)  -->
<svg version="1.1" id="Calque_1" xmlns="http://www.w3.org/2000/svg" xmlns:xlink="http://www.w3.org/1999/xlink" x="0px" y="0px"
	 viewBox="0 0 149 147" style="enable-background:new 0 0 149 147;" xml:space="preserve">
<style type="text/css">
	.st0{fill:#7AEDE2;}
</style>
<g>
	<polygon class="st0" points="6.5,139.9 6.5,139.9 141,139.9 141,139.9 73.7,139.9 	"/>
	<path class="st0" d="M105.9,40.1h-2.8v37.2h3.1c2.4,0,3.6-1.9,3.6-4V44.4C109.8,42.6,108.5,40.1,105.9,40.1z"/>
	<polygon class="st0" points="67.6,77.5 74.2,77.5 70.9,48.4 	"/>
	<path class="st0" d="M73.7,5.4H6.5v67.3v67.3h67.3H141V72.6V5.4H73.7z M52,74.6h-2.7v31.7H48c0-1.3-0.7-2-1.4-1.7
		c-1.3,0.6-2.8,2.3-6,2.2c-4.1,0-8.3-1.7-8.3-10.3V46.7c0-6.8,4.6-8.3,7.8-8.4c2,0,4.2,0.9,6,2.2c0.5,0.4,1.1,0.4,1.1-0.6l0-0.9h1.3
		v21.2h-1.3c0-7-2.5-20.5-7.1-20.6c-2.4,0-2.7,3.6-2.7,5.2v57.2c0,2.2,1.4,3.9,3.2,3.9c1.9,0,3.4-1.7,3.4-3.9V74.6h-3.3v-1.1H52
		V74.6z M85.5,106.3H74.4v-1.1h3l-3-26.5v0h-6.8L64.9,102c-0.2,1.6,0.8,3.1,3.2,3.1v1.1h-8.3v-1.1c3.2,0,3.4-1.4,3.8-3.7L70.5,39
		h4.7l7.4,66.1h2.9V106.3z M115.1,72.1c0,3.8-3,6.5-8.3,6.5h-3.6v26.5h4.2v1.2H94.8v-1.2h2.9v-65h-2.9V39h11.1
		c6.6,0,9.2,3.4,9.2,7.1V72.1z"/>
</g>
</svg>
