<?xml version="1.0" encoding="utf-8"?>
<!-- Generator: Adobe Illustrator 21.1.0, SVG Export Plug-In . SVG Version: 6.00 Build 0)  -->
<svg version="1.1" id="Calque_1" xmlns="http://www.w3.org/2000/svg" xmlns:xlink="http://www.w3.org/1999/xlink" x="0px" y="0px"
	 viewBox="0 0 345 55" style="enable-background:new 0 0 345 55;" xml:space="preserve">
<style type="text/css">
	.st0{fill:#78D6EF;}
</style>
<g id="layer1_2_" transform="translate(12.139287,-317.32811)">
	<g id="g3313_2_" transform="matrix(5.314228,0,0,5.314228,52.371647,-1369.0259)">
		<g id="g2995_2_" transform="matrix(1.25,0,0,-1.25,-297.76179,1329.6505)">
			<g>
				<g id="g2997_2_">
					<g id="g3003_2_" transform="translate(255.4046,797.0688)">
						<path id="path3005_2_" class="st0" d="M-16.3,7.7h0.9c0-0.1,0-0.4,0.1-0.6c0.3-0.7,0.8-1,1.8-1c0.8,0,1.8,0.3,1.8,1.2
							c0,0.9-0.8,1.1-1.5,1.2l0,0.8c1.2-0.1,2.3-0.6,2.3-2c0-1.3-1.2-2-2.6-2c-1.3,0-2.3,0.5-2.6,1.6C-16.3,7.2-16.3,7.6-16.3,7.7"
							/>
					</g>
					<g id="g3007_1_" transform="translate(269.2581,806.0529)">
						<path id="path3009_1_" class="st0" d="M-25.1,2c-0.3,0.9-1.3,1.4-2.4,1.4c-1.1,0-2.5-0.5-2.5-1.9c0-1.4,1.1-1.9,2.3-1.9v0.8
							c-0.7,0.1-1.4,0.3-1.4,1.1c0,0.9,0.9,1.1,1.6,1.1c0.8,0,1.4-0.3,1.6-0.9c0-0.1,0.1-0.3,0.1-0.4c0,0,0.9,0,0.9,0
							C-25,1.4-25,1.7-25.1,2"/>
					</g>
				</g>
			</g>
		</g>
		<g id="g3011_1_" transform="matrix(1.25,0,0,-1.25,105.56896,341.01783)">
			<path id="path3013_1_" class="st0" d="M-59.2,11.6l-1.5,2.5h0.9l1.5-2.5H-59.2z"/>
		</g>
		<g id="g3015_1_" transform="matrix(1.25,0,0,-1.25,-297.76179,1329.6505)">
			<g>
				<g id="g3017_2_">
					<g id="g3023_1_" transform="translate(319.2907,809.4064)">
						<path id="path3025_1_" class="st0" d="M-57.1-0.2c1.1,0,1.8-0.8,1.8-1.8c0-1-0.8-1.8-1.8-1.8h-1.8l0,0.8c0,0,1.3,0,1.9,0
							c0.5,0,1,0.5,1,1c0,0.6-0.4,1-1,1c-0.5,0-1.8,0-1.8,0v0.8H-57.1z"/>
					</g>
				</g>
			</g>
		</g>
		<path id="path3027_2_" class="st0" d="M25.8,318.1h1v8.4h-1V318.1z"/>
		<g id="g3029_2_" transform="matrix(1.25,0,0,-1.25,-297.76179,1329.6505)">
			<g>
				<g id="g3031_2_">
					<g id="g3037_2_" transform="translate(292.0392,809.4064)">
						<path id="path3039_2_" class="st0" d="M-39.7-0.2c1.1,0,1.8-0.8,1.8-1.8c0-1-0.8-1.8-1.8-1.8h-1.6l0,0.8c0,0,1,0,1.6,0
							c0.5,0,1,0.5,1,1c0,0.6-0.4,1-1,1c-0.5,0-1.6,0-1.6,0v0.8H-39.7z"/>
					</g>
				</g>
			</g>
		</g>
		<g id="g3041_2_" transform="matrix(1.25,0,0,-1.25,56.726594,317.8917)">
			<path id="path3043_2_" class="st0" d="M-34.3-0.2h0.8l0-6.7h-0.8L-34.3-0.2z"/>
		</g>
		<path id="path3045_2_" class="st0" d="M48,320h1v6.5h-1V320z"/>
		<path id="path3047_2_" class="st0" d="M51.5,318.1h-6v1h6V318.1z"/>
		<path id="path3049_2_" class="st0" d="M38.4,318.1h1v8.4h-1V318.1z"/>
		<path id="path3051_2_" class="st0" d="M-11.1,318.1h6v1h-6V318.1z"/>
		<path id="path3053_2_" class="st0" d="M-11.1,325.5h6v1h-6V325.5z"/>
		<path id="path3055_2_" class="st0" d="M-11.1,321.8h6v1h-6V321.8z"/>
	</g>
</g>
</svg>
