<?xml version="1.0" encoding="utf-8"?>
<!-- Generator: Adobe Illustrator 21.1.0, SVG Export Plug-In . SVG Version: 6.00 Build 0)  -->
<svg version="1.1" id="Calque_1" xmlns="http://www.w3.org/2000/svg" xmlns:xlink="http://www.w3.org/1999/xlink" x="0px" y="0px"
	 viewBox="0 0 447 155" style="enable-background:new 0 0 447 155;" xml:space="preserve">
<style type="text/css">
	.st0{fill:#78D6EF;}
</style>
<g id="layer1_1_" transform="translate(-290.10581,-522.52618)">
	<path id="text3225" class="st0" d="M309.3,532.5l13.9,36.9c0.9-1.9,1.9-4.4,3.1-7.4c1.2-3,2.5-6.2,3.8-9.5c0.1-0.3,0.2-0.6,0.3-0.8
		c0.1-0.3,0.3-0.6,0.4-0.9c1.8-4.6,3.4-9,5-13.1c1.5-4.1,2.5-6.9,3-8.4c0.2-0.5,0.3-1,0.4-1.5c0.1-0.5,0.2-0.9,0.2-1.2
		c0-0.1,0-0.2,0-0.2c0-0.1,0-0.2-0.1-0.3c0-0.2-0.1-0.5-0.3-0.6c-0.1-0.2-0.3-0.4-0.6-0.5c-0.2,0-0.4-0.1-0.6-0.1
		c-0.2,0-0.4-0.1-0.6-0.1c-0.2,0-0.5-0.1-0.8-0.1c-0.2,0-0.5,0-0.7,0c-0.2,0-0.4,0-0.6-0.1c-0.1,0-0.2-0.2-0.2-0.4
		c0-0.2,0.1-0.4,0.4-0.4c0.2-0.1,0.6-0.1,1.2-0.1c0.2,0,0.5,0,0.6,0c0.2,0,0.5,0,0.6,0c0.5,0,1,0,1.5,0.1c0.5,0,1,0,1.4,0
		c0.7,0,1.3,0.1,1.7,0.1c0.5,0,0.9,0,1.1,0c0.1,0,0.3,0,0.7,0c0.4,0,0.9-0.1,1.4-0.1c0.2,0,0.5,0,0.7,0c0.3,0,0.6,0,0.9,0
		c0.3,0,0.6-0.1,0.9-0.1c0.3,0,0.6,0,0.9,0c0.4,0,0.7,0,0.9,0.1c0.2,0,0.4,0.2,0.4,0.4c0,0.2-0.1,0.3-0.2,0.4
		c-0.1,0-0.4,0.1-0.6,0.1c-0.2,0-0.6,0-1.1,0.1c-0.5,0-1.1,0.2-1.7,0.4c-0.1,0-0.3,0.1-0.4,0.1c-0.1,0-0.2,0.1-0.3,0.2
		c-0.5,0.3-1,0.9-1.7,1.8c-0.6,0.9-1.3,2.5-2.3,5c-0.4,1-1.4,3.4-3,7.2c-1.6,3.8-3.3,7.9-5.1,12.3c-2.2,5.2-4.1,9.8-5.7,13.6
		c-1.6,3.8-2.8,6.5-3.6,8.3c-0.8,1.7-1.4,3-1.7,3.8s-0.6,1.3-0.9,1.5c-0.1,0-0.2,0.1-0.2,0.1c0,0-0.1,0.1-0.2,0.1
		c-0.1,0-0.3,0-0.4-0.1c-0.1,0-0.2-0.1-0.3-0.2c-0.2-0.3-0.5-0.7-0.8-1.4c-0.2-0.6-0.6-1.5-1.1-2.7l-17.7-44.3
		c-0.2-0.5-0.4-0.9-0.6-1.3c-0.2-0.4-0.4-0.8-0.6-1.2c-0.5-1-1.1-1.6-1.7-2c-0.6-0.4-1.4-0.7-2.3-1c-0.1,0-0.2,0-0.3,0
		c0,0-0.1-0.1-0.2-0.1c-0.5,0-0.9-0.1-1.3-0.1c-0.4,0-0.7-0.1-0.9-0.1c-0.2,0-0.4,0-0.4-0.1c-0.1-0.1-0.1-0.2-0.1-0.4
		c0-0.2,0.2-0.4,0.5-0.4s0.8-0.1,1.3-0.1c0.3,0,0.6,0,0.9,0c0.3,0,0.6,0,0.9,0c0.6,0,1.2,0,1.7,0.1c0.6,0,1.1,0,1.7,0
		c0.8,0,1.4,0.1,2,0.1c0.6,0,1,0,1.2,0c0.2,0,0.5,0,0.9,0c0.5,0,1-0.1,1.7-0.1c0.4,0,0.9,0,1.3,0c0.5,0,1-0.1,1.4-0.1
		c0.2,0,0.5,0,0.6,0c0.2,0,0.5,0,0.7,0c0.7,0,1.2,0,1.4,0.1c0.3,0,0.5,0.2,0.5,0.4c0,0.2-0.1,0.3-0.2,0.4c-0.1,0-0.3,0.1-0.5,0.1
		c-0.2,0-0.4,0-0.6,0c-0.2,0-0.4,0-0.6,0.1c-0.3,0-0.6,0-0.9,0.1c-0.2,0-0.5,0.1-0.6,0.2c-0.3,0.1-0.5,0.3-0.6,0.5
		c-0.1,0.2-0.2,0.4-0.3,0.6c0,0,0,0.1,0,0.2c0,0,0,0.1,0,0.1c0,0.5,0.2,1.3,0.6,2.3C308.3,530,308.8,531.2,309.3,532.5L309.3,532.5
		 M366.4,544.7v12.7c0,3.5,0,6.6,0,9.4c0,2.7,0.2,4.8,0.4,6.3c0.1,1.1,0.3,1.9,0.6,2.7c0.4,0.7,1.1,1.2,2.2,1.3
		c0.2,0,0.4,0.1,0.6,0.1c0.2,0,0.5,0,0.7,0c0.4,0,0.7,0.1,1.1,0.1c0.4,0,0.7,0,0.9,0c0.2,0,0.4,0,0.4,0.1c0.1,0.1,0.1,0.2,0.1,0.3
		c0,0.2-0.1,0.3-0.3,0.4c-0.2,0.1-0.5,0.1-0.9,0.1c-0.2,0-0.5,0-0.7,0c-0.2,0-0.5,0-0.7,0c-0.8,0-1.5,0-2.3-0.1c-0.7,0-1.4,0-2,0
		c-0.9,0-1.6-0.1-2.2-0.1c-0.5,0-0.8,0-0.9,0c-0.1,0-0.4,0-1,0c-0.5,0-1.2,0.1-1.9,0.1c-0.2,0-0.4,0-0.6,0c-0.2,0-0.4,0-0.6,0
		c-0.5,0-1.1,0-1.6,0c-0.5,0-1,0.1-1.4,0.1c-0.4,0-0.7,0-0.9-0.1c-0.2,0-0.3-0.2-0.3-0.4c0-0.1,0-0.2,0.1-0.3
		c0.1-0.1,0.2-0.1,0.4-0.1c0.1,0,0.3,0,0.5,0c0.2,0,0.4-0.1,0.6-0.1c0.2,0,0.4-0.1,0.6-0.1c0.2,0,0.4-0.1,0.5-0.1
		c0.7-0.1,1.2-0.6,1.4-1.3c0.3-0.7,0.5-1.6,0.6-2.7c0.2-1.5,0.3-3.7,0.3-6.3c0-2.7,0.1-5.8,0.1-9.3v-12.8c0-5.4,0-9,0-10.8
		c0-1.9,0-3.4-0.1-4.5c0,0,0-0.1,0-0.1c0,0,0-0.1,0-0.1c0-1.3-0.3-2.2-0.6-2.8c-0.4-0.6-1-1-1.8-1.2c-0.1,0-0.2-0.1-0.3-0.1
		c-0.1,0-0.2-0.1-0.3-0.1c-0.3,0-0.6-0.1-0.9-0.1c-0.3,0-0.5-0.1-0.7-0.1c-0.1,0-0.3,0-0.4-0.1c-0.1-0.1-0.1-0.2-0.1-0.4
		c0-0.2,0.1-0.4,0.3-0.4c0.2-0.1,0.5-0.1,0.9-0.1c0.4,0,0.8,0,1.4,0c0.5,0,1.1,0,1.6,0.1c0.2,0,0.5,0,0.7,0c0.2,0,0.5,0,0.7,0
		c0.7,0,1.3,0.1,1.9,0.1c0.6,0,0.9,0,1,0c0.1,0,0.4,0,0.9,0c0.6,0,1.2-0.1,1.9-0.1c0.2,0,0.4,0,0.6,0c0.2,0,0.4,0,0.6,0
		c0.5,0,1.1,0,1.6,0c0.5,0,1-0.1,1.4-0.1c0.4,0,0.7,0,0.9,0.1c0.2,0,0.3,0.2,0.3,0.4c0,0.1-0.1,0.3-0.2,0.4c-0.1,0-0.2,0.1-0.4,0.1
		c0,0-0.1,0-0.1,0c0,0,0,0-0.1,0c-0.2,0-0.4,0-0.6,0.1c-0.2,0-0.6,0.1-0.9,0.1c-1,0.2-1.6,0.6-2,1.3c-0.3,0.6-0.6,1.6-0.6,2.8
		c0,0,0,0.1,0,0.1c0,0,0,0,0,0.1c-0.1,1.1-0.1,2.6-0.1,4.5C366.4,535.7,366.4,539.3,366.4,544.7L366.4,544.7 M414.6,579.3
		c-5.4,0-10-0.6-13.9-1.9c-3.8-1.3-7.1-3.2-10-5.8c-2.1-1.8-3.7-3.8-4.9-5.9c-1.2-2.2-2.1-4.3-2.7-6.5c-0.4-1.5-0.7-3.1-0.9-4.5
		c-0.1-1.5-0.2-3-0.2-4.4c0-1.5,0.2-3.4,0.6-5.6c0.4-2.2,1.2-4.4,2.3-6.7c0.6-1.3,1.3-2.6,2.2-3.8c0.9-1.3,1.9-2.5,3-3.6
		c2.2-2.2,5-4,8.4-5.5c3.5-1.5,8-2.2,13.6-2.2c1,0,2.1,0,3.3,0.1c1.3,0,2.5,0.1,3.8,0.3c0.6,0.1,1.1,0.2,1.7,0.3
		c0.6,0,1.1,0.1,1.7,0.2c1.4,0.2,2.7,0.5,3.8,0.6c1.2,0.2,2.4,0.3,3.5,0.4c0.4,0,0.6,0.1,0.7,0.3c0.1,0.1,0.2,0.3,0.2,0.5
		c0,0.2,0,0.5-0.1,0.9c0,0.3-0.1,0.8-0.1,1.5c0,0.2-0.1,0.5-0.1,0.8c0,0.2,0,0.5,0,0.9c0,0.4-0.1,0.9-0.1,1.4c0,0.5,0,1-0.1,1.5
		c0,0.4,0,0.9,0,1.4c0,0.4,0,0.8,0,1.2c0,0.4,0,0.8-0.1,1.2c0,0.3,0,0.5,0,0.7c0,0.5-0.1,0.9-0.2,1.2c0,0.2-0.2,0.4-0.4,0.4
		c-0.2,0-0.4-0.1-0.5-0.4c0-0.3-0.1-0.7-0.1-1.2c0-0.1,0-0.3,0-0.4c0-0.1,0-0.3,0-0.4c-0.1-1.3-0.4-2.5-0.9-3.7
		c-0.5-1.2-1.2-2.2-2.1-2.9c-1.3-1.1-3.2-2.1-5.8-2.9c-2.6-0.8-5.5-1.2-8.7-1.2c-4.2,0-7.6,0.5-10,1.4c-2.4,0.9-4.3,1.9-5.6,3
		c-0.2,0.1-0.4,0.3-0.5,0.4c-0.1,0.1-0.3,0.3-0.4,0.4c-2.6,2.5-4.4,5.3-5.3,8.5c-0.8,3.2-1.2,6.6-1.2,10.3c0,6.9,2.4,13,7.2,18.4
		c4.9,5.3,11.1,8,18.8,8c2.7,0,5.1-0.2,7.2-0.6c2.1-0.5,3.9-1.5,5.3-3c0.3-0.4,0.6-0.8,0.9-1.3c0.3-0.5,0.6-1,0.8-1.5
		c0.2-0.7,0.4-1.3,0.6-1.9c0.2-0.6,0.3-1,0.4-1.4c0.1-0.4,0.2-0.6,0.3-0.8c0.1-0.2,0.2-0.3,0.4-0.3c0.2,0,0.3,0.1,0.4,0.4
		c0.1,0.2,0.1,0.4,0.1,0.7c0,0.1-0.1,0.7-0.2,1.8c-0.1,1-0.3,2.1-0.5,3.3c-0.1,0.5-0.2,1-0.3,1.5c-0.1,0.5-0.2,0.9-0.3,1.4
		c0,0.2-0.1,0.5-0.1,0.6c0,0.2-0.1,0.4-0.1,0.6c0,0.1-0.1,0.3-0.1,0.4c0,0.1,0,0.2-0.1,0.3c-0.1,0.2-0.2,0.4-0.4,0.6
		c-0.1,0.1-0.3,0.3-0.5,0.4c-0.1,0-0.2,0.1-0.4,0.1c-0.1,0-0.2,0.1-0.4,0.2c-1.1,0.4-2.5,0.7-4.2,0.9c-1.7,0.3-3.4,0.5-5.2,0.6
		c-0.6,0-1.3,0-1.9,0C415.7,579.3,415.1,579.3,414.6,579.3L414.6,579.3 M462.6,526.8v30.5c0,3.5,0,6.6,0,9.4c0,2.7,0.2,4.8,0.4,6.3
		c0.1,1.1,0.3,1.9,0.6,2.7c0.4,0.7,1.1,1.2,2.2,1.3c0.2,0,0.4,0.1,0.6,0.1c0.2,0,0.5,0,0.7,0c0.4,0,0.7,0.1,1.1,0.1
		c0.4,0,0.7,0,0.9,0c0.2,0,0.4,0,0.4,0.1c0.1,0.1,0.1,0.2,0.1,0.3c0,0.2-0.1,0.3-0.3,0.4c-0.2,0.1-0.5,0.1-0.9,0.1
		c-0.2,0-0.5,0-0.7,0s-0.5,0-0.7,0c-0.8,0-1.5,0-2.3-0.1c-0.7,0-1.4,0-2,0c-0.9,0-1.6-0.1-2.2-0.1c-0.5,0-0.8,0-0.9,0
		c-0.1,0-0.4,0-1,0c-0.5,0-1.2,0.1-1.9,0.1c-0.2,0-0.4,0-0.6,0c-0.2,0-0.4,0-0.6,0c-0.5,0-1.1,0-1.6,0c-0.5,0-1,0.1-1.4,0.1
		c-0.4,0-0.7,0-0.9-0.1c-0.2,0-0.3-0.2-0.3-0.4c0-0.1,0-0.2,0.1-0.3c0.1-0.1,0.2-0.1,0.4-0.1c0.1,0,0.3,0,0.5,0
		c0.2,0,0.4-0.1,0.6-0.1c0.2,0,0.4-0.1,0.6-0.1c0.2,0,0.4-0.1,0.5-0.1c0.7-0.1,1.2-0.6,1.4-1.3c0.3-0.7,0.5-1.6,0.6-2.7
		c0.2-1.5,0.3-3.7,0.3-6.3c0-2.7,0.1-5.8,0.1-9.3v-30.6l-10.7,0.1c-2.2,0.1-3.8,0.3-4.9,0.6c-1.1,0.3-1.9,0.9-2.5,1.7
		c-0.4,0.6-0.7,1.1-0.9,1.4c-0.1,0.3-0.3,0.6-0.4,0.8c-0.1,0.3-0.2,0.5-0.4,0.6c-0.1,0.1-0.2,0.1-0.4,0.1c-0.1,0-0.2,0-0.3-0.1
		c0-0.1-0.1-0.3-0.1-0.5s0.1-0.6,0.2-1.4c0.1-0.7,0.3-1.5,0.5-2.4c0,0,0-0.1,0-0.1c0,0,0.1-0.1,0.1-0.1c0.2-0.8,0.4-1.6,0.5-2.2
		c0.1-0.7,0.2-1.1,0.3-1.2c0-0.1,0.1-0.2,0.1-0.3c0-0.1,0.1-0.2,0.1-0.3c0-0.2,0.1-0.4,0.2-0.5c0.1-0.2,0.2-0.3,0.3-0.3
		c0.1,0,0.3,0,0.5,0.1c0.2,0.1,0.4,0.2,0.7,0.3c0.2,0.1,0.5,0.2,0.8,0.3c0.3,0,0.7,0.1,1.2,0.1c0.3,0,0.6,0.1,0.9,0.1
		c0.3,0,0.6,0,0.9,0c0.8,0,1.6,0.1,2.3,0.1c0.8,0,1.3,0.1,1.7,0.1l27.1-0.1c1.2,0,2.1,0,3,0c0.9-0.1,1.6-0.2,2.2-0.3
		c0.5-0.1,1-0.2,1.3-0.2c0.3-0.1,0.6-0.1,0.7-0.1c0.2,0,0.3,0.1,0.3,0.3c0,0.1,0.1,0.3,0.1,0.6c0,0.4,0,1-0.1,1.6c0,0.6,0,1.3,0,1.9
		c0,0.1,0,0.3,0,0.5c0,0.1,0,0.3,0,0.4c0,0.8-0.1,1.6-0.1,2.2c0,0.6,0,1,0,1.2c0,0.3,0,0.6-0.1,0.7c-0.1,0.1-0.2,0.2-0.4,0.2
		c-0.2,0-0.3-0.1-0.4-0.2c0-0.2-0.1-0.5-0.1-1l-0.1-0.9c-0.1-1.1-0.8-1.9-1.9-2.7c-1.2-0.8-3.5-1.2-6.9-1.2L462.6,526.8L462.6,526.8
		 M486.1,550.9c0-1.3,0.1-2.6,0.3-4c0.2-1.4,0.6-2.9,1.1-4.3c1.5-5,4.5-9.5,8.9-13.6c4.4-4.1,10.5-6.2,18.2-6.2
		c8.1,0,14.9,2.4,20.3,7.2s8.1,11.4,8.1,19.8c0,8.1-2.6,15-7.9,20.8c-5.2,5.8-12.2,8.7-20.9,8.7c-8.6,0-15.1-2.4-19.5-7.1
		c-4.4-4.8-7.1-10.1-8.1-15.8c-0.1-0.9-0.3-1.8-0.4-2.7C486.1,552.8,486.1,551.9,486.1,550.9L486.1,550.9 M492.9,548.9
		c0,8.5,2.2,15.2,6.6,20.2c4.5,5,10,7.5,16.4,7.5c1.1,0,2.4-0.1,3.8-0.4c1.4-0.3,2.9-0.8,4.4-1.4c2.9-1.4,5.6-3.8,8-7.3
		c2.5-3.5,3.7-8.7,3.7-15.7c0-8.7-2.2-15.2-6.7-19.8c-4.4-4.6-9.5-6.9-15.2-6.9c-6,0-11,2-15.1,6
		C494.9,535.2,492.9,541.1,492.9,548.9L492.9,548.9 M557.4,557.4v-12.7c0-5.4,0-9,0-10.8c0-1.9,0-3.4-0.1-4.5c0,0,0-0.1,0-0.1
		c0,0,0-0.1,0-0.1c0-1.3-0.3-2.2-0.7-2.8c-0.4-0.6-1.2-1.1-2.4-1.3c-0.1,0-0.3-0.1-0.6-0.1c-0.2,0-0.5-0.1-0.7-0.1
		c-0.2,0-0.4-0.1-0.6-0.1c-0.2,0-0.4,0-0.5,0c-0.1,0-0.3,0-0.4-0.1c-0.1-0.1-0.1-0.2-0.1-0.4c0-0.2,0.1-0.4,0.3-0.4
		c0.2-0.1,0.5-0.1,0.9-0.1s0.8,0,1.2,0c0.4,0,0.9,0,1.3,0c0.5,0,0.9,0.1,1.4,0.1c0.5,0,0.9,0,1.4,0c0.8,0,1.4,0.1,1.9,0.1
		c0.6,0,0.9,0,1,0c0.2,0,0.6,0,1.3,0c0.7,0,1.5-0.1,2.5-0.1c0.1,0,0.3,0,0.4,0c0.2,0,0.4,0,0.5,0c0.7,0,1.4,0,2.1,0
		c0.7,0,1.3-0.1,1.7-0.1c0.5,0,1,0,1.5,0.1c0.5,0,1,0,1.5,0c1.8,0.1,3.6,0.4,5.3,0.9c1.7,0.4,3.3,1.2,4.8,2.2
		c0.3,0.2,0.6,0.4,0.9,0.7c0.3,0.3,0.7,0.6,1,1c0.8,0.9,1.5,2.1,2.1,3.5c0.7,1.3,1,2.9,1,4.6c0,2.6-0.6,5.3-1.9,8.1
		c-1.3,2.7-3.5,5.6-6.8,8.6c3,3.8,5.7,7.3,8.2,10.4c2.5,3.1,4.8,5.8,6.9,8.1c2,2.1,3.7,3.4,5.2,4c1.5,0.6,2.7,1,3.6,1.2
		c0.7,0.1,1.3,0.2,1.7,0.2c0.5,0,0.9,0,1.1,0c0.2,0,0.3,0,0.4,0.1c0.1,0.1,0.2,0.2,0.2,0.3c0,0.2-0.1,0.3-0.4,0.4
		c-0.2,0.1-0.7,0.1-1.4,0.1h-5.1c-2,0-3.5-0.1-4.6-0.2c-1.1-0.2-2-0.5-3-1c0,0,0,0-0.1,0c0,0,0-0.1-0.1-0.1
		c-0.4-0.2-0.8-0.5-1.2-0.8c-0.4-0.3-0.8-0.6-1.2-0.9c-1.1-1-2.2-2.2-3.4-3.7c-1.2-1.5-2.5-3.2-4-5.2c-0.2-0.3-0.5-0.6-0.7-0.9
		c-0.2-0.3-0.5-0.6-0.7-0.9c-0.1-0.1-0.2-0.3-0.4-0.4c-0.1-0.2-0.2-0.4-0.3-0.5c-1.2-1.6-2.3-3.1-3.4-4.5c-1-1.5-1.8-2.6-2.4-3.3
		c0,0-0.1-0.1-0.1-0.1c0,0,0-0.1-0.1-0.1c-0.1,0-0.2-0.1-0.4-0.1c-0.1,0-0.2-0.1-0.4-0.1l-8.9-0.2c-0.2,0-0.3,0.1-0.4,0.2
		c0,0.1-0.1,0.2-0.1,0.4v1.7c0,3.5,0,6.6,0,9.4c0,2.7,0.2,4.8,0.4,6.3c0.1,1.1,0.3,1.9,0.6,2.7c0.4,0.7,1.1,1.2,2.2,1.3
		c0.2,0,0.4,0.1,0.6,0.1c0.2,0,0.5,0,0.7,0c0.4,0,0.7,0.1,1.1,0.1c0.4,0,0.7,0,0.9,0c0.2,0,0.4,0,0.4,0.1c0.1,0.1,0.1,0.2,0.1,0.3
		c0,0.2-0.1,0.3-0.3,0.4c-0.2,0.1-0.5,0.1-0.9,0.1c-0.2,0-0.5,0-0.7,0c-0.2,0-0.5,0-0.7,0c-0.8,0-1.5,0-2.3-0.1c-0.7,0-1.4,0-2,0
		c-0.9,0-1.6-0.1-2.2-0.1c-0.5,0-0.8,0-0.9,0c0,0-0.3,0-0.8,0c-0.5,0-1.1,0.1-1.8,0.1c-0.2,0-0.5,0-0.7,0c-0.2,0-0.4,0-0.6,0
		c-0.5,0-1,0.1-1.5,0.1c-0.5,0-0.9,0-1.3,0c-0.4,0-0.7,0-0.9-0.1c-0.2,0-0.3-0.2-0.3-0.4c0-0.1,0-0.2,0.1-0.3
		c0.1-0.1,0.2-0.1,0.4-0.1c0.1,0,0.3,0,0.5,0c0.2,0,0.4-0.1,0.6-0.1c0.2,0,0.4-0.1,0.6-0.1c0.2,0,0.4-0.1,0.5-0.1
		c0.7-0.1,1.2-0.6,1.4-1.3c0.3-0.7,0.5-1.6,0.6-2.7c0.2-1.5,0.3-3.7,0.3-6.3C557.4,564,557.4,560.9,557.4,557.4L557.4,557.4
		 M563.2,527.4v23.6c0,0.2,0,0.4,0.1,0.6c0.1,0.1,0.2,0.3,0.4,0.4c0.5,0.3,1.4,0.6,2.7,0.8c1.3,0.2,2.8,0.3,4.3,0.4
		c0.1,0,0.2,0,0.3,0c0.1,0,0.2,0,0.3,0c0.4,0,0.8,0,1.2,0c0.4,0,0.9-0.1,1.3-0.2c0.5-0.1,1-0.2,1.4-0.4c0.5-0.2,1-0.5,1.5-0.8
		c1.3-0.9,2.3-2.2,3.1-4.1c0.9-1.9,1.3-4.3,1.3-7c0-4.5-1.1-8.1-3.4-10.6c-2.2-2.5-5.2-3.8-9.1-3.8c-1.1,0-2,0-3,0.1
		c-0.9,0.1-1.5,0.2-1.9,0.3c-0.2,0-0.3,0.1-0.4,0.3C563.2,527,563.2,527.2,563.2,527.4L563.2,527.4 M617.2,544.7v12.7
		c0,3.5,0,6.6,0,9.4c0,2.7,0.2,4.8,0.4,6.3c0.1,1.1,0.3,1.9,0.6,2.7c0.4,0.7,1.1,1.2,2.2,1.3c0.2,0,0.4,0.1,0.6,0.1
		c0.2,0,0.5,0,0.7,0c0.4,0,0.7,0.1,1.1,0.1c0.4,0,0.7,0,0.9,0c0.2,0,0.4,0,0.4,0.1c0.1,0.1,0.1,0.2,0.1,0.3c0,0.2-0.1,0.3-0.3,0.4
		c-0.2,0.1-0.5,0.1-0.9,0.1c-0.2,0-0.5,0-0.7,0c-0.2,0-0.5,0-0.7,0c-0.8,0-1.5,0-2.3-0.1c-0.7,0-1.4,0-2,0c-0.9,0-1.6-0.1-2.2-0.1
		c-0.5,0-0.8,0-0.9,0s-0.4,0-1,0c-0.5,0-1.2,0.1-1.9,0.1c-0.2,0-0.4,0-0.6,0s-0.4,0-0.6,0c-0.5,0-1.1,0-1.6,0c-0.5,0-1,0.1-1.4,0.1
		c-0.4,0-0.7,0-0.9-0.1c-0.2,0-0.3-0.2-0.3-0.4c0-0.1,0-0.2,0.1-0.3c0.1-0.1,0.2-0.1,0.4-0.1c0.1,0,0.3,0,0.5,0
		c0.2,0,0.4-0.1,0.6-0.1c0.2,0,0.4-0.1,0.6-0.1c0.2,0,0.4-0.1,0.5-0.1c0.7-0.1,1.2-0.6,1.4-1.3c0.3-0.7,0.5-1.6,0.6-2.7
		c0.2-1.5,0.3-3.7,0.3-6.3c0-2.7,0.1-5.8,0.1-9.3v-12.8c0-5.4,0-9,0-10.8c0-1.9,0-3.4-0.1-4.5c0,0,0-0.1,0-0.1c0,0,0-0.1,0-0.1
		c0-1.3-0.3-2.2-0.6-2.8c-0.4-0.6-1-1-1.8-1.2c-0.1,0-0.2-0.1-0.3-0.1c-0.1,0-0.2-0.1-0.3-0.1c-0.3,0-0.6-0.1-0.9-0.1
		c-0.3,0-0.5-0.1-0.7-0.1c-0.1,0-0.3,0-0.4-0.1c-0.1-0.1-0.1-0.2-0.1-0.4c0-0.2,0.1-0.4,0.3-0.4c0.2-0.1,0.5-0.1,0.9-0.1
		c0.4,0,0.8,0,1.4,0c0.5,0,1.1,0,1.6,0.1c0.2,0,0.5,0,0.7,0c0.2,0,0.5,0,0.7,0c0.7,0,1.3,0.1,1.9,0.1c0.6,0,0.9,0,1,0
		c0.1,0,0.4,0,0.9,0c0.6,0,1.2-0.1,1.9-0.1c0.2,0,0.4,0,0.6,0c0.2,0,0.4,0,0.6,0c0.5,0,1.1,0,1.6,0c0.5,0,1-0.1,1.4-0.1
		c0.4,0,0.7,0,0.9,0.1c0.2,0,0.3,0.2,0.3,0.4c0,0.1-0.1,0.3-0.2,0.4c-0.1,0-0.2,0.1-0.4,0.1c0,0-0.1,0-0.1,0c0,0,0,0-0.1,0
		c-0.2,0-0.4,0-0.6,0.1c-0.2,0-0.6,0.1-0.9,0.1c-1,0.2-1.6,0.6-2,1.3c-0.3,0.6-0.6,1.6-0.6,2.8c0,0,0,0.1,0,0.1c0,0,0,0,0,0.1
		c-0.1,1.1-0.1,2.6-0.1,4.5C617.2,535.7,617.2,539.3,617.2,544.7L617.2,544.7 M636.2,570.4l16.4-44.8c0.3-0.9,0.6-1.6,0.8-1.9
		c0.2-0.4,0.4-0.6,0.6-0.7c0,0,0-0.1,0.1-0.1s0.1,0,0.1,0c0,0,0.1,0,0.1,0c0,0,0.1,0,0.1,0.1c0.2,0,0.4,0.3,0.6,0.6
		c0.2,0.3,0.5,1,0.8,1.9c0.3,0.8,1.4,3.6,3.2,8.4c1.8,4.8,3.8,10,6,15.6c1.4,3.8,2.8,7.5,4.2,11c1.4,3.5,2.5,6.3,3.4,8.5
		c1.3,3.2,2.5,5.3,3.5,6.3c1.1,0.9,2,1.5,2.7,1.7c0.5,0.2,1.1,0.3,1.6,0.4c0.5,0,1,0.1,1.3,0.1c0.2,0,0.4,0,0.5,0.1
		c0.1,0,0.2,0.2,0.2,0.4c0,0.2-0.1,0.3-0.4,0.4c-0.3,0.1-0.6,0.1-1,0.1c-0.5,0-1.8,0-3.8,0c-2,0-4.2,0-6.6-0.1c-0.1,0-0.3,0-0.5,0
		c-0.1,0-0.3,0-0.4,0c-0.1,0-0.2,0-0.3,0c-0.1,0-0.2,0-0.3,0c-0.5,0-0.9-0.1-1.2-0.1c-0.3,0-0.4-0.2-0.4-0.4c0-0.1,0-0.2,0.1-0.3
		c0.1-0.1,0.2-0.2,0.4-0.2l0,0c0,0,0.1,0,0.1-0.1c0.1,0,0.2-0.1,0.3-0.3c0.1-0.2,0.2-0.4,0.1-0.7c0,0,0-0.1,0-0.1c0,0,0-0.1,0-0.1
		c0-0.1,0-0.2-0.1-0.3c0-0.1,0-0.2-0.1-0.3l-6.7-17.8c0-0.1-0.1-0.2-0.2-0.2c-0.1-0.1-0.2-0.1-0.4-0.1l-15.5-0.1
		c-0.2,0-0.3,0.1-0.4,0.2c-0.1,0.1-0.2,0.2-0.3,0.4l-4.3,12.7c-0.3,1-0.6,1.9-0.8,2.7c-0.1,0.8-0.2,1.6-0.2,2.2
		c0,0.6,0.2,1.1,0.6,1.4c0.5,0.3,1,0.5,1.5,0.6c0.1,0,0.2,0.1,0.3,0.1s0.2,0,0.3,0l0.7-0.1c0.2,0,0.4,0.1,0.5,0.2
		c0.1,0,0.2,0.1,0.2,0.3c0,0.2-0.1,0.3-0.3,0.4c-0.2,0.1-0.5,0.1-0.8,0.1s-0.7,0-1.1-0.1c-0.4,0-0.8,0-1.2,0c-0.1,0-0.3,0-0.4,0
		c-0.1,0-0.3,0-0.4,0c-0.5,0-1-0.1-1.5-0.1c-0.4,0-0.7,0-0.9,0s-0.6,0-1.2,0c-0.5,0-1.2,0.1-1.9,0.1c-0.5,0-1.1,0-1.7,0
		c-0.6,0-1.2,0.1-1.8,0.1c-0.2,0-0.5,0-0.8,0c-0.2,0-0.5,0-0.7,0c-0.5,0-0.8,0-1-0.1c-0.2,0-0.4-0.2-0.4-0.4c0-0.1,0.1-0.2,0.2-0.3
		c0.1-0.1,0.2-0.1,0.4-0.1c0.1,0,0.3,0,0.5,0c0.2,0,0.4,0,0.6-0.1c0.1,0,0.3,0,0.4,0c0.2,0,0.4-0.1,0.5-0.1c1.7-0.2,3-1,3.8-2.2
		S635.5,572.2,636.2,570.4L636.2,570.4 M646.3,554.4H660c0.2,0,0.3,0,0.3-0.1c0-0.1,0-0.2,0-0.4l-6.9-19.6c-0.2-0.5-0.4-0.7-0.6-0.7
		c-0.1,0-0.3,0.3-0.5,0.8l-6.3,19.4c0,0.1-0.1,0.2-0.1,0.2c0,0,0,0.1,0,0.1c0,0,0,0.1,0.1,0.1C646.1,554.5,646.2,554.5,646.3,554.4
		L646.3,554.4 M684.6,529.2c0-0.8,0.3-1.5,0.9-2.1c0.6-0.6,1.3-0.9,2.2-0.9c0.9,0,1.6,0.4,2.2,1.2c0.6,0.8,0.9,1.7,0.9,2.7
		c0,1.8-0.4,3.4-1.3,4.7c-0.9,1.3-2.3,2.6-4.3,3.9c-0.4,0.1-0.6,0-0.4-0.4c1.3-1.4,2.1-2.5,2.4-3.3c0.3-0.8,0.4-1.4,0.3-1.9
		c0-0.5-0.3-0.8-0.7-0.9c-0.4-0.1-0.8-0.5-1.3-1C684.8,530.5,684.6,529.9,684.6,529.2 M715.4,579.3c-1.7,0-3.3-0.1-5-0.4
		c-1.6-0.3-3.2-0.8-4.7-1.4c0,0-0.1-0.1-0.1-0.1c0,0-0.1-0.1-0.1-0.1c-0.4-0.2-0.6-0.5-0.7-0.8c0-0.3-0.1-0.9-0.1-1.8
		c0-1,0-2,0.1-2.9c0-0.9,0.1-1.7,0.1-2.4c0-0.5,0-1,0.1-1.4c0-0.4,0.1-0.8,0.1-1c0-0.4,0.1-0.7,0.1-0.9c0.1-0.2,0.2-0.3,0.4-0.3
		c0.2,0,0.4,0.1,0.4,0.2c0,0.1,0.1,0.3,0.1,0.6c0,0.3,0,0.7,0,1.2c0,0.4,0.1,0.9,0.2,1.4c0.5,2.6,1.8,4.5,3.9,5.7
		c2.1,1.1,4.4,1.7,6.8,1.7c3.2,0,5.7-0.9,7.4-2.7c1.7-1.8,2.7-3.8,2.9-6c0-0.1,0.1-0.3,0.1-0.4c0-0.2,0-0.4,0-0.5
		c0-1.2-0.1-2.3-0.4-3.3c-0.2-1-0.6-2-1.2-3c-0.7-1-1.6-2-2.7-3.1c-1.1-1.1-2.4-2.3-4-3.6l-3.2-2.7c-3.1-2.5-5.3-4.8-6.6-6.8
		c-1.3-2.1-2.2-4.1-2.5-6c-0.1-0.5-0.2-0.9-0.2-1.4c0-0.5,0-1,0-1.4c0-3.8,1.3-7,4-9.4c2.7-2.4,6.3-3.6,10.9-3.6
		c1.4,0,2.6,0.1,3.7,0.2c1.1,0.1,2.1,0.3,3,0.5c0.7,0.1,1.2,0.2,1.5,0.3c0.4,0,0.7,0.1,1,0.1c0.3,0,0.5,0,0.6,0.1
		c0.1,0,0.1,0.2,0.1,0.4c0,0.1,0,0.3-0.1,0.6c0,0.3,0,0.8-0.1,1.4c0,0.6-0.1,1.4-0.1,2.3c0,0.9,0,2,0,3.2c0,0.6,0,1-0.1,1.3
		c0,0.2-0.2,0.4-0.4,0.4c-0.2,0-0.3-0.1-0.4-0.2c0-0.2-0.1-0.4-0.1-0.7c0-0.2,0-0.4-0.1-0.7c0-0.3-0.1-0.7-0.1-1
		c-0.1-0.4-0.2-0.7-0.4-1.1c-0.1-0.3-0.2-0.6-0.3-0.8c-0.1-0.2-0.3-0.4-0.5-0.7c-0.2-0.3-0.6-0.7-1.1-1.1c-0.7-0.5-1.6-1-2.8-1.4
		c-1.2-0.4-2.7-0.6-4.6-0.6c-2.5,0-4.6,0.7-6.3,2.2c-1.7,1.4-2.5,3.5-2.5,6.1c0,0.7,0.1,1.4,0.2,2c0.1,0.6,0.4,1.3,0.6,1.9
		c0.6,1.2,1.5,2.4,2.7,3.6c1.3,1.3,3,2.8,5.2,4.6l2,1.5c2.7,2.2,4.8,4.1,6.3,5.9c1.5,1.7,2.6,3.4,3.2,5.1c0.4,1,0.6,1.9,0.8,3
		c0.1,1,0.2,2,0.2,3c0,0.8-0.1,1.8-0.4,3c-0.2,1.2-0.6,2.4-1.2,3.6c-0.5,1-1.1,1.9-1.8,2.8c-0.7,0.9-1.6,1.8-2.7,2.5
		c-1.5,1.1-3.2,1.8-5.1,2.2C719.3,579.1,717.4,579.3,715.4,579.3L715.4,579.3 M382.3,675.3c-1.7,0-3.3-0.1-5-0.4
		c-1.6-0.3-3.2-0.8-4.7-1.4c0,0-0.1-0.1-0.1-0.1c0,0-0.1-0.1-0.1-0.1c-0.4-0.2-0.6-0.5-0.7-0.8c0-0.3-0.1-0.9-0.1-1.8
		c0-1,0-2,0.1-2.9s0.1-1.7,0.1-2.4c0-0.5,0-1,0.1-1.4c0-0.4,0.1-0.8,0.1-1c0-0.4,0.1-0.7,0.1-0.9c0.1-0.2,0.2-0.3,0.4-0.3
		c0.2,0,0.4,0.1,0.4,0.2c0,0.1,0.1,0.3,0.1,0.6c0,0.3,0,0.7,0,1.2c0,0.4,0.1,0.9,0.2,1.4c0.5,2.6,1.8,4.5,3.9,5.7
		c2.1,1.1,4.4,1.7,6.8,1.7c3.2,0,5.7-0.9,7.4-2.7c1.7-1.8,2.7-3.8,2.9-6c0-0.1,0.1-0.3,0.1-0.4c0-0.2,0-0.4,0-0.5
		c0-1.2-0.1-2.3-0.4-3.3c-0.2-1-0.6-2-1.2-3c-0.7-1-1.6-2-2.7-3.1c-1.1-1.1-2.4-2.3-4-3.6l-3.2-2.7c-3.1-2.5-5.3-4.8-6.6-6.8
		c-1.3-2.1-2.2-4.1-2.5-6c-0.1-0.5-0.2-0.9-0.2-1.4c0-0.5,0-1,0-1.4c0-3.8,1.3-7,4-9.4c2.7-2.4,6.3-3.6,10.9-3.6
		c1.4,0,2.6,0.1,3.7,0.2c1.1,0.1,2.1,0.3,3,0.5c0.7,0.1,1.2,0.2,1.5,0.3c0.4,0,0.7,0.1,1,0.1c0.3,0,0.5,0,0.6,0.1
		c0.1,0,0.1,0.2,0.1,0.4c0,0.1,0,0.3-0.1,0.6c0,0.3,0,0.8-0.1,1.4c0,0.6-0.1,1.4-0.1,2.3c0,0.9,0,2,0,3.2c0,0.6,0,1-0.1,1.3
		c0,0.2-0.2,0.4-0.4,0.4c-0.2,0-0.3-0.1-0.4-0.2c0-0.2-0.1-0.4-0.1-0.7c0-0.2,0-0.4-0.1-0.7c0-0.3-0.1-0.7-0.1-1
		c-0.1-0.4-0.2-0.7-0.4-1.1c-0.1-0.3-0.2-0.6-0.3-0.8c-0.1-0.2-0.3-0.4-0.5-0.7c-0.2-0.3-0.6-0.7-1.1-1.1c-0.7-0.5-1.6-1-2.8-1.4
		c-1.2-0.4-2.7-0.6-4.6-0.6c-2.5,0-4.6,0.7-6.3,2.2c-1.7,1.4-2.5,3.5-2.5,6.1c0,0.7,0.1,1.4,0.2,2c0.1,0.6,0.4,1.3,0.6,1.9
		c0.6,1.2,1.5,2.4,2.7,3.6c1.3,1.3,3,2.8,5.2,4.6l2,1.5c2.7,2.2,4.8,4.1,6.3,5.9c1.5,1.7,2.6,3.4,3.2,5.1c0.4,1,0.6,1.9,0.8,3
		c0.1,1,0.2,2,0.2,3c0,0.8-0.1,1.8-0.4,3c-0.2,1.2-0.6,2.4-1.2,3.6c-0.5,1-1.1,1.9-1.8,2.8c-0.7,0.9-1.6,1.8-2.7,2.5
		c-1.5,1.1-3.2,1.8-5.1,2.2C386.2,675.1,384.3,675.3,382.3,675.3L382.3,675.3 M417.4,653.4v-12.7c0-5.4,0-9,0-10.8
		c0-1.9,0-3.4-0.1-4.5c0,0,0-0.1,0-0.1c0,0,0-0.1,0-0.1c0-1.3-0.3-2.2-0.7-2.8c-0.4-0.6-1.2-1.1-2.4-1.3c-0.1,0-0.3-0.1-0.6-0.1
		c-0.2,0-0.5-0.1-0.7-0.1c-0.2,0-0.4-0.1-0.6-0.1c-0.2,0-0.4,0-0.5,0c-0.1,0-0.3,0-0.4-0.1c-0.1-0.1-0.1-0.2-0.1-0.4
		c0-0.2,0.1-0.4,0.3-0.4c0.2-0.1,0.5-0.1,0.9-0.1c0.4,0,0.8,0,1.2,0c0.4,0,0.9,0,1.3,0c0.5,0,0.9,0.1,1.4,0.1c0.5,0,0.9,0,1.4,0
		c0.8,0,1.4,0.1,1.9,0.1c0.6,0,0.9,0,1,0c0.1,0,1.1,0,2.7,0c1.7,0,3.6,0,5.6,0c1.9,0,3.6,0,5.2,0c1.6,0,2.6-0.1,3-0.1
		c0.7,0,1.3-0.1,1.8-0.1c0.6-0.1,1-0.2,1.3-0.2c0.1,0,0.2,0,0.2-0.1c0.1,0,0.2-0.1,0.2-0.1c0,0,0-0.1,0-0.1c0,0,0.1,0,0.1,0
		c0.1,0,0.2-0.1,0.2-0.1c0.1,0,0.2-0.1,0.3-0.1c0.1,0,0.2,0.1,0.2,0.2c0,0.1,0.1,0.2,0.1,0.4c0,0.2,0,0.4-0.1,0.7
		c0,0.3-0.1,0.7-0.2,1.2c0,0.2-0.1,0.4-0.1,0.6c0,0.2,0,0.5-0.1,0.8c0,0.2,0,0.5-0.1,1c0,0.4-0.1,0.9-0.1,1.4c0,0.5-0.1,0.9-0.1,1.4
		c0,0.4,0,0.7-0.1,0.9c0,0,0,0.1,0,0.1l0,0c0,0.1-0.1,0.3-0.2,0.4c0,0.1-0.1,0.2-0.3,0.2c-0.2,0-0.3-0.1-0.4-0.2
		c-0.1-0.2-0.1-0.4-0.1-0.7c0-0.2,0-0.4-0.1-0.7c0-0.3,0-0.6-0.1-0.9c0-0.1-0.1-0.3-0.1-0.4c0-0.2-0.1-0.4-0.1-0.5
		c-0.2-0.6-0.7-1.1-1.3-1.5c-0.6-0.4-1.9-0.7-3.8-0.9c-0.3,0-0.9-0.1-1.9-0.1c-0.9,0-1.9-0.1-3-0.1c-1.2,0-2.2-0.1-3.2-0.1
		c-1,0-1.5,0-1.7,0c-0.1,0-0.3,0.1-0.4,0.2c0,0.1-0.1,0.3-0.1,0.5v19.8c0,0.3,0,0.5,0.1,0.6c0,0.1,0.2,0.1,0.4,0.1
		c0.2,0,0.9,0,2.1,0c1.2,0,2.4,0,3.8,0c1.2,0,2.3,0,3.4,0c1.1,0,1.9-0.1,2.2-0.1c0.9-0.1,1.6-0.2,2.1-0.3c0.5-0.1,1-0.4,1.3-0.7
		c0.2-0.3,0.4-0.5,0.6-0.6c0.2-0.2,0.4-0.3,0.5-0.3c0.1,0,0.2,0,0.2,0.1c0.1,0,0.1,0.2,0.1,0.4c0,0.1,0,0.4-0.1,0.8
		c0,0.4-0.1,0.9-0.2,1.5c0,0.2-0.1,0.5-0.1,0.8c0,0.3,0,0.6-0.1,0.9c0,0.2-0.1,0.5-0.1,0.9c0,0.3,0,0.7,0,1c0,0.6-0.1,1.2-0.1,1.7
		c0,0.5,0,0.9,0,1c0,0,0,0.1,0,0.2c0,0,0,0.1,0,0.1c0,0.3,0,0.5-0.1,0.7c0,0.2-0.2,0.3-0.4,0.3c-0.2,0-0.3,0-0.4-0.1
		c0-0.1-0.1-0.3-0.1-0.5c0-0.4,0-0.7-0.1-1.1c0-0.4-0.1-0.8-0.2-1.3c0-0.1-0.1-0.2-0.1-0.3c0-0.1,0-0.2-0.1-0.3
		c-0.2-0.4-0.6-0.8-1.1-1.2c-0.5-0.4-1.3-0.6-2.5-0.7c-0.4,0-1.1-0.1-2.1-0.1c-0.9,0-1.9-0.1-2.9-0.1c-1.2,0-2.3-0.1-3.3-0.1
		c-1,0-1.7-0.1-2-0.1c-0.2,0-0.3,0-0.4,0.1c0,0.1-0.1,0.2-0.1,0.4v6.3c0,0.4,0,1,0,1.7s0,1.5,0,2.3c0,0.3,0,0.7,0,1
		c0,0.3,0,0.6,0,0.9c0,1.4,0,2.7,0,4s0,2.1,0,2.5c0.1,2.5,0.6,4.1,1.6,4.8c1,0.7,3.3,1.1,6.8,1.1c0.5,0,1,0,1.6,0
		c0.6,0,1.3,0,1.9-0.1c0.6,0,1.2-0.1,1.8-0.2c0.6-0.1,1.2-0.3,1.7-0.5c1-0.4,1.7-1,2.2-1.7c0.5-0.8,0.8-2,1.1-3.5
		c0.1-0.4,0.2-0.6,0.2-0.8c0.1-0.2,0.2-0.3,0.4-0.3c0.2,0,0.3,0.1,0.4,0.3c0,0.2,0.1,0.4,0.1,0.6c0,0,0,0,0,0.1c0,0,0,0,0,0.1
		c0,0.1,0,0.6-0.1,1.4c0,0.7-0.1,1.5-0.3,2.3c0,0.2,0,0.5-0.1,0.8c0,0.2-0.1,0.5-0.1,0.7c-0.1,0.3-0.2,0.7-0.2,1
		c0,0.3-0.1,0.6-0.1,0.8c-0.2,0.9-0.6,1.4-1.1,1.6c-0.5,0.1-1.4,0.2-2.8,0.2c-2.7,0-5.1,0-7.1-0.1c-2,0-3.7-0.1-5-0.1
		c-1.4,0-2.6-0.1-3.5-0.1c-0.9,0-1.6-0.1-2.1-0.1c-0.1,0-0.4,0-1,0c-0.5,0-1.2,0.1-1.9,0.1c-0.2,0-0.4,0-0.6,0c-0.2,0-0.4,0-0.6,0
		c-0.5,0-1.1,0-1.6,0c-0.5,0-1,0.1-1.4,0.1c-0.4,0-0.7,0-0.9-0.1c-0.2,0-0.3-0.2-0.3-0.4c0-0.1,0-0.2,0.1-0.3
		c0.1-0.1,0.2-0.1,0.4-0.1c0.1,0,0.3,0,0.5,0c0.2,0,0.4-0.1,0.6-0.1c0.2,0,0.4-0.1,0.6-0.1c0.2,0,0.4-0.1,0.5-0.1
		c0.7-0.1,1.2-0.6,1.4-1.3c0.3-0.7,0.5-1.6,0.6-2.7c0.2-1.5,0.3-3.7,0.3-6.3C417.4,660,417.4,656.9,417.4,653.4L417.4,653.4
		 M484.6,675.3c-5.4,0-10-0.6-13.9-1.9c-3.8-1.3-7.1-3.2-10-5.8c-2.1-1.8-3.7-3.8-4.9-5.9c-1.2-2.2-2.1-4.3-2.7-6.5
		c-0.4-1.5-0.7-3.1-0.9-4.5c-0.1-1.5-0.2-3-0.2-4.4c0-1.5,0.2-3.4,0.6-5.6c0.4-2.2,1.2-4.4,2.3-6.7c0.6-1.3,1.3-2.6,2.2-3.8
		s1.9-2.5,3-3.6c2.2-2.2,5-4,8.4-5.5c3.5-1.5,8-2.2,13.6-2.2c1,0,2.1,0,3.3,0.1c1.3,0,2.5,0.1,3.8,0.3c0.6,0.1,1.1,0.2,1.7,0.3
		c0.6,0,1.1,0.1,1.7,0.2c1.4,0.2,2.7,0.5,3.8,0.6c1.2,0.2,2.4,0.3,3.5,0.4c0.4,0,0.6,0.1,0.7,0.3c0.1,0.1,0.2,0.3,0.2,0.5
		c0,0.2,0,0.5-0.1,0.9c0,0.3-0.1,0.8-0.1,1.5c0,0.2-0.1,0.5-0.1,0.8c0,0.2,0,0.5,0,0.9c0,0.4-0.1,0.9-0.1,1.4c0,0.5,0,1-0.1,1.5
		c0,0.4,0,0.9,0,1.4c0,0.4,0,0.8,0,1.2c0,0.4,0,0.8-0.1,1.2c0,0.3,0,0.5,0,0.7c0,0.5-0.1,0.9-0.2,1.2c0,0.2-0.2,0.4-0.4,0.4
		c-0.2,0-0.4-0.1-0.5-0.4c0-0.3-0.1-0.7-0.1-1.2c0-0.1,0-0.3,0-0.4c0-0.1,0-0.3,0-0.4c-0.1-1.3-0.4-2.5-0.9-3.7
		c-0.5-1.2-1.2-2.2-2.1-2.9c-1.3-1.1-3.2-2.1-5.8-2.9c-2.6-0.8-5.5-1.2-8.7-1.2c-4.2,0-7.6,0.5-10,1.4c-2.4,0.9-4.3,1.9-5.6,3
		c-0.2,0.1-0.4,0.3-0.5,0.4c-0.1,0.1-0.3,0.3-0.4,0.4c-2.6,2.5-4.4,5.3-5.3,8.5c-0.8,3.2-1.2,6.6-1.2,10.3c0,6.9,2.4,13,7.2,18.4
		c4.9,5.3,11.1,8,18.8,8c2.7,0,5.1-0.2,7.2-0.6c2.1-0.5,3.9-1.5,5.3-3c0.3-0.4,0.6-0.8,0.9-1.3c0.3-0.5,0.6-1,0.8-1.5
		c0.2-0.7,0.4-1.3,0.6-1.9c0.2-0.6,0.3-1,0.4-1.4c0.1-0.4,0.2-0.6,0.3-0.8c0.1-0.2,0.2-0.3,0.4-0.3c0.2,0,0.3,0.1,0.4,0.4
		c0.1,0.2,0.1,0.4,0.1,0.7c0,0.1-0.1,0.7-0.2,1.8c-0.1,1-0.3,2.1-0.5,3.3c-0.1,0.5-0.2,1-0.3,1.5c-0.1,0.5-0.2,0.9-0.3,1.4
		c0,0.2-0.1,0.5-0.1,0.6c0,0.2-0.1,0.4-0.1,0.6c0,0.1-0.1,0.3-0.1,0.4c0,0.1,0,0.2-0.1,0.3c-0.1,0.2-0.2,0.4-0.4,0.6
		c-0.1,0.1-0.3,0.3-0.5,0.4c-0.1,0-0.2,0.1-0.4,0.1c-0.1,0-0.2,0.1-0.4,0.2c-1.1,0.4-2.5,0.7-4.2,0.9c-1.7,0.3-3.4,0.5-5.2,0.6
		c-0.6,0-1.3,0-1.9,0C485.8,675.3,485.2,675.3,484.6,675.3L484.6,675.3 M513.5,653.4v-12.7c0-5.4,0-9,0-10.8c0-1.9,0-3.4-0.1-4.5
		c0,0,0-0.1,0-0.1c0,0,0-0.1,0-0.1c0-1.3-0.3-2.2-0.7-2.8c-0.4-0.6-1.2-1.1-2.4-1.3c-0.1,0-0.3-0.1-0.6-0.1c-0.2,0-0.5-0.1-0.7-0.1
		c-0.2,0-0.4-0.1-0.6-0.1c-0.2,0-0.4,0-0.5,0c-0.1,0-0.3,0-0.4-0.1c-0.1-0.1-0.1-0.2-0.1-0.4c0-0.2,0.1-0.4,0.3-0.4
		c0.2-0.1,0.5-0.1,0.9-0.1c0.4,0,0.8,0,1.2,0c0.4,0,0.9,0,1.3,0c0.5,0,0.9,0.1,1.4,0.1c0.5,0,0.9,0,1.4,0c0.8,0,1.4,0.1,1.9,0.1
		c0.6,0,0.9,0,1,0c0.2,0,0.6,0,1.3,0c0.7,0,1.5-0.1,2.5-0.1c0.1,0,0.3,0,0.4,0c0.2,0,0.4,0,0.5,0c0.7,0,1.4,0,2.1,0
		c0.7,0,1.3-0.1,1.7-0.1c0.5,0,1,0,1.5,0.1c0.5,0,1,0,1.5,0c1.8,0.1,3.6,0.4,5.3,0.9c1.7,0.4,3.3,1.2,4.8,2.2
		c0.3,0.2,0.6,0.4,0.9,0.7c0.3,0.3,0.7,0.6,1,1c0.8,0.9,1.5,2.1,2.1,3.5c0.7,1.3,1,2.9,1,4.6c0,2.6-0.6,5.3-1.9,8.1
		c-1.3,2.7-3.5,5.6-6.8,8.6c3,3.8,5.7,7.3,8.2,10.4c2.5,3.1,4.8,5.8,6.9,8.1c2,2.1,3.7,3.4,5.2,4c1.5,0.6,2.7,1,3.6,1.2
		c0.7,0.1,1.3,0.2,1.7,0.2c0.5,0,0.9,0,1.1,0c0.2,0,0.3,0,0.4,0.1c0.1,0.1,0.2,0.2,0.2,0.3c0,0.2-0.1,0.3-0.4,0.4
		c-0.2,0.1-0.7,0.1-1.4,0.1h-5.1c-2,0-3.5-0.1-4.6-0.2c-1.1-0.2-2-0.5-3-1c0,0,0,0-0.1,0c0,0,0-0.1-0.1-0.1
		c-0.4-0.2-0.8-0.5-1.2-0.8c-0.4-0.3-0.8-0.6-1.2-0.9c-1.1-1-2.2-2.2-3.4-3.7c-1.2-1.5-2.5-3.2-4-5.2c-0.2-0.3-0.5-0.6-0.7-0.9
		c-0.2-0.3-0.5-0.6-0.7-0.9c-0.1-0.1-0.2-0.3-0.4-0.4c-0.1-0.2-0.2-0.4-0.3-0.5c-1.2-1.6-2.3-3.1-3.4-4.5c-1-1.5-1.8-2.6-2.4-3.3
		c0,0-0.1-0.1-0.1-0.1c0,0,0-0.1-0.1-0.1c-0.1,0-0.2-0.1-0.4-0.1c-0.1,0-0.2-0.1-0.4-0.1l-8.9-0.2c-0.2,0-0.3,0.1-0.4,0.2
		c0,0.1-0.1,0.2-0.1,0.4v1.7c0,3.5,0,6.6,0,9.4c0,2.7,0.2,4.8,0.4,6.3c0.1,1.1,0.3,1.9,0.6,2.7c0.4,0.7,1.1,1.2,2.2,1.3
		c0.2,0,0.4,0.1,0.6,0.1c0.2,0,0.5,0,0.7,0c0.4,0,0.7,0.1,1.1,0.1c0.4,0,0.7,0,0.9,0c0.2,0,0.4,0,0.4,0.1c0.1,0.1,0.1,0.2,0.1,0.3
		c0,0.2-0.1,0.3-0.3,0.4c-0.2,0.1-0.5,0.1-0.9,0.1c-0.2,0-0.5,0-0.7,0c-0.2,0-0.5,0-0.7,0c-0.8,0-1.5,0-2.3-0.1c-0.7,0-1.4,0-2,0
		c-0.9,0-1.6-0.1-2.2-0.1c-0.5,0-0.8,0-0.9,0c0,0-0.3,0-0.8,0c-0.5,0-1.1,0.1-1.8,0.1c-0.2,0-0.5,0-0.7,0c-0.2,0-0.4,0-0.6,0
		c-0.5,0-1,0.1-1.5,0.1c-0.5,0-0.9,0-1.3,0c-0.4,0-0.7,0-0.9-0.1c-0.2,0-0.3-0.2-0.3-0.4c0-0.1,0-0.2,0.1-0.3
		c0.1-0.1,0.2-0.1,0.4-0.1c0.1,0,0.3,0,0.5,0c0.2,0,0.4-0.1,0.6-0.1c0.2,0,0.4-0.1,0.6-0.1c0.2,0,0.4-0.1,0.5-0.1
		c0.7-0.1,1.2-0.6,1.4-1.3c0.3-0.7,0.5-1.6,0.6-2.7c0.2-1.5,0.3-3.7,0.3-6.3C513.5,660,513.5,656.9,513.5,653.4L513.5,653.4
		 M519.3,623.4v23.6c0,0.2,0,0.4,0.1,0.6c0.1,0.1,0.2,0.3,0.4,0.4c0.5,0.3,1.4,0.6,2.7,0.8c1.3,0.2,2.8,0.3,4.3,0.4
		c0.1,0,0.2,0,0.3,0c0.1,0,0.2,0,0.3,0c0.4,0,0.8,0,1.2,0c0.4,0,0.9-0.1,1.3-0.2c0.5-0.1,1-0.2,1.4-0.4c0.5-0.2,1-0.5,1.5-0.8
		c1.3-0.9,2.3-2.2,3.1-4.1c0.9-1.9,1.3-4.3,1.3-7c0-4.5-1.1-8.1-3.4-10.6c-2.2-2.5-5.2-3.8-9.1-3.8c-1.1,0-2,0-3,0.1
		c-0.9,0.1-1.5,0.2-1.9,0.3c-0.2,0-0.3,0.1-0.4,0.3S519.3,623.2,519.3,623.4L519.3,623.4 M566.9,653.4v-12.7c0-5.4,0-9,0-10.8
		c0-1.9,0-3.4-0.1-4.5c0,0,0-0.1,0-0.1c0,0,0-0.1,0-0.1c0-1.3-0.3-2.2-0.7-2.8c-0.4-0.6-1.2-1.1-2.4-1.3c-0.1,0-0.3-0.1-0.6-0.1
		c-0.2,0-0.5-0.1-0.7-0.1c-0.2,0-0.4-0.1-0.6-0.1c-0.2,0-0.4,0-0.5,0c-0.1,0-0.3,0-0.4-0.1c-0.1-0.1-0.1-0.2-0.1-0.4
		c0-0.2,0.1-0.4,0.3-0.4c0.2-0.1,0.5-0.1,0.9-0.1c0.4,0,0.8,0,1.2,0c0.4,0,0.9,0,1.3,0c0.5,0,0.9,0.1,1.4,0.1c0.5,0,0.9,0,1.4,0
		c0.8,0,1.4,0.1,1.9,0.1c0.6,0,0.9,0,1,0c0.1,0,1.1,0,2.7,0c1.7,0,3.6,0,5.6,0c1.9,0,3.6,0,5.2,0c1.6,0,2.6-0.1,3-0.1
		c0.7,0,1.3-0.1,1.8-0.1c0.6-0.1,1-0.2,1.3-0.2c0.1,0,0.2,0,0.2-0.1c0.1,0,0.2-0.1,0.2-0.1c0,0,0-0.1,0-0.1c0,0,0.1,0,0.1,0
		c0.1,0,0.2-0.1,0.2-0.1c0.1,0,0.2-0.1,0.3-0.1c0.1,0,0.2,0.1,0.2,0.2c0,0.1,0.1,0.2,0.1,0.4c0,0.2,0,0.4-0.1,0.7
		c0,0.3-0.1,0.7-0.2,1.2c0,0.2-0.1,0.4-0.1,0.6c0,0.2,0,0.5-0.1,0.8c0,0.2,0,0.5-0.1,1c0,0.4-0.1,0.9-0.1,1.4c0,0.5-0.1,0.9-0.1,1.4
		c0,0.4,0,0.7-0.1,0.9c0,0,0,0.1,0,0.1l0,0c0,0.1-0.1,0.3-0.2,0.4c0,0.1-0.1,0.2-0.3,0.2c-0.2,0-0.3-0.1-0.4-0.2
		c-0.1-0.2-0.1-0.4-0.1-0.7c0-0.2,0-0.4-0.1-0.7c0-0.3,0-0.6-0.1-0.9c0-0.1-0.1-0.3-0.1-0.4c0-0.2-0.1-0.4-0.1-0.5
		c-0.2-0.6-0.7-1.1-1.3-1.5c-0.6-0.4-1.9-0.7-3.8-0.9c-0.3,0-0.9-0.1-1.9-0.1c-0.9,0-1.9-0.1-3-0.1c-1.2,0-2.2-0.1-3.2-0.1
		c-1,0-1.5,0-1.7,0c-0.1,0-0.3,0.1-0.4,0.2c0,0.1-0.1,0.3-0.1,0.5v19.8c0,0.3,0,0.5,0.1,0.6c0,0.1,0.2,0.1,0.4,0.1
		c0.2,0,0.9,0,2.1,0c1.2,0,2.4,0,3.8,0c1.2,0,2.3,0,3.4,0c1.1,0,1.9-0.1,2.2-0.1c0.9-0.1,1.6-0.2,2.1-0.3c0.5-0.1,1-0.4,1.3-0.7
		c0.2-0.3,0.4-0.5,0.6-0.6c0.2-0.2,0.4-0.3,0.5-0.3c0.1,0,0.2,0,0.2,0.1c0.1,0,0.1,0.2,0.1,0.4c0,0.1,0,0.4-0.1,0.8
		c0,0.4-0.1,0.9-0.2,1.5c0,0.2-0.1,0.5-0.1,0.8c0,0.3,0,0.6-0.1,0.9c0,0.2-0.1,0.5-0.1,0.9c0,0.3,0,0.7,0,1c0,0.6-0.1,1.2-0.1,1.7
		c0,0.5,0,0.9,0,1c0,0,0,0.1,0,0.2c0,0,0,0.1,0,0.1c0,0.3,0,0.5-0.1,0.7c0,0.2-0.2,0.3-0.4,0.3c-0.2,0-0.3,0-0.4-0.1
		c0-0.1-0.1-0.3-0.1-0.5c0-0.4,0-0.7-0.1-1.1c0-0.4-0.1-0.8-0.2-1.3c0-0.1-0.1-0.2-0.1-0.3c0-0.1,0-0.2-0.1-0.3
		c-0.2-0.4-0.6-0.8-1.1-1.2c-0.5-0.4-1.3-0.6-2.5-0.7c-0.4,0-1.1-0.1-2.1-0.1c-0.9,0-1.9-0.1-2.9-0.1c-1.2,0-2.3-0.1-3.3-0.1
		c-1,0-1.7-0.1-2-0.1c-0.2,0-0.3,0-0.4,0.1c0,0.1-0.1,0.2-0.1,0.4v6.3c0,0.4,0,1,0,1.7s0,1.5,0,2.3c0,0.3,0,0.7,0,1
		c0,0.3,0,0.6,0,0.9c0,1.4,0,2.7,0,4s0,2.1,0,2.5c0.1,2.5,0.6,4.1,1.6,4.8c1,0.7,3.3,1.1,6.8,1.1c0.5,0,1,0,1.6,0
		c0.6,0,1.3,0,1.9-0.1c0.6,0,1.2-0.1,1.8-0.2c0.6-0.1,1.2-0.3,1.7-0.5c1-0.4,1.7-1,2.2-1.7c0.5-0.8,0.8-2,1.1-3.5
		c0.1-0.4,0.2-0.6,0.2-0.8c0.1-0.2,0.2-0.3,0.4-0.3c0.2,0,0.3,0.1,0.4,0.3c0,0.2,0.1,0.4,0.1,0.6c0,0,0,0,0,0.1c0,0,0,0,0,0.1
		c0,0.1,0,0.6-0.1,1.4c0,0.7-0.1,1.5-0.3,2.3c0,0.2,0,0.5-0.1,0.8c0,0.2-0.1,0.5-0.1,0.7c-0.1,0.3-0.2,0.7-0.2,1
		c0,0.3-0.1,0.6-0.1,0.8c-0.2,0.9-0.6,1.4-1.1,1.6c-0.5,0.1-1.4,0.2-2.8,0.2c-2.7,0-5.1,0-7.1-0.1c-2,0-3.7-0.1-5-0.1
		c-1.4,0-2.6-0.1-3.5-0.1c-0.9,0-1.6-0.1-2.1-0.1c-0.1,0-0.4,0-1,0c-0.5,0-1.2,0.1-1.9,0.1c-0.2,0-0.4,0-0.6,0s-0.4,0-0.6,0
		c-0.5,0-1.1,0-1.6,0c-0.5,0-1,0.1-1.4,0.1s-0.7,0-0.9-0.1c-0.2,0-0.3-0.2-0.3-0.4c0-0.1,0-0.2,0.1-0.3c0.1-0.1,0.2-0.1,0.4-0.1
		c0.1,0,0.3,0,0.5,0c0.2,0,0.4-0.1,0.6-0.1c0.2,0,0.4-0.1,0.6-0.1c0.2,0,0.4-0.1,0.5-0.1c0.7-0.1,1.2-0.6,1.4-1.3
		c0.3-0.7,0.5-1.6,0.6-2.7c0.2-1.5,0.3-3.7,0.3-6.3C566.8,660,566.9,656.9,566.9,653.4L566.9,653.4 M629.1,622.9v30.5
		c0,3.5,0,6.6,0,9.4c0,2.7,0.2,4.8,0.4,6.3c0.1,1.1,0.3,1.9,0.6,2.7c0.4,0.7,1.1,1.2,2.2,1.3c0.2,0,0.4,0.1,0.6,0.1
		c0.2,0,0.5,0,0.7,0c0.4,0,0.7,0.1,1.1,0.1c0.4,0,0.7,0,0.9,0c0.2,0,0.4,0,0.4,0.1c0.1,0.1,0.1,0.2,0.1,0.3c0,0.2-0.1,0.3-0.3,0.4
		c-0.2,0.1-0.5,0.1-0.9,0.1c-0.2,0-0.5,0-0.7,0c-0.2,0-0.5,0-0.7,0c-0.8,0-1.5,0-2.3-0.1c-0.7,0-1.4,0-2,0c-0.9,0-1.6-0.1-2.2-0.1
		c-0.5,0-0.8,0-0.9,0c-0.1,0-0.4,0-1,0c-0.5,0-1.2,0.1-1.9,0.1c-0.2,0-0.4,0-0.6,0c-0.2,0-0.4,0-0.6,0c-0.5,0-1.1,0-1.6,0
		c-0.5,0-1,0.1-1.4,0.1c-0.4,0-0.7,0-0.9-0.1c-0.2,0-0.3-0.2-0.3-0.4c0-0.1,0-0.2,0.1-0.3c0.1-0.1,0.2-0.1,0.4-0.1
		c0.1,0,0.3,0,0.5,0c0.2,0,0.4-0.1,0.6-0.1c0.2,0,0.4-0.1,0.6-0.1c0.2,0,0.4-0.1,0.5-0.1c0.7-0.1,1.2-0.6,1.4-1.3
		c0.3-0.7,0.5-1.6,0.6-2.7c0.2-1.5,0.3-3.7,0.3-6.3c0-2.7,0.1-5.8,0.1-9.3v-30.6l-10.7,0.1c-2.2,0.1-3.8,0.3-4.9,0.6
		c-1.1,0.3-1.9,0.9-2.5,1.7c-0.4,0.6-0.7,1.1-0.9,1.4c-0.1,0.3-0.3,0.6-0.4,0.8c-0.1,0.3-0.2,0.5-0.4,0.6c-0.1,0.1-0.2,0.1-0.4,0.1
		c-0.1,0-0.2,0-0.3-0.1c0-0.1-0.1-0.3-0.1-0.5s0.1-0.6,0.2-1.4s0.3-1.5,0.5-2.4c0,0,0-0.1,0-0.1c0,0,0.1-0.1,0.1-0.1
		c0.2-0.8,0.4-1.6,0.5-2.2s0.2-1.1,0.3-1.2c0-0.1,0.1-0.2,0.1-0.3c0-0.1,0.1-0.2,0.1-0.3c0-0.2,0.1-0.4,0.2-0.5
		c0.1-0.2,0.2-0.3,0.3-0.3c0.1,0,0.3,0,0.5,0.1c0.2,0.1,0.4,0.2,0.7,0.3c0.2,0.1,0.5,0.2,0.8,0.3c0.3,0,0.7,0.1,1.2,0.1
		c0.3,0,0.6,0.1,0.9,0.1c0.3,0,0.6,0,0.9,0c0.8,0,1.6,0.1,2.3,0.1c0.8,0,1.3,0.1,1.7,0.1l27.1-0.1c1.2,0,2.1,0,3,0
		c0.9-0.1,1.6-0.2,2.2-0.3c0.5-0.1,1-0.2,1.3-0.2c0.3-0.1,0.6-0.1,0.7-0.1c0.2,0,0.3,0.1,0.3,0.3c0,0.1,0.1,0.3,0.1,0.6
		c0,0.4,0,1-0.1,1.6c0,0.6,0,1.3,0,1.9c0,0.1,0,0.3,0,0.5c0,0.1,0,0.3,0,0.4c0,0.8-0.1,1.6-0.1,2.2c0,0.6,0,1,0,1.2
		c0,0.3,0,0.6-0.1,0.7c-0.1,0.1-0.2,0.2-0.4,0.2c-0.2,0-0.3-0.1-0.4-0.2c0-0.2-0.1-0.5-0.1-1L647,627c-0.1-1.1-0.8-1.9-1.9-2.7
		c-1.2-0.8-3.5-1.2-6.9-1.2L629.1,622.9L629.1,622.9"/>
</g>
</svg>
