<?xml version="1.0" encoding="utf-8"?>
<!-- Generator: Adobe Illustrator 21.1.0, SVG Export Plug-In . SVG Version: 6.00 Build 0)  -->
<svg version="1.1" id="Calque_1" xmlns="http://www.w3.org/2000/svg" xmlns:xlink="http://www.w3.org/1999/xlink" x="0px" y="0px"
	 viewBox="0 0 305 54" style="enable-background:new 0 0 305 54;" xml:space="preserve">
<style type="text/css">
	.st0{fill:#78D6EF;}
</style>
<g>
	<path class="st0" d="M287.3,10.4c-0.5-4.1-3.7-7.6-7.5-9C275-0.4,269,1.3,266.2,5.7c-2.6,3.8-2.2,8.5-2.2,12.9c2.3,0.1,4.7,0,7,0
		c0.1-2.2-0.3-4.5,0.2-6.7c0.3-1.4,0.9-2.8,2-3.7c1.7-1.4,4.8-1.1,5.9,0.9c1.2,2,1.1,4.4,1,6.6c0,1.8-0.8,3.5-1.5,5.1
		c-4.8,10.8-10.4,21.3-15.9,31.7c7.9,0,15.8,0,23.7,0c0-2.3,0-4.6,0-6.9c-4.3,0-8.5,0-12.8,0c4.3-7.6,8.6-15.3,12.2-23.3
		C287.7,18.7,287.8,14.4,287.3,10.4z"/>
	<path class="st0" d="M56.8,4.5c-3.1-2.4-7.3-2.7-11.1-2.2c-2.3,0.4-4.5,1.4-6.1,3.1c-2.2,2.2-3.4,5.3-4,8.4
		c-1.1,5.1-1.1,10.3-1.1,15.5c0.1,4.6,0.2,9.3,1.4,13.8c0.8,2.9,2.2,5.9,4.7,7.8c2.1,1.7,4.9,2.3,7.5,2.4c2.9,0.1,5.9-0.4,8.3-2
		c2.4-1.6,4-4.3,4.8-7c1.4-4.3,1.6-8.9,1.7-13.4c0-5.8,0.1-11.6-1.1-17.3C61,10.2,59.6,6.7,56.8,4.5z M55.4,33.4
		c-0.2,3-0.4,6.1-1.4,8.9c-0.5,1.4-1.4,2.8-2.7,3.6c-2,1.2-4.9,0.9-6.5-1c-1.6-1.8-2.1-4.2-2.5-6.4c-0.6-4.2-0.6-8.5-0.6-12.8
		c0.1-4,0.2-8.1,1.4-12c0.6-1.9,1.8-3.8,3.8-4.5c2-0.7,4.5-0.1,5.8,1.6c1.7,2.3,2.1,5.2,2.5,7.9C55.6,23.6,55.6,28.5,55.4,33.4z"/>
	<path class="st0" d="M22.4,9.3c0-2.2,0-4.4,0-6.5c-6.9,0-13.9,0-20.8,0c0,13.9,0,27.9,0,41.8c-0.1,2.7-0.1,5.4,0,8.2
		c2.5,0,4.9,0,7.4,0c0-7.6,0-15.1,0-22.7c4.1,0,8.1,0,12.2,0c0.1-2.2,0-4.4,0-6.6c-4.1,0-8.1,0-12.2,0c0-4.7,0-9.4,0-14.1
		C13.4,9.3,17.9,9.3,22.4,9.3z"/>
	<path class="st0" d="M91.5,28.4c3-0.4,6-1.9,7.6-4.5c1.9-3,2.1-6.8,1.8-10.3c-0.3-3.4-1.8-7-4.8-8.9c-3-2-6.7-2.1-10.2-2.1
		c-2.9-0.1-5.7,0.1-8.6,0.1c0,16.7,0,33.3,0,50c2.5,0,5,0,7.4,0c0-7.7,0-15.3,0-23c3.6,7.6,7.3,15.2,10.8,22.9c2.6,0,5.3,0,7.9,0.1
		c-0.2-1.4-1-2.5-1.6-3.7C98.5,42.1,95,35.3,91.5,28.4z M84.7,24.2c0-5,0-10,0-14.9c2.1,0.2,4.5-0.5,6.4,0.8
		c1.6,0.9,2.5,2.7,2.4,4.5c-0.1,2,0.3,4.2-0.6,6c-0.7,1.8-2.2,3.4-4.1,3.6C87.5,24.3,86.1,24.2,84.7,24.2z"/>
	<path class="st0" d="M115.2,2.6c-0.1,16.7,0,33.4,0,50.2c6.8,0,13.6,0,20.4,0c0-2.2,0-4.4,0-6.6c-4.5,0-8.9,0-13.4,0
		c0-5.4,0-10.8,0-16.1c4,0,8.1,0,12.1,0c0-2.2,0-4.4,0-6.6c-4,0-8.1,0-12.1,0c0-4.7,0-9.4,0-14c4.5,0,8.9,0,13.4,0
		c0-2.2,0-4.5,0-6.7C128.7,2.7,121.9,2.7,115.2,2.6z"/>
	<path class="st0" d="M159.7,34.6c-2.2-10.7-4.5-21.3-6.8-32c-2.3,0-4.7,0-7,0c3.5,16.7,7.1,33.4,10.6,50.1c2.1,0,4.1,0,6.2,0
		c3.6-16.7,7.3-33.4,10.9-50.1c-2.5,0-5,0-7.4,0C164,13.3,161.9,24,159.7,34.6z"/>
	<path class="st0" d="M206.2,9.3c0-2.2,0-4.5,0-6.7c-6.8,0-13.6,0-20.5,0c0,16.7,0,33.4,0,50.1c6.8,0,13.6,0,20.5,0
		c0-2.2,0-4.4,0-6.6c-4.5,0-8.9,0-13.4,0c0-5.4,0-10.7,0-16.1c4,0,8.1,0,12.1,0c0-2.2,0-4.4,0-6.6c-4,0-8.1,0-12.1,0
		c0-4.7,0-9.4,0-14.1C197.2,9.3,201.7,9.3,206.2,9.3z"/>
	<path class="st0" d="M234.1,28.4c3-0.4,5.9-1.8,7.6-4.4c2-3.1,2.2-6.9,1.9-10.4c-0.3-3.4-1.8-6.9-4.7-8.8c-3-2-6.7-2.2-10.1-2.1
		c-2.9-0.1-5.9,0.1-8.8,0.1c0,8.6,0,17.3,0,25.9c0,8-0.1,16.1,0.1,24.1c2.4,0,4.9,0,7.3,0c0.1-7.7,0-15.3,0.1-23
		c3.7,7.6,7.2,15.3,10.9,22.9c2.6,0,5.2,0,7.8,0.1c-0.3-1.5-1.2-2.8-1.8-4.2C240.9,41.8,237.5,35.1,234.1,28.4z M232.2,24.1
		c-1.6,0.4-3.2,0.1-4.9,0.2c0-5,0-10,0-14.9c1.2,0,2.4,0,3.6,0c2.7-0.1,5.3,2.2,5.2,5c0,1.6,0.1,3.2-0.1,4.8
		C235.6,21.1,234.5,23.4,232.2,24.1z"/>
	<path class="st0" d="M290.9,2.7c0,2.2,0,4.4,0,6.6c2,0,4,0,6,0c0,14.5,0,29,0,43.4c2.2,0,4.5,0,6.7,0c0-16.7,0-33.4,0-50.1
		C299.3,2.7,295.1,2.7,290.9,2.7z"/>
</g>
</svg>
