<?xml version="1.0" encoding="utf-8"?>
<!-- Generator: Adobe Illustrator 21.1.0, SVG Export Plug-In . SVG Version: 6.00 Build 0)  -->
<svg version="1.1" id="Calque_1" xmlns="http://www.w3.org/2000/svg" xmlns:xlink="http://www.w3.org/1999/xlink" x="0px" y="0px"
	 viewBox="0 0 316 316" style="enable-background:new 0 0 316 316;" xml:space="preserve">
<style type="text/css">
	.st0{fill:#F8F8F8;}
	.st1{fill:#FFFFFF;stroke:#302C29;stroke-miterlimit:10;}
	.st2{fill:none;stroke:#302C29;stroke-miterlimit:10;}
	.st3{fill:#302C29;}
	.st4{fill:none;stroke:#302C29;stroke-miterlimit:10;stroke-dasharray:2,1.5;}
	.st5{fill:#7AEDE2;stroke:#1D1D1B;stroke-miterlimit:10;}
	.st6{fill:#FFFFFF;stroke:#1D1D1B;stroke-linecap:round;stroke-linejoin:round;stroke-miterlimit:10;}
	.st7{fill:#7AEDE2;stroke:#1D1D1B;stroke-linejoin:round;stroke-miterlimit:10;}
	.st8{fill:#FFFFFF;stroke:#1D1D1B;stroke-linejoin:round;stroke-miterlimit:10;}
	.st9{fill:none;stroke:#7AEDE2;stroke-linecap:round;stroke-linejoin:round;stroke-miterlimit:10;}
	.st10{fill:none;stroke:#3B2B7A;stroke-miterlimit:10;}
	.st11{fill:none;stroke:#78D6EF;stroke-miterlimit:10;}
</style>
<g>
	<ellipse class="st0" cx="158" cy="158" rx="158" ry="157.3"/>
	<g>
		<path class="st1" d="M192.7,189.4c12.2,0,29.9-3.6,29.9-3.6s-0.5-3.3-1.3-5.2c0,0-14.5,3.5-28.5,3.5c-14,0-28.5-3.5-28.5-3.5
			c-0.9,1.8-1.3,5.2-1.3,5.2 M192.7,189.3c-13.6,0-29.9-3.5-29.9-3.5s-10.5,27.6-14.7,64.5c35.7,8.4,53.4,8.1,88.8,0
			c-4.6-39.3-14.4-64.5-14.4-64.5"/>
		<path class="st2" d="M192.7,184.2v72.2"/>
		<ellipse class="st3" cx="195.7" cy="186.7" rx="1.5" ry="1.4"/>
		<path class="st2" d="M178.5,188.3c0,0,0,5.5-3.8,6.4c-3.7,0.9-14.7-0.3-14.7-0.3"/>
		<path class="st2" d="M207.1,188.3c0,0,0,5.5,3.8,6.4c3.7,0.9,14.7-0.3,14.7-0.3"/>
		<path class="st2" d="M192.8,220.7c2.8,0,4.1-1.4,4.5-2.1c0,0,0.2-0.4,0.2-1v-27.7"/>
		<path class="st2" d="M192.8,220.7c-0.1,0-0.1,0-0.2,0 M197.5,189.1v0.2"/>
		<path class="st1" d="M180.1,183c0,0-0.6,2.2-0.8,6.9l-3.4-0.3c0,0-0.1-3.3,0.9-6.8C176.8,182.8,179.4,182.5,180.1,183z"/>
		<path class="st1" d="M205.5,183c0,0,0.6,2.2,0.8,6.9l3.4-0.3c0,0,0.1-3.3-0.9-6.8C208.8,182.8,206.2,182.5,205.5,183z"/>
		<path class="st4" d="M149.1,247.5c35.7,8.4,52.4,8.3,87.9,0.2"/>
	</g>
	<polyline class="st5" points="92.6,141.7 93.3,146.2 144.7,146.2 145.6,141.7 	"/>
	<polygon class="st6" points="92.7,98.9 79.9,91.2 79.9,86.9 86.7,67.7 92.6,82 	"/>
	<polyline class="st7" points="92.7,93.8 79.9,86.9 79.9,91.2 92.7,98.9 92.7,93.8 92.7,93.8 	"/>
	<polygon class="st6" points="145.4,98.9 158.3,91.2 158.3,86.9 151.5,67.7 145.6,82 	"/>
	<polyline class="st7" points="145.4,93.8 158.3,86.9 158.3,91.2 145.4,98.9 145.4,93.8 145.4,93.8 	"/>
	<path class="st8" d="M92.6,141.7c0,0,0.4-58.6,0-59.7s-5.9-14.3-5.9-14.3l19.6-6.8c0,5.8,5.1,11.9,12.8,11.9l0,0
		c7.7,0,12.8-6,12.8-11.9l19.6,6.8c0,0-5.5,13.2-5.9,14.3c-0.4,1.1,0,59.7,0,59.7H92.6z"/>
	<path class="st8" d="M128.1,59.6c0,4.9-4.1,9.1-9,9.1l0,0c-4.9,0-9-4.2-9-9.1l0,0C112.3,63.3,125.7,63.3,128.1,59.6L128.1,59.6z"/>
	<path class="st9" d="M158.3,106.2c32.4-3.2,54.6,19.6,53.8,63.5"/>
	<polyline class="st9" points="199.7,157 212.1,169.7 221.7,154.7 	"/>
	<path class="st9" d="M141.5,218.2c-32.4,3.2-54.6-19.6-53.8-63.5"/>
	<polyline class="st9" points="100,167.4 87.6,154.7 78.1,169.7 	"/>
	<ellipse class="st10" cx="158" cy="158" rx="132.2" ry="131.6"/>
	<ellipse class="st11" cx="158" cy="158" rx="136.8" ry="136.2"/>
	<path class="st7" d="M106.3,60.9l3.8-1.3c0,5.6,4.5,9.1,9,9.1c4.5,0,9-3.6,9-9.1l3.8,1.3c-0.3,9.4-9,11.9-12.8,11.9
		C113.7,72.7,106.3,68.1,106.3,60.9z"/>
</g>
</svg>
