<?xml version="1.0" encoding="utf-8"?>
<!-- Generator: Adobe Illustrator 21.1.0, SVG Export Plug-In . SVG Version: 6.00 Build 0)  -->
<svg version="1.1" id="Calque_1" xmlns="http://www.w3.org/2000/svg" xmlns:xlink="http://www.w3.org/1999/xlink" x="0px" y="0px"
	 viewBox="0 0 316 316" style="enable-background:new 0 0 316 316;" xml:space="preserve">
<style type="text/css">
	.st0{fill:#F8F8F8;}
	.st1{fill:none;stroke:#78D6EF;stroke-miterlimit:10;}
	.st2{fill:#7AEDE2;}
	.st3{fill:#FFFFFF;stroke:#1D1D1B;stroke-linejoin:round;stroke-miterlimit:10;}
	.st4{fill:#7AEDE2;stroke:#1D1D1B;stroke-linejoin:round;stroke-miterlimit:10;}
	.st5{fill:none;stroke:#3B2B7A;stroke-miterlimit:10;}
	.st6{fill:none;stroke:#7AEDE2;stroke-miterlimit:10;}
	.st7{fill:#FFFFFF;stroke:#1D1D1B;stroke-linecap:round;stroke-linejoin:round;stroke-miterlimit:10;}
	.st8{fill:none;stroke:#1D1D1B;stroke-linecap:round;stroke-miterlimit:10;}
	.st9{fill:none;stroke:#3B2B7A;stroke-linecap:round;stroke-miterlimit:10;}
	.st10{fill:#FFFFFF;stroke:#1D1D1B;stroke-linecap:round;stroke-miterlimit:10;}
	.st11{fill:#F8F8F8;stroke:#1D1D1B;stroke-linecap:round;stroke-miterlimit:10;}
	.st12{fill:#78D6EF;stroke:#1D1D1B;stroke-linejoin:round;stroke-miterlimit:10;}
	.st13{fill:none;stroke:#1D1D1B;stroke-linejoin:round;stroke-miterlimit:10;}
</style>
<g>
	<ellipse class="st0" cx="158" cy="158" rx="158" ry="157.6"/>
	<ellipse class="st1" cx="158" cy="158" rx="136.8" ry="136.5"/>
	<g>
		
			<rect x="177.4" y="130.7" transform="matrix(0.9921 -0.1258 0.1258 0.9921 -18.6477 27.4046)" class="st2" width="60.7" height="61.3"/>
		<g>
			<g>
				<polygon class="st3" points="151,132.1 254.5,119 275.9,119.4 255.3,125.1 151.8,138.2 				"/>
				<path class="st3" d="M145.9,128.9l4.1-0.5c0.3,0,0.6,0.2,0.7,0.5l1.6,12.5c0,0.3-0.2,0.6-0.5,0.7l-4.1,0.5
					c-0.3,0-0.6-0.2-0.7-0.5l-1.6-12.5C145.3,129.2,145.5,128.9,145.9,128.9z"/>
			</g>
			<path class="st4" d="M174.3,137.8c2,1.7,7.2,5.4,8.7,5.7c2.3,0.4,2.8,4,0,4.4c-2.8,0.4-9.1-4.8-10.5-6.1
				C170.2,139.5,172.4,136.1,174.3,137.8z"/>
			<path class="st4" d="M172.5,145.6c1.7-2,5.4-7.1,5.7-8.7c0.4-2.3,4-2.8,4.4,0c0.4,2.8-4.8,9-6.1,10.5
				C174.3,149.7,170.8,147.6,172.5,145.6z"/>
			<path class="st4" d="M188.1,136c2,1.7,7.2,5.4,8.7,5.7c2.3,0.4,2.8,4,0,4.4c-2.8,0.4-9.1-4.8-10.5-6.1
				C184,137.8,186.1,134.3,188.1,136z"/>
			<path class="st4" d="M186.2,143.9c1.7-2,5.4-7.1,5.7-8.7c0.4-2.3,4-2.8,4.4,0c0.4,2.8-4.8,9-6.1,10.5
				C188,148,184.5,145.9,186.2,143.9z"/>
			<path class="st4" d="M201.8,134.3c2,1.7,7.2,5.4,8.7,5.7c2.3,0.4,2.8,4,0,4.4c-2.8,0.4-9.1-4.8-10.5-6.1
				C197.8,136.1,199.9,132.6,201.8,134.3z"/>
			<path class="st4" d="M200,142.1c1.7-2,5.4-7.1,5.7-8.7c0.4-2.3,4-2.8,4.4,0s-4.8,9-6.1,10.5C201.8,146.2,198.3,144.1,200,142.1z"
				/>
			<path class="st4" d="M215.6,132.5c2,1.7,7.2,5.4,8.7,5.7c2.3,0.4,2.8,4,0,4.4c-2.8,0.4-9.1-4.8-10.5-6.1
				C211.5,134.3,213.6,130.8,215.6,132.5z"/>
			<path class="st4" d="M213.7,140.4c1.7-2,5.4-7.1,5.7-8.7c0.4-2.3,4-2.8,4.4,0c0.4,2.8-4.8,9-6.1,10.5
				C215.5,144.5,212,142.4,213.7,140.4z"/>
			<path class="st4" d="M229.3,130.8c2,1.7,7.2,5.4,8.7,5.7c2.3,0.4,2.8,4,0,4.4c-2.8,0.4-9.1-4.8-10.5-6.1
				C225.3,132.6,227.4,129.1,229.3,130.8z"/>
			<path class="st4" d="M227.5,138.7c1.7-2,5.4-7.1,5.7-8.7c0.4-2.3,4-2.8,4.4,0c0.4,2.8-4.8,9-6.1,10.5
				C229.3,142.7,225.8,140.6,227.5,138.7z"/>
			<path class="st4" d="M175.9,150.2c2,1.7,7.2,5.4,8.7,5.7c2.3,0.4,2.8,4,0,4.4c-2.8,0.4-9.1-4.8-10.5-6.1
				C171.8,152,173.9,148.5,175.9,150.2z"/>
			<path class="st4" d="M174.1,158.1c1.7-2,5.4-7.1,5.7-8.7c0.4-2.3,4-2.8,4.4,0c0.4,2.8-4.8,9-6.1,10.5
				C175.9,162.1,172.4,160,174.1,158.1z"/>
			<path class="st4" d="M189.7,148.4c2,1.7,7.2,5.4,8.7,5.7c2.3,0.4,2.8,4,0,4.4s-9.1-4.8-10.5-6.1
				C185.6,150.2,187.7,146.7,189.7,148.4z"/>
			<path class="st4" d="M187.8,156.3c1.7-2,5.4-7.1,5.7-8.7c0.4-2.3,4-2.8,4.4,0c0.4,2.8-4.8,9-6.1,10.5
				C189.6,160.4,186.1,158.3,187.8,156.3z"/>
			<path class="st4" d="M203.4,146.7c2,1.7,7.2,5.4,8.7,5.7c2.3,0.4,2.8,4,0,4.4c-2.8,0.4-9.1-4.8-10.5-6.1
				C199.3,148.5,201.4,145,203.4,146.7z"/>
			<path class="st4" d="M201.6,154.6c1.7-2,5.4-7.1,5.7-8.7c0.4-2.3,4-2.8,4.4,0s-4.8,9-6.1,10.5
				C203.4,158.7,199.9,156.5,201.6,154.6z"/>
			<path class="st4" d="M217.2,144.9c2,1.7,7.2,5.4,8.7,5.7c2.3,0.4,2.8,4,0,4.4s-9.1-4.8-10.5-6.1
				C213.1,146.7,215.2,143.3,217.2,144.9z"/>
			<path class="st4" d="M215.3,152.8c1.7-2,5.4-7.1,5.7-8.7c0.4-2.3,4-2.8,4.4,0c0.4,2.8-4.8,9-6.1,10.5
				C217.1,156.9,213.6,154.8,215.3,152.8z"/>
			<path class="st4" d="M230.9,143.2c2,1.7,7.2,5.4,8.7,5.7c2.3,0.4,2.8,4,0,4.4c-2.8,0.4-9.1-4.8-10.5-6.1
				C226.8,145,228.9,141.5,230.9,143.2z"/>
			<path class="st4" d="M229.1,151.1c1.7-2,5.4-7.1,5.7-8.7c0.4-2.3,4-2.8,4.4,0s-4.8,9-6.1,10.5
				C230.9,155.2,227.4,153.1,229.1,151.1z"/>
			<path class="st4" d="M177.5,162.6c2,1.7,7.2,5.4,8.7,5.7c2.3,0.4,2.8,4,0,4.4c-2.8,0.4-9.1-4.8-10.5-6.1
				C173.4,164.4,175.5,160.9,177.5,162.6z"/>
			<path class="st4" d="M175.6,170.5c1.7-2,5.4-7.1,5.7-8.7c0.4-2.3,4-2.8,4.4,0c0.4,2.8-4.8,9-6.1,10.5
				C177.4,174.6,174,172.5,175.6,170.5z"/>
			<path class="st4" d="M191.3,160.9c2,1.7,7.2,5.4,8.7,5.7c2.3,0.4,2.8,4,0,4.4c-2.8,0.4-9.1-4.8-10.5-6.1
				C187.2,162.6,189.3,159.2,191.3,160.9z"/>
			<path class="st4" d="M189.4,168.7c1.7-2,5.4-7.1,5.7-8.7c0.4-2.3,4-2.8,4.4,0c0.4,2.8-4.8,9-6.1,10.5
				C191.2,172.8,187.7,170.7,189.4,168.7z"/>
			<path class="st4" d="M205,159.1c2,1.7,7.2,5.4,8.7,5.7c2.3,0.4,2.8,4,0,4.4c-2.8,0.4-9.1-4.8-10.5-6.1
				C200.9,160.9,203,157.4,205,159.1z"/>
			<path class="st4" d="M203.1,167c1.7-2,5.4-7.1,5.7-8.7c0.4-2.3,4-2.8,4.4,0c0.4,2.8-4.8,9-6.1,10.5
				C204.9,171.1,201.5,169,203.1,167z"/>
			<path class="st4" d="M218.8,157.4c2,1.7,7.2,5.4,8.7,5.7c2.3,0.4,2.8,4,0,4.4c-2.8,0.4-9.1-4.8-10.5-6.1
				C214.7,159.2,216.8,155.7,218.8,157.4z"/>
			<path class="st4" d="M216.9,165.3c1.7-2,5.4-7.1,5.7-8.7c0.4-2.3,4-2.8,4.4,0c0.4,2.8-4.8,9-6.1,10.5
				C218.7,169.3,215.2,167.2,216.9,165.3z"/>
			<path class="st4" d="M232.5,155.6c2,1.7,7.2,5.4,8.7,5.7c2.3,0.4,2.8,4,0,4.4c-2.8,0.4-9.1-4.8-10.5-6.1
				C228.4,157.4,230.5,153.9,232.5,155.6z"/>
			<path class="st4" d="M230.7,163.5c1.7-2,5.4-7.1,5.7-8.7c0.4-2.3,4-2.8,4.4,0c0.4,2.8-4.8,9-6.1,10.5
				C232.4,167.6,229,165.5,230.7,163.5z"/>
			<path class="st4" d="M179.1,175c2,1.7,7.2,5.4,8.7,5.7c2.3,0.4,2.8,4,0,4.4s-9.1-4.8-10.5-6.1C175,176.8,177.1,173.3,179.1,175z"
				/>
			<path class="st4" d="M177.2,182.9c1.7-2,5.4-7.1,5.7-8.7c0.4-2.3,4-2.8,4.4,0c0.4,2.8-4.8,9-6.1,10.5
				C179,187,175.5,184.9,177.2,182.9z"/>
			<path class="st4" d="M192.8,173.3c2,1.7,7.2,5.4,8.7,5.7c2.3,0.4,2.8,4,0,4.4c-2.8,0.4-9.1-4.8-10.5-6.1
				C188.7,175.1,190.9,171.6,192.8,173.3z"/>
			<path class="st4" d="M191,181.2c1.7-2,5.4-7.1,5.7-8.7c0.4-2.3,4-2.8,4.4,0c0.4,2.8-4.8,9-6.1,10.5
				C192.8,185.2,189.3,183.1,191,181.2z"/>
			<path class="st4" d="M206.6,171.5c2,1.7,7.2,5.4,8.7,5.7c2.3,0.4,2.8,4,0,4.4s-9.1-4.8-10.5-6.1
				C202.5,173.3,204.6,169.9,206.6,171.5z"/>
			<path class="st4" d="M204.7,179.4c1.7-2,5.4-7.1,5.7-8.7c0.4-2.3,4-2.8,4.4,0c0.4,2.8-4.8,9-6.1,10.5
				C206.5,183.5,203,181.4,204.7,179.4z"/>
			<path class="st4" d="M220.3,169.8c2,1.7,7.2,5.4,8.7,5.7c2.3,0.4,2.8,4,0,4.4c-2.8,0.4-9.1-4.8-10.5-6.1
				C216.2,171.6,218.4,168.1,220.3,169.8z"/>
			<path class="st4" d="M218.5,177.7c1.7-2,5.4-7.1,5.7-8.7c0.4-2.3,4-2.8,4.4,0c0.4,2.8-4.8,9-6.1,10.5
				C220.3,181.8,216.8,179.7,218.5,177.7z"/>
			<path class="st4" d="M234.1,168.1c2,1.7,7.2,5.4,8.7,5.7c2.3,0.4,2.8,4,0,4.4s-9.1-4.8-10.5-6.1
				C230,169.8,232.1,166.4,234.1,168.1z"/>
			<path class="st4" d="M232.2,175.9c1.7-2,5.4-7.1,5.7-8.7c0.4-2.3,4-2.8,4.4,0s-4.8,9-6.1,10.5C234,180,230.5,177.9,232.2,175.9z"
				/>
			<path class="st4" d="M180.7,187.5c2,1.7,7.2,5.4,8.7,5.7c2.3,0.4,2.8,4,0,4.4c-2.8,0.4-9.1-4.8-10.5-6.1
				C176.6,189.2,178.7,185.8,180.7,187.5z"/>
			<path class="st4" d="M178.8,195.3c1.7-2,5.4-7.1,5.7-8.7c0.4-2.3,4-2.8,4.4,0c0.4,2.8-4.8,9-6.1,10.5
				C180.6,199.4,177.1,197.3,178.8,195.3z"/>
			<path class="st4" d="M194.4,185.7c2,1.7,7.2,5.4,8.7,5.7c2.3,0.4,2.8,4,0,4.4c-2.8,0.4-9.1-4.8-10.5-6.1
				C190.3,187.5,192.4,184,194.4,185.7z"/>
			<path class="st4" d="M192.6,193.6c1.7-2,5.4-7.1,5.7-8.7c0.4-2.3,4-2.8,4.4,0c0.4,2.8-4.8,9-6.1,10.5
				C194.4,197.7,190.9,195.6,192.6,193.6z"/>
			<path class="st4" d="M208.2,184c2,1.7,7.2,5.4,8.7,5.7c2.3,0.4,2.8,4,0,4.4c-2.8,0.4-9.1-4.8-10.5-6.1
				C204.1,185.8,206.2,182.3,208.2,184z"/>
			<path class="st4" d="M206.3,191.9c1.7-2,5.4-7.1,5.7-8.7c0.4-2.3,4-2.8,4.4,0c0.4,2.8-4.8,9-6.1,10.5
				C208.1,195.9,204.6,193.8,206.3,191.9z"/>
			<path class="st4" d="M221.9,182.2c2,1.7,7.2,5.4,8.7,5.7c2.3,0.4,2.8,4,0,4.4c-2.8,0.4-9.1-4.8-10.5-6.1
				C217.8,184,219.9,180.5,221.9,182.2z"/>
			<path class="st4" d="M220.1,190.1c1.7-2,5.4-7.1,5.7-8.7c0.4-2.3,4-2.8,4.4,0c0.4,2.8-4.8,9-6.1,10.5
				C221.9,194.2,218.4,192.1,220.1,190.1z"/>
			<path class="st4" d="M235.7,180.5c2,1.7,7.2,5.4,8.7,5.7c2.3,0.4,2.8,4,0,4.4c-2.8,0.4-9.1-4.8-10.5-6.1
				C231.6,182.3,233.7,178.8,235.7,180.5z"/>
			<path class="st4" d="M233.8,188.4c1.7-2,5.4-7.1,5.7-8.7c0.4-2.3,4-2.8,4.4,0s-4.8,9-6.1,10.5
				C235.6,192.4,232.1,190.3,233.8,188.4z"/>
			<path class="st4" d="M170.7,136.3c0.2-1.1,0-4.9-0.9-7.3c-0.9-2.4,3.5-3.6,4.2-0.5c0.6,2.6,1.1,6.2,0.9,7.3
				C174.5,138.3,170.4,138,170.7,136.3z"/>
			<path class="st4" d="M178.5,135.3c0.2-1.1,0-4.9-0.9-7.3c-0.9-2.4,3.5-3.6,4.2-0.5c0.6,2.6,1.1,6.2,0.9,7.3
				C182.3,137.4,178.2,137,178.5,135.3z"/>
			<path class="st4" d="M186.3,134.3c0.2-1.1,0-4.9-0.9-7.3c-0.9-2.4,3.5-3.6,4.2-0.5c0.6,2.6,1.1,6.2,0.9,7.3
				C190.1,136.4,186,136.1,186.3,134.3z"/>
			<path class="st4" d="M194.1,133.4c0.2-1.1,0-4.9-0.9-7.3c-0.9-2.4,3.5-3.6,4.2-0.5c0.6,2.6,1.1,6.2,0.9,7.3
				C197.9,135.4,193.8,135.1,194.1,133.4z"/>
			<path class="st4" d="M201.9,132.4c0.2-1.1,0-4.9-0.9-7.3c-0.9-2.4,3.5-3.6,4.2-0.5c0.6,2.6,1.1,6.2,0.9,7.3
				C205.7,134.4,201.6,134.1,201.9,132.4z"/>
			<path class="st4" d="M209.7,131.4c0.2-1.1,0-4.9-0.9-7.3c-0.9-2.4,3.5-3.6,4.2-0.5c0.6,2.6,1.1,6.2,0.9,7.3
				C213.5,133.4,209.4,133.1,209.7,131.4z"/>
			<path class="st4" d="M217.5,130.4c0.2-1.1,0-4.9-0.9-7.3c-0.9-2.4,3.5-3.6,4.2-0.5c0.6,2.6,1.1,6.2,0.9,7.3
				C221.3,132.4,217.2,132.1,217.5,130.4z"/>
			<path class="st4" d="M225.3,129.4c0.2-1.1,0-4.9-0.9-7.3c-0.9-2.4,3.5-3.6,4.2-0.5c0.6,2.6,1.1,6.2,0.9,7.3
				C229.1,131.4,225,131.1,225.3,129.4z"/>
			<path class="st4" d="M233.1,128.4c0.2-1.1,0-4.9-0.9-7.3c-0.9-2.4,3.5-3.6,4.2-0.5c0.6,2.6,1.1,6.2,0.9,7.3
				C236.9,130.4,232.8,130.1,233.1,128.4z"/>
		</g>
	</g>
	<ellipse class="st5" cx="158" cy="158" rx="132.2" ry="131.9"/>
	<ellipse class="st6" cx="158" cy="158" rx="141.6" ry="141.3"/>
	<g>
		<path class="st7" d="M140.4,87.3c-0.8,3-24.6,86.2-25.5,86c-0.8-0.2,19-84.5,19.8-87.5s2.7-5.1,4.3-4.7
			C140.5,81.6,141.2,84.3,140.4,87.3z"/>
		<line class="st8" x1="138" y1="84.9" x2="135.1" y2="96.2"/>
		<path class="st9" d="M137.4,89.4c13.8,3.5,20.3,27.3,42.8,16.7"/>
		<path class="st9" d="M134.1,88.3c-13.8-5-4.8-29.6-31.8-33.7"/>
	</g>
	<g>
		<path class="st10" d="M148.6,228.4l11.6,0.5c0.4-6,7-11,13.5-10.6c10.7,0.7,16.9,3.7,16.5,9.9c-0.9,13.8-25.8,6.4-30.5,6.1
			c-2.1-0.1-9.5,0.2-11.8,0.4L148.6,228.4z"/>
		<path class="st10" d="M137.2,227.5l-46-2.9c0,0,44.7,11.2,54.5,13.7L137.2,227.5z"/>
		<path class="st11" d="M165,228.7c0.3-4.2,4.8-7.6,9.3-7.3c7.4,0.5,11.7,2.5,11.4,6.8c-0.3,5.2-5.6,6-10.9,5.7
			C170.5,233.6,164.8,232.1,165,228.7z"/>
		<path class="st10" d="M108.9,191.2l42.6,54.5c-4.8,3.7-5.2,12-1.2,17.1c6.6,8.4,12.6,11.9,17.5,8c10.9-8.5-9.2-24.8-12.2-28.6
			c-2-2.5-4.9-6.7-5.1-8.7c-0.3-3.4,1.4-4.3-0.4-5.9S108.9,191.2,108.9,191.2z"/>
		<path class="st11" d="M153.8,249.8c-3.3,2.6-3.6,8.3-0.8,11.8c4.6,5.8,8.7,8.2,12.1,5.5c4.1-3.2,1.8-8-1.4-12.2
			C161,251.5,156.6,247.6,153.8,249.8z"/>
		
			<ellipse transform="matrix(0.9976 -6.899370e-02 6.899370e-02 0.9976 -15.5968 10.6203)" class="st8" cx="145.9" cy="231.1" rx="1.8" ry="1.8"/>
	</g>
	<g>
		<g>
			<path class="st12" d="M90.9,144.4c7-8.7,7.4-24.2-11.5-27.5s-24.1,11.3-20.1,22L56.7,156c-7.5,9-8.1,25.2,10.8,28.5
				s24.4-11.6,19.8-23.1L90.9,144.4c0.3-6.8-2.6-15.2-5.9-19.9"/>
			<path class="st13" d="M68.9,142.3c1-5.9,11.3-19.8,23.1-19.2"/>
			<path class="st13" d="M64.5,141.1c1.2-7,12.1-20.7,22.9-21.6"/>
			<path class="st13" d="M60.7,139.8c1.5-8.8,10-18.9,19.7-22.7"/>
			<path class="st13" d="M58.3,134.9c2.6-9.2,10.3-17,15.5-18.5"/>
			<path class="st13" d="M71.1,137.1c1,2.1,1.9,3,2.3,6.8"/>
			<path class="st13" d="M73.7,133.3c1.3,1.8,4.5,6,3.9,11.4"/>
			<path class="st13" d="M77.3,129.4c1.7,2.8,5.4,8,5.1,15.6"/>
			<path class="st13" d="M80.9,126.6c2.5,3.5,6.2,10.3,5.9,18.5"/>
			<path class="st13" d="M89.1,123.2c2.9,5.3,4.8,10.7,5.2,15.3"/>
			<path class="st13" d="M77.7,161.7c-0.5,2.7-10.9,17.1-22.7,16.5"/>
			<path class="st13" d="M82.1,161.8c-0.8,4.4-11.4,19.2-22.3,20"/>
			<path class="st13" d="M86.4,161.6c-1.5,8.8-10,18.9-19.7,22.7"/>
			<path class="st13" d="M88.7,166.5c-2.6,9.2-10.3,17-15.5,18.5"/>
			<path class="st13" d="M66,165.1c-0.7-1.8-1.2-3.8-1.3-5.9"/>
			<path class="st13" d="M62.2,167.6c-1.2-3-2.1-6.4-2-9.9"/>
			<path class="st13" d="M58.4,170.4c-1.4-3.9-2.4-7.5-2.3-13.4"/>
			<path class="st13" d="M55.1,171.9c-1.4-2.8-1.6-4.1-2.3-9.1"/>
			<path class="st13" d="M73.3,161c-1.4,4.7-8.3,12-19.6,15.4"/>
			<path class="st13" d="M69.1,160.3c-1,3.9-8.5,10.3-17,12.6"/>
		</g>
		<path class="st3" d="M88.1,161.2c-7.3,2.3-25.8-0.9-31.8-5.5l2.9-16.9c6.1,4.6,24.6,7.8,31.8,5.5L88.1,161.2z"/>
	</g>
</g>
</svg>
