<?xml version="1.0" encoding="utf-8"?>
<!-- Generator: Adobe Illustrator 21.1.0, SVG Export Plug-In . SVG Version: 6.00 Build 0)  -->
<svg version="1.1" id="Calque_1" xmlns="http://www.w3.org/2000/svg" xmlns:xlink="http://www.w3.org/1999/xlink" x="0px" y="0px"
	 viewBox="0 0 316 316" style="enable-background:new 0 0 316 316;" xml:space="preserve">
<style type="text/css">
	.st0{fill:#F8F8F8;}
	.st1{fill:none;stroke:#78D6EF;stroke-miterlimit:10;}
	.st2{fill:none;stroke:#3B2B7A;stroke-miterlimit:10;}
	.st3{fill:none;stroke:#7AEDE2;stroke-miterlimit:10;}
	.st4{fill:#FFFFFF;stroke:#000000;stroke-miterlimit:10;}
	.st5{fill:#7AEDE2;stroke:#000000;stroke-miterlimit:10;}
	.st6{fill:#FFFFFF;stroke:#000000;stroke-linecap:round;stroke-miterlimit:10;}
</style>
<g>
	<ellipse class="st0" cx="158" cy="158" rx="158" ry="157.6"/>
	<ellipse class="st1" cx="158" cy="158" rx="136.8" ry="136.5"/>
	<ellipse class="st2" cx="158" cy="158" rx="132.2" ry="131.9"/>
	<ellipse class="st3" cx="158" cy="158" rx="141.6" ry="141.3"/>
	<path class="st4" d="M193.8,107.3c-9-9-15.3-14.6-18.5-18c-1-1.1-16.6,5.7-16.6,5.7"/>
	<path class="st4" d="M165.7,141.7c-22.5,0.4-25.8-3.7-30.5-15.8l28.4-7.2L165.7,141.7z"/>
	<path class="st5" d="M98.2,131.2c-4.7,0.5-7,3.6-8.6,8.6c-1.6-5-3.9-8.1-8.6-8.6c-8-0.8-12.2,7.6-5.7,17.2
		c3.5,5.1,9.9,11.7,14.3,15.6c4.5-3.9,10.8-10.4,14.3-15.6C110.4,138.8,106.2,130.4,98.2,131.2z"/>
	<path class="st6" d="M177.7,114.9c-13.9-3.8-31-9.2-37.4-9.2c-5.6,0-25.6,0.2-29.2,1.6c-3.6,1.3-25.9,12.1-28.8,13.5
		c-2.9,1.4,5,9,12.2,8.8c7.2-0.2,27.7-5.3,29.5-5.6c1.8-0.3,33.4,6.5,34.3,7.4c0.9,0.9,10.6,13.1,12.7,18.3
		c5.3,13.1-7.4,16.8-14.5,15.3c0,0-17.9-15.5-37-15.5s-29.6,18.3-22.9,18.3c7,0,17.6,0.2,21.6,1.3c6.4,1.8,17.6,15.3,21.3,18.8
		c3.8,3.7,38.7,21.5,41.3,25.7c2.2,3.6,11.9,19.4,15.4,24.2c9.4,12.9,62-15.8,53.6-28.8c-5.3-8.2-15.5-22.5-17.6-25.2
		c-2.2-2.6-28.8-70-29.5-72.4c-0.7-2.4-48.2-18-51.8-19.2c-3.6-1.2-5.5,3.1-13.8,13.5"/>
</g>
</svg>
