<?xml version="1.0" encoding="utf-8"?>
<!-- Generator: Adobe Illustrator 21.1.0, SVG Export Plug-In . SVG Version: 6.00 Build 0)  -->
<svg version="1.1" id="Calque_1" xmlns="http://www.w3.org/2000/svg" xmlns:xlink="http://www.w3.org/1999/xlink" x="0px" y="0px"
	 viewBox="0 0 316 316" style="enable-background:new 0 0 316 316;" xml:space="preserve">
<style type="text/css">
	.st0{fill:#F8F8F8;}
	.st1{fill:none;stroke:#78D6EF;stroke-miterlimit:10;}
	.st2{fill:none;stroke:#3B2B7A;stroke-miterlimit:10;}
	.st3{fill:none;stroke:#7AEDE2;stroke-miterlimit:10;}
	.st4{fill:#78D6EF;stroke:#1D1D1B;stroke-miterlimit:10;}
	.st5{fill:#FFFFFF;}
	.st6{fill:none;stroke:#1D1D1B;stroke-miterlimit:10;}
	.st7{fill:#FFFFFF;stroke:#000000;stroke-linejoin:round;stroke-miterlimit:10;}
	.st8{fill:#F8F8F8;stroke:#000000;stroke-miterlimit:10;}
	.st9{fill:none;stroke:#000000;stroke-linejoin:round;stroke-miterlimit:10;}
	.st10{fill:none;}
	.st11{font-family:'TGL0-17';}
	.st12{font-size:13.6132px;}
	.st13{fill:#7AEDE2;}
</style>
<g>
	<ellipse class="st0" cx="158" cy="158" rx="158" ry="157.6"/>
	<g>
		<ellipse class="st1" cx="158" cy="158" rx="136.8" ry="136.5"/>
		<ellipse class="st2" cx="158" cy="158" rx="132.2" ry="131.9"/>
		<ellipse class="st3" cx="158" cy="158" rx="141.6" ry="141.3"/>
		<g>
			<g>
				<g>
					<path class="st4" d="M96.7,70.6c8.7,0,16.9-1.3,16.9-1.3s4.5,7.3,6.5,22.5c0,0,0.6,17.2-2.7,87.6c0,0-5.8,2.5-12.5,0.5
						l-8.2-77.3L87,179.2c-6.8,2-12.5-0.5-12.5-0.5c-3.3-70.3-1.5-85.8-1.5-85.8c2.2-15.3,6.6-23.6,6.6-23.6S87.9,70.6,96.7,70.6"/>
					<path class="st5" d="M80.4,64.3l-0.7,5c0,0,5.5,1.3,16.9,1.3s16.9-1.3,16.9-1.3l-0.8-5c0,0-9.1,1.2-16,1.2
						C89.8,65.5,80.4,64.3,80.4,64.3"/>
					<path class="st4" d="M80.4,64.3c0,0,9.4,1.2,16.3,1.2c6.9,0,16-1.2,16-1.2l0.8,5c0,0-5.5,1.3-16.9,1.3s-16.9-1.3-16.9-1.3
						L80.4,64.3z"/>
					<g>
						<defs>
							<rect id="SVGID_1_" x="114.2" y="72.1" width="0" height="0"/>
						</defs>
						<clipPath id="SVGID_2_">
							<use xlink:href="#SVGID_1_"  style="overflow:visible;"/>
						</clipPath>
					</g>
					<g>
						<defs>
							<rect id="SVGID_3_" x="79.3" y="72.1" width="0" height="0"/>
						</defs>
						<clipPath id="SVGID_4_">
							<use xlink:href="#SVGID_3_"  style="overflow:visible;"/>
						</clipPath>
					</g>
					<polyline class="st6" points="96.4,104.4 97.1,99.6 96.7,70.7 96.7,65.5 					"/>
					<path class="st6" d="M93.9,70.4v17c0,0,0.6,2.3,3.2,2.5"/>
					<path class="st6" d="M84.4,70c0,0-1.7,11.2-9.2,11.6"/>
					<path class="st6" d="M109,70c0,0,1,10.6,8.8,10.8"/>
					<g>
						<path class="st6" d="M87.9,70.4c0,0-0.2-4.3,0.1-5.4"/>
						<path class="st6" d="M105.3,70.4c0,0,0.2-4.3-0.1-5.4"/>
					</g>
				</g>
			</g>
			<g>
				<polygon class="st7" points="194.7,137.9 124.7,103.5 142.5,67.3 212.6,101.6 				"/>
				<path d="M153.4,92.2c0,0.1-0.1,0.2-0.2,0.2c-0.1,0.1-0.1,0.1-0.2,0.1c-0.1,0-0.2,0-0.3,0c-0.1,0-0.2,0-0.3-0.1
					c-0.1,0-0.2-0.1-0.2-0.2c-0.1-0.1-0.1-0.1-0.1-0.2s0-0.2,0-0.3c0-0.1,0-0.2,0.1-0.3l3.7-7.4c0-0.1,0.1-0.2,0.2-0.2
					s0.1-0.1,0.2-0.1c0.1,0,0.2,0,0.3,0s0.2,0,0.3,0.1c0.1,0.1,0.2,0.2,0.3,0.3c0.1,0.1,0.1,0.3,0.1,0.4l0,6.3l5.1-3.8
					c0.1-0.1,0.2-0.1,0.3-0.1c0.1,0,0.3,0,0.4,0.1c0.1,0,0.1,0.1,0.2,0.2c0.1,0.1,0.1,0.1,0.1,0.2c0,0.1,0,0.2,0,0.3
					c0,0.1,0,0.2-0.1,0.3l-3.7,7.4c0,0.1-0.1,0.2-0.2,0.2s-0.1,0.1-0.2,0.1c-0.1,0-0.2,0-0.3,0c-0.1,0-0.2,0-0.3-0.1
					c-0.1,0-0.2-0.1-0.2-0.2c-0.1-0.1-0.1-0.1-0.1-0.2c0-0.1,0-0.2,0-0.3c0-0.1,0-0.2,0.1-0.3l2.4-4.8l-3.8,2.9
					c-0.1,0.1-0.2,0.1-0.4,0.1c-0.1,0-0.3,0-0.4-0.1c-0.1-0.1-0.2-0.2-0.3-0.3c-0.1-0.1-0.1-0.2-0.1-0.3l0-4.8L153.4,92.2z"/>
				<path d="M162,96.7c-0.1,0.1-0.2,0.2-0.4,0.2c-0.1,0-0.3,0-0.4-0.1c-0.1,0-0.2-0.1-0.2-0.2c-0.1-0.1-0.1-0.1-0.1-0.2
					c0-0.1,0-0.2,0-0.3s0-0.2,0.1-0.3c0-0.1,0.1-0.1,0.1-0.2l6.1-6.2c0.1-0.1,0.2-0.2,0.4-0.2c0.1,0,0.3,0,0.4,0.1
					c0.1,0.1,0.2,0.2,0.3,0.3c0.1,0.1,0.1,0.3,0.1,0.4l-1.2,8.6c0,0,0,0.1,0,0.1c0,0,0,0.1,0,0.1c0,0.1-0.1,0.2-0.2,0.2
					c-0.1,0.1-0.1,0.1-0.2,0.1s-0.2,0-0.3,0c-0.1,0-0.2,0-0.3-0.1c-0.1-0.1-0.2-0.2-0.3-0.3c-0.1-0.1-0.1-0.3-0.1-0.4l0.2-1.7
					l-2.8-1.4L162,96.7z M166.2,95.4l0.5-3.5l-2.5,2.5L166.2,95.4z"/>
				<path d="M174.5,101.4c-0.5,0.4-1.1,0.6-1.6,0.7c-0.6,0-1.2-0.1-1.8-0.4l-1.2-0.6l-1.2-0.6c0,0,0,0,0,0c0,0,0,0,0,0l0,0
					c-0.1,0-0.2-0.1-0.2-0.2c-0.1-0.1-0.1-0.1-0.1-0.2c0-0.1,0-0.2,0-0.3c0-0.1,0-0.2,0.1-0.3l3.7-7.4c0-0.1,0.1-0.2,0.2-0.2
					s0.1-0.1,0.2-0.1c0.1,0,0.2,0,0.3,0c0.1,0,0.2,0,0.3,0.1l2.5,1.2c0.5,0.3,0.9,0.6,1.2,0.9c0.3,0.4,0.5,0.8,0.6,1.3
					c0.1,0.5,0.1,1-0.1,1.6c-0.1,0.6-0.4,1.3-0.8,2c-0.3,0.6-0.6,1.1-0.9,1.5C175.1,100.8,174.8,101.1,174.5,101.4z M171.7,100.4
					c0.3,0.2,0.7,0.3,1,0.3c0.3,0,0.6-0.1,0.8-0.3c0.3-0.2,0.5-0.4,0.8-0.8c0.3-0.4,0.5-0.8,0.8-1.4c0.2-0.4,0.4-0.9,0.5-1.2
					c0.1-0.4,0.2-0.8,0.2-1.1c0-0.3-0.1-0.7-0.2-0.9c-0.2-0.3-0.4-0.5-0.8-0.7l-1.9-0.9l-3,6.2l0.9,0.5L171.7,100.4z"/>
				<path d="M185.2,97.8c0.1,0,0.2,0.1,0.2,0.2c0.1,0.1,0.1,0.1,0.1,0.2c0,0.1,0,0.2,0,0.3c0,0.1,0,0.2-0.1,0.3
					c0,0.1-0.1,0.1-0.2,0.2c-0.1,0.1-0.1,0.1-0.2,0.1c-0.1,0-0.2,0-0.3,0c-0.1,0-0.2,0-0.3-0.1l-4.3-2.1l-1.2,2.5l3.1,1.5
					c0.1,0,0.1,0.1,0.2,0.2s0.1,0.1,0.1,0.2c0,0.1,0,0.2,0,0.3c0,0.1,0,0.2-0.1,0.3c0,0.1-0.1,0.2-0.2,0.2c-0.1,0.1-0.2,0.1-0.2,0.1
					c-0.1,0-0.2,0-0.3,0c-0.1,0-0.2,0-0.2-0.1l-3.1-1.5l-1.2,2.5l4.3,2.1c0.1,0,0.2,0.1,0.2,0.2c0.1,0.1,0.1,0.1,0.1,0.2
					c0,0.1,0,0.2,0,0.3c0,0.1,0,0.2-0.1,0.3c0,0.1-0.1,0.2-0.2,0.2s-0.1,0.1-0.2,0.1s-0.2,0-0.3,0c-0.1,0-0.2,0-0.3-0.1l-5-2.4
					c-0.1,0-0.2-0.1-0.2-0.2c-0.1-0.1-0.1-0.1-0.1-0.2c0-0.1,0-0.2,0-0.3s0-0.2,0.1-0.3l3.7-7.4c0-0.1,0.1-0.2,0.2-0.2
					s0.1-0.1,0.2-0.1c0.1,0,0.2,0,0.3,0s0.2,0,0.3,0.1L185.2,97.8z"/>
				<path d="M190.5,101.2c0-0.1,0.1-0.2,0.2-0.2c0.1-0.1,0.1-0.1,0.2-0.1c0.1,0,0.2,0,0.3,0c0.1,0,0.2,0,0.3,0.1
					c0.1,0,0.2,0.1,0.2,0.2c0.1,0.1,0.1,0.1,0.1,0.2c0,0.1,0,0.2,0,0.3c0,0.1,0,0.2-0.1,0.3l-3.7,7.4c0,0.1-0.1,0.2-0.2,0.2
					s-0.1,0.1-0.2,0.1c-0.1,0-0.2,0-0.3,0c-0.1,0-0.2,0-0.3-0.1c-0.1,0-0.2-0.1-0.2-0.2c-0.1-0.1-0.1-0.1-0.1-0.2c0-0.1,0-0.2,0-0.3
					c0-0.1,0-0.2,0.1-0.3L190.5,101.2z"/>
				<path d="M190.5,110.4c0,0.1-0.1,0.2-0.2,0.2s-0.1,0.1-0.2,0.1c-0.1,0-0.2,0-0.3,0c-0.1,0-0.2,0-0.3-0.1c-0.1,0-0.2-0.1-0.2-0.2
					c-0.1-0.1-0.1-0.1-0.1-0.2c0-0.1,0-0.2,0-0.3c0-0.1,0-0.2,0.1-0.3l3.7-7.4c0-0.1,0.1-0.2,0.2-0.2c0.1-0.1,0.1-0.1,0.2-0.1
					c0.1,0,0.2,0,0.3,0c0.1,0,0.2,0,0.3,0.1c0.1,0.1,0.2,0.1,0.3,0.2c0.1,0.1,0.1,0.2,0.1,0.3l1,7.6l2.6-5.4c0-0.1,0.1-0.2,0.2-0.2
					c0.1-0.1,0.1-0.1,0.2-0.1c0.1,0,0.2,0,0.3,0c0.1,0,0.2,0,0.3,0.1c0.1,0,0.2,0.1,0.2,0.2c0.1,0.1,0.1,0.1,0.1,0.2
					c0,0.1,0,0.2,0,0.3c0,0.1,0,0.2-0.1,0.3l-3.7,7.4c0,0.1-0.1,0.1-0.1,0.2c-0.1,0.1-0.1,0.1-0.2,0.1c-0.1,0-0.2,0.1-0.3,0
					c-0.1,0-0.2,0-0.3-0.1c-0.1-0.1-0.2-0.1-0.3-0.2c-0.1-0.1-0.1-0.2-0.1-0.3l-1-7.6l-1.3,2.7L190.5,110.4z"/>
				<path d="M155.9,98.6c0.1,0,0.2,0.1,0.2,0.2c0.1,0.1,0.1,0.1,0.1,0.2c0,0.1,0,0.2,0,0.3c0,0.1,0,0.2-0.1,0.3
					c0,0.1-0.1,0.1-0.2,0.2s-0.1,0.1-0.2,0.1s-0.2,0-0.3,0c-0.1,0-0.2,0-0.3-0.1l-4.3-2.1l-1.2,2.5l3.1,1.5c0.1,0,0.1,0.1,0.2,0.2
					c0.1,0.1,0.1,0.1,0.1,0.2c0,0.1,0,0.2,0,0.3c0,0.1,0,0.2-0.1,0.3c0,0.1-0.1,0.2-0.2,0.2c-0.1,0.1-0.2,0.1-0.2,0.1
					c-0.1,0-0.2,0-0.3,0c-0.1,0-0.2,0-0.2-0.1l-3.1-1.5l-1.5,3.1c0,0.1-0.1,0.2-0.2,0.2c-0.1,0.1-0.1,0.1-0.2,0.1
					c-0.1,0-0.2,0-0.3,0c-0.1,0-0.2,0-0.3-0.1c-0.1,0-0.2-0.1-0.2-0.2c-0.1-0.1-0.1-0.1-0.1-0.2c0-0.1,0-0.2,0-0.3
					c0-0.1,0-0.2,0.1-0.3l3.7-7.4c0-0.1,0.1-0.2,0.2-0.2c0.1-0.1,0.1-0.1,0.2-0.1c0.1,0,0.2,0,0.3,0s0.2,0,0.3,0.1l2.5,1.2
					L155.9,98.6z"/>
				<path d="M159.8,106.5l0.2,3.7c0,0.1,0,0.2-0.1,0.3c0,0.1-0.1,0.2-0.2,0.2c-0.1,0.1-0.1,0.1-0.2,0.1c-0.1,0-0.2,0-0.3,0
					c-0.1,0-0.2,0-0.3-0.1c-0.1-0.1-0.2-0.1-0.3-0.2c-0.1-0.1-0.1-0.2-0.1-0.3l-0.2-4.3l-1.9-0.9l-1.5,3.1c0,0.1-0.1,0.2-0.2,0.2
					c-0.1,0.1-0.1,0.1-0.2,0.1c-0.1,0-0.2,0-0.3,0c-0.1,0-0.2,0-0.3-0.1c-0.1,0-0.2-0.1-0.2-0.2c-0.1-0.1-0.1-0.1-0.1-0.2
					c0-0.1,0-0.2,0-0.3c0-0.1,0-0.2,0.1-0.3l1.8-3.7l1.8-3.7c0-0.1,0.1-0.2,0.2-0.2c0.1-0.1,0.1-0.1,0.2-0.1c0.1,0,0.2,0,0.3,0
					s0.2,0,0.3,0.1l3.1,1.5c0.3,0.2,0.6,0.4,0.9,0.7c0.2,0.3,0.4,0.6,0.5,0.9c0.1,0.3,0.2,0.7,0.1,1.1c0,0.4-0.1,0.7-0.3,1
					c-0.1,0.2-0.3,0.5-0.5,0.7c-0.2,0.2-0.4,0.4-0.6,0.5s-0.5,0.2-0.7,0.3c-0.3,0.1-0.5,0.1-0.8,0.1
					C160,106.5,159.9,106.5,159.8,106.5C159.8,106.5,159.8,106.5,159.8,106.5z M157.1,103.8l2.5,1.2c0.1,0,0.2,0.1,0.4,0.1
					c0.2,0,0.3,0,0.5,0c0.2,0,0.4-0.1,0.5-0.2c0.2-0.1,0.3-0.3,0.4-0.5c0.1-0.1,0.1-0.3,0.1-0.5c0-0.2,0-0.3,0-0.5
					c0-0.2-0.1-0.3-0.2-0.5c-0.1-0.2-0.3-0.3-0.5-0.4l-2.5-1.2l-0.6,1.2L157.1,103.8z"/>
				<path d="M162.3,112c-0.1,0.1-0.2,0.2-0.4,0.2c-0.1,0-0.3,0-0.4-0.1c-0.1,0-0.2-0.1-0.2-0.2c-0.1-0.1-0.1-0.1-0.1-0.2
					c0-0.1,0-0.2,0-0.3c0-0.1,0-0.2,0.1-0.3c0-0.1,0.1-0.1,0.1-0.2l6.1-6.2c0.1-0.1,0.2-0.2,0.4-0.2c0.1,0,0.3,0,0.4,0.1
					c0.1,0.1,0.2,0.2,0.3,0.3c0.1,0.1,0.1,0.3,0.1,0.4l-1.2,8.6c0,0,0,0.1,0,0.1c0,0,0,0.1,0,0.1c0,0.1-0.1,0.2-0.2,0.2
					c-0.1,0.1-0.1,0.1-0.2,0.1c-0.1,0-0.2,0-0.3,0s-0.2,0-0.3-0.1c-0.1-0.1-0.2-0.2-0.3-0.3c-0.1-0.1-0.1-0.3-0.1-0.4l0.2-1.7
					l-2.8-1.4L162.3,112z M166.5,110.7l0.5-3.5l-2.5,2.5L166.5,110.7z"/>
				<path d="M169.8,115.5c0,0.1-0.1,0.2-0.2,0.2c-0.1,0.1-0.1,0.1-0.2,0.1c-0.1,0-0.2,0-0.3,0c-0.1,0-0.2,0-0.3-0.1
					c-0.1,0-0.2-0.1-0.2-0.2c-0.1-0.1-0.1-0.1-0.1-0.2c0-0.1,0-0.2,0-0.3c0-0.1,0-0.2,0.1-0.3l3.7-7.4c0-0.1,0.1-0.2,0.2-0.2
					c0.1-0.1,0.1-0.1,0.2-0.1c0.1,0,0.2,0,0.3,0s0.2,0,0.3,0.1c0.1,0.1,0.2,0.1,0.3,0.2c0.1,0.1,0.1,0.2,0.1,0.3l1,7.6l2.6-5.4
					c0-0.1,0.1-0.2,0.2-0.2c0.1-0.1,0.1-0.1,0.2-0.1c0.1,0,0.2,0,0.3,0c0.1,0,0.2,0,0.3,0.1c0.1,0,0.2,0.1,0.2,0.2
					c0.1,0.1,0.1,0.1,0.1,0.2c0,0.1,0,0.2,0,0.3c0,0.1,0,0.2-0.1,0.3l-3.7,7.4c0,0.1-0.1,0.1-0.1,0.2c-0.1,0.1-0.1,0.1-0.2,0.1
					c-0.1,0-0.2,0.1-0.3,0c-0.1,0-0.2,0-0.3-0.1c-0.1-0.1-0.2-0.1-0.3-0.2c-0.1-0.1-0.1-0.2-0.1-0.3l-1-7.6l-1.3,2.7L169.8,115.5z"
					/>
				<path d="M181.5,119.2c0.1-0.1,0.2-0.1,0.3-0.1s0.2,0,0.4,0.1c0.1,0,0.2,0.1,0.2,0.2c0.1,0.1,0.1,0.2,0.1,0.2c0,0.1,0,0.2,0,0.3
					c0,0.1,0,0.2-0.1,0.2c0,0.1-0.1,0.2-0.2,0.2c-0.1,0.1-0.2,0.1-0.3,0.2c-0.1,0.1-0.2,0.1-0.3,0.1c-0.1,0-0.2,0.1-0.3,0.1
					c-0.9,0.3-1.8,0.3-2.6-0.2c-0.4-0.2-0.8-0.4-1.1-0.7c-0.3-0.3-0.5-0.6-0.6-1c-0.1-0.4-0.2-0.8-0.2-1.2c0-0.5,0.1-0.9,0.3-1.5
					c0.1-0.3,0.2-0.5,0.3-0.7c0.1-0.2,0.2-0.5,0.3-0.7c0.2-0.4,0.4-0.8,0.6-1.1c0.2-0.3,0.5-0.7,0.7-0.9c0.3-0.3,0.5-0.5,0.8-0.7
					c0.3-0.2,0.6-0.3,0.9-0.4c0.3-0.1,0.7-0.1,1,0c0.4,0,0.8,0.2,1.2,0.4c0.3,0.1,0.5,0.3,0.8,0.5c0.2,0.2,0.4,0.4,0.6,0.7
					c0.2,0.2,0.3,0.5,0.4,0.8c0.1,0.3,0.1,0.5,0.2,0.8c0,0.1,0,0.3-0.1,0.4c0,0.1-0.1,0.2-0.2,0.2c-0.1,0.1-0.2,0.1-0.2,0.1
					c-0.1,0-0.2,0-0.3,0s-0.2,0-0.3-0.1c-0.1-0.1-0.2-0.1-0.2-0.2s-0.1-0.2-0.1-0.3c0-0.1,0-0.2-0.1-0.3c0-0.1,0-0.2-0.1-0.3
					c-0.1-0.3-0.2-0.5-0.4-0.7c-0.2-0.2-0.4-0.4-0.6-0.5c-0.4-0.2-0.7-0.3-1-0.3c-0.3,0-0.6,0.1-0.9,0.3c-0.3,0.2-0.5,0.5-0.8,0.8
					c-0.2,0.4-0.5,0.8-0.7,1.3c-0.3,0.6-0.5,1.1-0.6,1.5c-0.1,0.4-0.2,0.8-0.2,1.1c0,0.3,0.1,0.6,0.3,0.8c0.2,0.2,0.4,0.4,0.8,0.6
					c0.2,0.1,0.4,0.1,0.6,0.2c0.2,0,0.4,0,0.6,0c0.2,0,0.4-0.1,0.5-0.1C181.2,119.4,181.3,119.3,181.5,119.2z"/>
				<path d="M192.6,116.6c0.1,0,0.2,0.1,0.2,0.2c0.1,0.1,0.1,0.1,0.1,0.2c0,0.1,0,0.2,0,0.3c0,0.1,0,0.2-0.1,0.3
					c0,0.1-0.1,0.1-0.2,0.2c-0.1,0.1-0.1,0.1-0.2,0.1c-0.1,0-0.2,0-0.3,0c-0.1,0-0.2,0-0.3-0.1l-4.3-2.1l-1.2,2.5l3.1,1.5
					c0.1,0,0.1,0.1,0.2,0.2c0.1,0.1,0.1,0.1,0.1,0.2c0,0.1,0,0.2,0,0.3c0,0.1,0,0.2-0.1,0.3c0,0.1-0.1,0.2-0.2,0.2
					c-0.1,0.1-0.2,0.1-0.2,0.1c-0.1,0-0.2,0-0.3,0c-0.1,0-0.2,0-0.2-0.1l-3.1-1.5l-1.2,2.5l4.3,2.1c0.1,0,0.2,0.1,0.2,0.2
					c0.1,0.1,0.1,0.1,0.1,0.2c0,0.1,0,0.2,0,0.3c0,0.1,0,0.2-0.1,0.3s-0.1,0.2-0.2,0.2c-0.1,0.1-0.1,0.1-0.2,0.1c-0.1,0-0.2,0-0.3,0
					c-0.1,0-0.2,0-0.3-0.1l-5-2.4c-0.1,0-0.2-0.1-0.2-0.2c-0.1-0.1-0.1-0.1-0.1-0.2c0-0.1,0-0.2,0-0.3c0-0.1,0-0.2,0.1-0.3l3.7-7.4
					c0-0.1,0.1-0.2,0.2-0.2c0.1-0.1,0.1-0.1,0.2-0.1c0.1,0,0.2,0,0.3,0c0.1,0,0.2,0,0.3,0.1L192.6,116.6z"/>
				<ellipse class="st8" cx="140.8" cy="88.5" rx="3.4" ry="3.4"/>
				<path class="st9" d="M135.1,82.4c-6.4-6.3-19.2-13.7-21.9-15.3"/>
				<path class="st9" d="M113.6,69.3c2.9,8.4,17,19.2,24.9,19.9c1.6,0.1,2-1-0.1-3.2"/>
			</g>
		</g>
		<g>
			<rect x="124.3" y="204.5" class="st7" width="51.2" height="56.4"/>
			<rect x="124.3" y="221" class="st10" width="51.2" height="23.4"/>
			<text transform="matrix(1.0022 0 0 1 134.6665 230.6259)"><tspan x="0" y="0" class="st11 st12">100%</tspan><tspan x="6" y="13.6" class="st11 st12">LIN</tspan></text>
		</g>
		<g>
			<path class="st13" d="M157.4,179.5c0,0-0.1,0.1-0.2,0.1c-0.1,0-0.2,0.1-0.3,0.1c-0.1,0-0.3,0-0.5,0c-0.2,0-0.4,0-0.6,0
				c-0.4-0.1-0.8-0.2-1-0.3c-0.3-0.2-0.5-0.4-0.7-0.7c-0.1-0.3-0.3-0.6-0.3-0.9c-0.1-0.3,0-0.7,0-1.1c0.1-0.4,0.1-0.7,0.3-1.1
				c0.2-0.3,0.3-0.6,0.6-0.8c0.2-0.2,0.5-0.4,0.8-0.4c0.3-0.1,0.7-0.1,1.1-0.1c0.2,0,0.4,0.1,0.5,0.1c0.1,0.1,0.3,0.1,0.4,0.2
				c0.1,0.1,0.2,0.1,0.3,0.2c0.1,0,0.1,0.1,0.2,0.2s0.1,0.1,0.1,0.2c0,0.1,0,0.1,0,0.2c0,0.1-0.1,0.2-0.2,0.3
				c-0.1,0.1-0.2,0.2-0.3,0.3c-0.1-0.1-0.1-0.1-0.2-0.2c-0.1-0.1-0.1-0.1-0.2-0.2c-0.1-0.1-0.2-0.1-0.3-0.2c-0.1,0-0.2,0-0.4-0.1
				c-0.3,0-0.5,0-0.7,0.1c-0.2,0.1-0.4,0.2-0.5,0.3c-0.1,0.2-0.2,0.3-0.3,0.6c-0.1,0.2-0.1,0.4-0.1,0.7c0,0.3,0,0.5,0,0.7
				c0,0.2,0.1,0.4,0.2,0.6c0.1,0.2,0.2,0.3,0.4,0.5c0.2,0.1,0.4,0.2,0.7,0.2c0.1,0,0.3,0,0.4,0c0.1,0,0.2,0,0.4-0.1
				c0.1,0,0.2-0.1,0.3-0.1c0.1-0.1,0.1-0.1,0.2-0.1c0,0,0.1,0.1,0.1,0.2c0,0,0.1,0.1,0.1,0.2c0,0.1,0.1,0.1,0.1,0.2
				c0,0.1,0,0.1,0,0.2c0,0.1,0,0.1-0.1,0.2C157.5,179.4,157.4,179.4,157.4,179.5z"/>
			<path class="st13" d="M164,178.1c-0.1,0.4-0.1,0.7-0.3,1c-0.1,0.3-0.3,0.6-0.5,0.8s-0.5,0.4-0.8,0.5c-0.3,0.1-0.7,0.1-1.1,0.1
				c-0.4-0.1-0.8-0.2-1-0.4s-0.5-0.4-0.6-0.7c-0.1-0.3-0.2-0.6-0.3-0.9c0-0.3,0-0.7,0-1c0.1-0.4,0.1-0.7,0.3-1s0.3-0.6,0.6-0.8
				c0.2-0.2,0.5-0.4,0.8-0.5c0.3-0.1,0.7-0.1,1.1-0.1c0.4,0.1,0.8,0.2,1,0.4c0.3,0.2,0.5,0.4,0.6,0.6c0.1,0.3,0.3,0.6,0.3,0.9
				C164,177.4,164,177.7,164,178.1z M162.9,178c0-0.3,0-0.5,0-0.7c0-0.2-0.1-0.4-0.1-0.6c-0.1-0.2-0.2-0.3-0.3-0.5s-0.3-0.2-0.6-0.2
				c-0.2,0-0.4,0-0.6,0.1c-0.2,0.1-0.3,0.2-0.5,0.3s-0.2,0.3-0.3,0.6c-0.1,0.2-0.1,0.4-0.2,0.7s0,0.5,0,0.7c0,0.2,0,0.5,0.1,0.6
				c0.1,0.2,0.2,0.4,0.3,0.5c0.1,0.1,0.3,0.2,0.6,0.2c0.2,0,0.4,0,0.6-0.1c0.2-0.1,0.3-0.2,0.4-0.3c0.1-0.2,0.2-0.3,0.3-0.6
				C162.8,178.4,162.9,178.2,162.9,178z"/>
			<path class="st13" d="M169.6,181.6l-0.9-0.1l-1.7-3.7l-0.5,3.4l-1-0.1l0.7-5.1c0,0,0.1,0,0.2,0c0.1,0,0.2,0,0.3,0
				c0.1,0,0.3,0.1,0.4,0.1c0.1,0.1,0.2,0.2,0.2,0.3l1.5,3.5l0.5-3.5c0.1,0,0.2,0,0.2,0c0.1,0,0.1,0,0.1,0c0.1,0,0.1,0,0.2,0.1
				c0.1,0,0.1,0.1,0.2,0.1s0.1,0.1,0.1,0.2c0,0.1,0,0.2,0,0.3L169.6,181.6L169.6,181.6z"/>
			<path class="st13" d="M173.1,178.9l1.6,0.2l-0.1,0.8l-1.6-0.2l-0.3,2.3l-1.1-0.2l0.8-5.2l3.2,0.5c0,0.1,0,0.1,0,0.2
				c0,0,0,0.1,0,0.1c0,0.1-0.1,0.3-0.2,0.3c-0.1,0.1-0.3,0.1-0.5,0.1l-1.6-0.2L173.1,178.9z"/>
			<path class="st13" d="M177.3,177.4c0.1,0,0.2,0,0.2,0c0.1,0,0.1,0,0.1,0c0.1,0,0.1,0,0.2,0.1c0.1,0,0.1,0.1,0.2,0.1
				c0.1,0,0.1,0.1,0.2,0.2c0,0.1,0,0.2,0,0.3l-0.7,4.6l-1.1-0.2L177.3,177.4z"/>
			<path class="st13" d="M184.1,181c-0.1,0.4-0.1,0.7-0.3,1c-0.2,0.3-0.3,0.6-0.6,0.8c-0.2,0.2-0.5,0.4-0.9,0.5
				c-0.3,0.1-0.7,0.1-1.1,0.1l-1.6-0.2l0.7-5.1c0.3,0,0.6,0,0.9,0c0.2,0,0.4,0.1,0.6,0.1c0.5,0.1,0.9,0.2,1.3,0.4s0.6,0.4,0.7,0.7
				c0.2,0.3,0.3,0.6,0.3,0.9C184.1,180.3,184.1,180.6,184.1,181z M183,180.8c0-0.3,0-0.5,0-0.7s-0.1-0.4-0.2-0.6
				c-0.1-0.2-0.2-0.3-0.4-0.4c-0.2-0.1-0.4-0.2-0.7-0.3c-0.1,0-0.3,0-0.5,0l-0.5,3.5l0.4,0.1c0.3,0,0.6,0,0.8,0
				c0.2,0,0.4-0.2,0.5-0.3c0.1-0.1,0.2-0.3,0.3-0.5C182.9,181.4,182.9,181.1,183,180.8z"/>
			<path class="st13" d="M188.4,183.5c0.3,0,0.4,0.1,0.5,0.3c0.1,0.1,0.1,0.3,0.1,0.4c0,0.1,0,0.1,0,0.1c0,0,0,0.1,0,0.1l-3.3-0.5
				l0.7-5.1l3.2,0.5c0,0.1,0,0.1,0,0.2c0,0,0,0.1,0,0.1c0,0.2-0.1,0.3-0.2,0.4s-0.3,0.1-0.5,0.1l-1.5-0.2l-0.2,1.3l1.6,0.2l-0.1,0.8
				l-1.6-0.2l-0.2,1.4L188.4,183.5L188.4,183.5z"/>
			<path class="st13" d="M194.6,185.2l-0.9-0.1l-1.7-3.7l-0.5,3.4l-1-0.1l0.7-5.1c0,0,0.1,0,0.2,0c0.1,0,0.2,0,0.3,0
				c0.1,0,0.3,0.1,0.4,0.1c0.1,0.1,0.2,0.2,0.2,0.3l1.5,3.5l0.5-3.5c0.1,0,0.2,0,0.2,0c0.1,0,0.1,0,0.1,0c0.1,0,0.1,0,0.2,0.1
				c0.1,0,0.1,0.1,0.2,0.1c0.1,0,0.1,0.1,0.1,0.2c0,0.1,0,0.2,0,0.3L194.6,185.2L194.6,185.2z"/>
			<path class="st13" d="M200.4,185.8c0,0-0.1,0.1-0.2,0.1s-0.2,0.1-0.3,0.1c-0.1,0-0.3,0-0.5,0s-0.4,0-0.6,0
				c-0.4-0.1-0.8-0.2-1-0.3c-0.3-0.2-0.5-0.4-0.7-0.7c-0.1-0.3-0.3-0.6-0.3-0.9c-0.1-0.3,0-0.7,0-1.1c0.1-0.4,0.1-0.7,0.3-1.1
				c0.2-0.3,0.3-0.6,0.6-0.8c0.2-0.2,0.5-0.4,0.8-0.4c0.3-0.1,0.7-0.1,1.1-0.1c0.2,0,0.4,0.1,0.5,0.1c0.1,0.1,0.3,0.1,0.4,0.2
				c0.1,0.1,0.2,0.1,0.3,0.2s0.1,0.1,0.2,0.2c0,0,0.1,0.1,0.1,0.2c0,0.1,0,0.1,0,0.2c0,0.1-0.1,0.2-0.2,0.3
				c-0.1,0.1-0.2,0.2-0.3,0.3c-0.1-0.1-0.1-0.1-0.2-0.2c-0.1-0.1-0.1-0.1-0.2-0.2c-0.1-0.1-0.2-0.1-0.3-0.2
				c-0.1-0.1-0.3-0.1-0.4-0.1c-0.3,0-0.5,0-0.7,0.1s-0.4,0.2-0.5,0.3c-0.1,0.2-0.2,0.3-0.3,0.6c-0.1,0.2-0.1,0.4-0.2,0.6
				c0,0.3,0,0.5,0,0.7c0,0.2,0.1,0.4,0.2,0.6c0.1,0.2,0.2,0.3,0.4,0.5s0.4,0.2,0.7,0.2c0.1,0,0.3,0,0.4,0c0.1,0,0.2,0,0.4-0.1
				c0.1,0,0.2-0.1,0.3-0.1c0.1-0.1,0.1-0.1,0.2-0.1c0,0,0.1,0.1,0.1,0.2c0,0,0.1,0.1,0.1,0.2c0,0.1,0.1,0.1,0.1,0.2
				c0,0.1,0,0.1,0,0.2c0,0.1,0,0.1-0.1,0.2C200.5,185.7,200.5,185.7,200.4,185.8z"/>
			<path class="st13" d="M205.2,185.9c0.3,0,0.4,0.1,0.5,0.3c0.1,0.1,0.1,0.3,0.1,0.4c0,0.1,0,0.1,0,0.1c0,0,0,0.1,0,0.1l-3.3-0.5
				l0.7-5.1l3.2,0.5c0,0.1,0,0.1,0,0.2c0,0,0,0.1,0,0.1c0,0.2-0.1,0.3-0.2,0.4s-0.3,0.1-0.5,0.1l-1.5-0.2l-0.2,1.3l1.6,0.2l-0.1,0.8
				l-1.6-0.2l-0.2,1.4L205.2,185.9L205.2,185.9z"/>
			<path class="st13" d="M210.9,182.3c0.1,0,0.2,0,0.2,0s0.1,0,0.1,0c0.1,0,0.1,0,0.2,0.1c0.1,0,0.1,0.1,0.2,0.1
				c0.1,0,0.1,0.1,0.2,0.2c0,0.1,0,0.2,0,0.3l-0.7,4.6l-1.1-0.2L210.9,182.3L210.9,182.3z"/>
			<path class="st13" d="M217.3,188.5l-0.9-0.1l-1.7-3.7l-0.5,3.4l-1-0.1l0.7-5.1c0,0,0.1,0,0.2,0c0.1,0,0.2,0,0.3,0
				c0.1,0,0.3,0.1,0.4,0.1c0.1,0.1,0.2,0.2,0.2,0.3l1.5,3.5l0.5-3.5c0.1,0,0.2,0,0.2,0c0.1,0,0.1,0,0.1,0c0.1,0,0.1,0,0.2,0.1
				c0.1,0,0.1,0.1,0.2,0.1c0.1,0,0.1,0.1,0.1,0.2c0,0.1,0,0.2,0,0.3L217.3,188.5L217.3,188.5z"/>
			<path class="st13" d="M223.9,185.1l-1.6-0.2l0,0c0-0.1,0-0.1,0-0.2c0,0,0-0.1,0-0.1c0-0.1,0.1-0.3,0.2-0.3
				c0.1-0.1,0.3-0.1,0.5-0.1l3.6,0.5c0,0.1,0,0.2,0,0.3c0,0.1-0.1,0.3-0.2,0.3c-0.1,0.1-0.3,0.1-0.5,0.1l-1-0.1l-0.6,4.3l-1.1-0.2
				L223.9,185.1L223.9,185.1z"/>
			<path class="st13" d="M230.4,189.6c0.3,0,0.4,0.1,0.5,0.3c0.1,0.1,0.1,0.3,0.1,0.4c0,0.1,0,0.1,0,0.1c0,0,0,0.1,0,0.1l-3.3-0.5
				l0.7-5.1l3.2,0.5c0,0.1,0,0.1,0,0.2c0,0,0,0.1,0,0.1c0,0.2-0.1,0.3-0.2,0.4s-0.3,0.1-0.5,0.1l-1.5-0.2l-0.2,1.3l1.6,0.2l-0.1,0.8
				L229,188l-0.2,1.4L230.4,189.6L230.4,189.6z"/>
			<path class="st13" d="M234.5,189.3l-1.2,1.6l-1.1-0.2l1.9-2.3l-1-2.6c0.1,0,0.2,0,0.3-0.1c0.1,0,0.2,0,0.3,0
				c0.3,0,0.5,0.2,0.6,0.5l0.5,1.5l1-1.2c0.1-0.1,0.2-0.3,0.3-0.3c0.1-0.1,0.3-0.1,0.4-0.1c0.1,0,0.2,0,0.3,0.1
				c0.1,0,0.2,0.1,0.2,0.1l-1.8,2.2l1.1,2.8c-0.1,0-0.2,0-0.3,0c-0.1,0-0.2,0-0.3,0c-0.2,0-0.4-0.1-0.5-0.2
				c-0.1-0.1-0.2-0.2-0.2-0.4L234.5,189.3z"/>
			<path class="st13" d="M239.9,187.4l-1.6-0.2l0,0c0-0.1,0-0.1,0-0.2c0,0,0-0.1,0-0.1c0-0.1,0.1-0.3,0.2-0.3
				c0.1-0.1,0.3-0.1,0.5-0.1l3.6,0.5c0,0.1,0,0.2,0,0.3c0,0.1-0.1,0.3-0.2,0.3c-0.1,0.1-0.3,0.1-0.5,0.1l-1-0.1l-0.6,4.3l-1.1-0.2
				L239.9,187.4z"/>
			<path class="st13" d="M244.2,187.2c0.1,0,0.2,0,0.2,0s0.1,0,0.1,0c0.1,0,0.1,0,0.2,0.1c0.1,0,0.1,0.1,0.2,0.1
				c0.1,0,0.1,0.1,0.2,0.2c0,0.1,0,0.2,0,0.3l-0.7,4.6l-1.1-0.2L244.2,187.2L244.2,187.2z"/>
			<path class="st13" d="M247.7,192.1l1.5,0.2c0.1,0,0.2,0,0.3,0.1c0.1,0,0.1,0.1,0.2,0.1c0,0,0.1,0.1,0.1,0.2c0,0.1,0,0.2,0,0.2
				c0,0,0,0.1,0,0.2c0,0.1,0,0.1,0,0.1l-3.2-0.5l0.7-5.1c0.1,0,0.2,0,0.2,0c0.1,0,0.1,0,0.1,0c0.1,0,0.1,0,0.2,0.1
				c0.1,0,0.1,0.1,0.2,0.1c0.1,0,0.1,0.1,0.2,0.2c0,0.1,0,0.2,0,0.3L247.7,192.1z"/>
			<path class="st13" d="M254.3,193.1c0.3,0,0.4,0.1,0.5,0.3c0.1,0.1,0.1,0.3,0.1,0.4c0,0.1,0,0.1,0,0.1c0,0,0,0.1,0,0.1l-3.3-0.5
				l0.7-5.1l3.2,0.5c0,0.1,0,0.1,0,0.2c0,0,0,0.1,0,0.1c0,0.2-0.1,0.3-0.2,0.4c-0.1,0.1-0.3,0.1-0.5,0.1l-1.5-0.2l-0.2,1.3l1.6,0.2
				l-0.1,0.8l-1.6-0.2l-0.2,1.4L254.3,193.1L254.3,193.1z"/>
			<path class="st13" d="M256.7,193c0.1,0.1,0.3,0.3,0.5,0.4c0.2,0.1,0.4,0.2,0.7,0.3c0.1,0,0.2,0,0.3,0c0.1,0,0.2,0,0.3-0.1
				c0.1,0,0.2-0.1,0.2-0.2c0-0.1,0.1-0.2,0.1-0.3c0-0.1,0-0.3,0-0.3c-0.1-0.1-0.1-0.2-0.2-0.3c-0.1-0.1-0.2-0.1-0.3-0.2
				c-0.1-0.1-0.2-0.1-0.3-0.2c-0.1-0.1-0.3-0.2-0.5-0.3c-0.2-0.1-0.3-0.2-0.4-0.3c-0.1-0.1-0.2-0.3-0.3-0.5c0-0.2-0.1-0.4,0-0.6
				c0-0.3,0.1-0.5,0.2-0.6c0.1-0.2,0.3-0.3,0.5-0.4c0.2-0.1,0.4-0.2,0.6-0.2s0.5,0,0.7,0c0.2,0,0.3,0,0.5,0.1
				c0.1,0.1,0.3,0.1,0.4,0.2s0.2,0.1,0.3,0.2s0.1,0.1,0.2,0.1c0.1,0.1,0.2,0.2,0.2,0.4c0,0.1-0.1,0.1-0.1,0.2
				c-0.1,0.1-0.2,0.2-0.3,0.3c-0.1-0.1-0.3-0.2-0.5-0.4s-0.4-0.2-0.6-0.2c-0.1,0-0.2,0-0.3,0c-0.1,0-0.2,0-0.3,0.1
				c-0.1,0-0.2,0.1-0.2,0.2c0,0.1-0.1,0.2-0.1,0.3c0,0.1,0,0.2,0,0.3c0,0.1,0.1,0.2,0.2,0.3c0.1,0.1,0.2,0.1,0.3,0.2
				c0.1,0.1,0.2,0.1,0.3,0.2c0.1,0.1,0.3,0.2,0.5,0.3c0.2,0.1,0.3,0.2,0.4,0.3s0.2,0.3,0.3,0.5c0,0.2,0.1,0.4,0.1,0.6
				c0,0.3-0.1,0.5-0.3,0.7c-0.1,0.2-0.3,0.3-0.5,0.5c-0.2,0.1-0.4,0.2-0.7,0.2c-0.3,0-0.5,0-0.8,0c-0.4-0.1-0.7-0.1-0.9-0.2
				c-0.2-0.1-0.4-0.2-0.5-0.3c-0.1,0-0.1-0.1-0.1-0.2s-0.1-0.1,0-0.2c0-0.1,0.1-0.2,0.2-0.3C256.5,193.2,256.6,193.1,256.7,193z"/>
			<path class="st13" d="M167.3,163.9c-0.1,1-0.4,1.9-0.8,2.8c-0.3,0.8-0.8,1.6-1.4,2.1c-0.6,0.6-1.3,1-2.2,1.3
				c-0.9,0.2-1.8,0.3-3,0.2c-1.1-0.2-2-0.5-2.7-1c-0.7-0.5-1.3-1.1-1.7-1.8c-0.4-0.7-0.6-1.5-0.7-2.5c-0.1-0.9-0.1-1.9,0.1-2.8
				c0.1-1,0.4-1.8,0.8-2.7c0.4-0.8,0.9-1.5,1.5-2.1c0.6-0.6,1.3-1,2.2-1.2c0.9-0.3,1.8-0.3,2.9-0.2c1.1,0.2,2,0.5,2.7,1
				c0.7,0.5,1.3,1.1,1.7,1.8c0.4,0.7,0.6,1.5,0.7,2.4C167.5,161.9,167.4,162.9,167.3,163.9z M164.4,163.5c0.1-0.7,0.2-1.3,0.1-1.9
				c0-0.6-0.1-1.1-0.3-1.6c-0.2-0.5-0.5-0.9-0.8-1.2c-0.4-0.3-0.9-0.5-1.5-0.6c-0.6-0.1-1.2-0.1-1.6,0.2c-0.4,0.2-0.9,0.5-1.2,0.9
				c-0.4,0.4-0.6,0.9-0.8,1.4s-0.4,1.2-0.5,1.8c-0.1,0.7-0.1,1.3-0.1,1.9c0,0.6,0.1,1.2,0.3,1.7c0.2,0.5,0.5,0.9,0.9,1.2
				c0.4,0.3,0.9,0.5,1.5,0.6c0.6,0.1,1.2,0,1.6-0.2c0.5-0.2,0.9-0.5,1.2-0.9c0.3-0.4,0.6-0.9,0.8-1.5
				C164.2,164.8,164.3,164.2,164.4,163.5z"/>
			<path class="st13" d="M176.2,170c0.7,0.1,1.1,0.3,1.3,0.6c0.2,0.3,0.3,0.7,0.2,1c0,0.1,0,0.3-0.1,0.4c0,0.1,0,0.2-0.1,0.3
				l-8.9-1.3l2-13.6l8.5,1.2c0,0.2,0,0.3,0,0.4c0,0.1,0,0.2,0,0.4c-0.1,0.5-0.3,0.8-0.5,1c-0.3,0.2-0.7,0.3-1.4,0.2l-4.1-0.6
				l-0.5,3.4l4.4,0.6l-0.3,2.2l-4.4-0.6l-0.6,3.8L176.2,170L176.2,170z"/>
			<path class="st13" d="M181.5,159c0.2,0,0.4,0,0.6,0c0.2,0,0.3,0,0.4,0c0.2,0,0.4,0.1,0.6,0.2c0.2,0.1,0.4,0.2,0.6,0.3
				c0.2,0.1,0.3,0.3,0.4,0.5c0.1,0.2,0.1,0.5,0,0.9l-0.7,4.9c0.1-0.3,0.2-0.6,0.4-0.8c0.2-0.3,0.5-0.5,0.7-0.8l3.4-3.3
				c0.4-0.4,0.7-0.6,1.1-0.7c0.4-0.1,0.7-0.2,1-0.1c0.4,0.1,0.7,0.1,1,0.3c0.3,0.2,0.5,0.3,0.6,0.5l-5.4,5.4l4.1,7.6
				c-0.6,0.3-1.1,0.4-1.7,0.3c-0.9-0.1-1.6-0.6-2-1.4l-2.4-4.3c-0.2-0.4-0.4-0.7-0.5-1.2c-0.2-0.4-0.2-0.8-0.2-1.2l-1,6.9l-2.8-0.4
				L181.5,159L181.5,159z"/>
			<path class="st13" d="M203.5,169.2c-0.1,1-0.4,1.9-0.8,2.8c-0.3,0.8-0.9,1.6-1.4,2.1c-0.6,0.6-1.3,1-2.2,1.3
				c-0.8,0.3-1.8,0.3-2.9,0.2s-2-0.5-2.7-1c-0.7-0.5-1.3-1.1-1.7-1.8c-0.4-0.7-0.6-1.5-0.7-2.5c-0.1-0.9-0.1-1.8,0.1-2.8
				c0.1-1,0.4-1.8,0.8-2.7c0.4-0.8,0.9-1.5,1.5-2.1c0.6-0.6,1.3-1,2.2-1.2c0.9-0.3,1.8-0.3,2.9-0.2c1.1,0.2,2,0.5,2.7,1
				c0.7,0.5,1.3,1.1,1.7,1.8c0.4,0.7,0.6,1.5,0.8,2.4C203.7,167.2,203.7,168.2,203.5,169.2z M200.6,168.8c0.1-0.7,0.2-1.3,0.1-1.9
				s-0.1-1.1-0.3-1.6c-0.2-0.5-0.5-0.9-0.8-1.2c-0.4-0.3-0.9-0.5-1.4-0.6c-0.6-0.1-1.2-0.1-1.6,0.2c-0.5,0.2-0.9,0.5-1.2,0.9
				c-0.3,0.4-0.6,0.9-0.8,1.4s-0.4,1.2-0.5,1.8s-0.1,1.3-0.1,1.9c0,0.6,0.1,1.2,0.3,1.7s0.5,0.9,0.9,1.2c0.4,0.3,0.9,0.5,1.5,0.6
				c0.6,0.1,1.2,0,1.6-0.2c0.4-0.2,0.9-0.5,1.1-1c0.3-0.4,0.6-0.9,0.8-1.5C200.4,170.1,200.5,169.4,200.6,168.8z"/>
			<path class="st13" d="M207,172c-1-0.1-1.4-0.7-1.3-1.5c0-0.3,0.1-0.6,0.2-0.9l5.1,0.7c0.4,0.1,0.8,0.2,1.1,0.4
				c0.3,0.2,0.4,0.6,0.3,1.1c0,0.1,0,0.3-0.1,0.4c-0.1,0.1-0.1,0.3-0.1,0.4L207,172z"/>
			<path class="st13" d="M216.9,166.5l-4.3-0.6l0,0c0-0.2,0-0.3,0-0.4c0-0.1,0-0.2,0.1-0.4c0.1-0.4,0.2-0.7,0.6-1
				c0.3-0.3,0.8-0.4,1.4-0.3l9.6,1.4c0,0.3,0,0.6-0.1,0.9c-0.1,0.4-0.2,0.7-0.5,0.9c-0.3,0.3-0.8,0.3-1.4,0.2l-2.6-0.4l-1.7,11.4
				l-2.9-0.4L216.9,166.5L216.9,166.5z"/>
			<path class="st13" d="M231.4,178.1c0.7,0.1,1.1,0.3,1.3,0.6c0.2,0.3,0.3,0.7,0.2,1c0,0.1,0,0.3-0.1,0.4c0,0.1,0,0.2-0.1,0.3
				l-8.9-1.3l2-13.6l8.5,1.2c0,0.2,0,0.3,0,0.4c0,0.1,0,0.2-0.1,0.4c-0.1,0.5-0.3,0.8-0.5,1c-0.3,0.2-0.7,0.3-1.4,0.2l-4-0.6
				l-0.5,3.4l4.4,0.6l-0.3,2.2l-4.4-0.6l-0.6,3.8l4.4,0.6L231.4,178.1z"/>
			<path class="st13" d="M239.8,176.9l-3.3,4.2l-3.1-0.4l5.1-6.2l-2.6-7c0.3-0.1,0.6-0.1,0.9-0.2c0.3,0,0.6,0,0.9,0
				c0.7,0.1,1.2,0.5,1.5,1.2l1.5,4l2.5-3.2c0.3-0.4,0.6-0.7,0.9-0.8c0.3-0.1,0.7-0.2,1.1-0.1c0.3,0,0.5,0.1,0.8,0.2
				c0.2,0.1,0.4,0.3,0.7,0.4l-4.8,5.9l3,7.5c-0.3,0-0.6,0.1-0.9,0.1s-0.6,0-0.8,0c-0.5-0.1-1-0.3-1.2-0.5s-0.5-0.6-0.6-1
				L239.8,176.9z"/>
			<path class="st13" d="M259.1,175.7c0,0.3-0.1,0.5-0.2,0.8c-0.1,0.2-0.2,0.4-0.4,0.5c-0.1,0.2-0.3,0.2-0.5,0.4
				c-0.2,0.1-0.4,0.1-0.6,0.2l1.3,3.2c-0.2,0-0.3,0.1-0.5,0.1c-0.2,0-0.3,0-0.4,0c-0.3,0-0.5-0.1-0.6-0.3s-0.3-0.3-0.4-0.6l-0.9-2.2
				l-0.6-0.1l-0.4,2.7l-1.5-0.2l1-7c0.3,0,0.7,0,1,0.1c0.3,0,0.6,0.1,0.9,0.1c1,0.1,1.8,0.4,2.2,0.8
				C259.1,174.4,259.2,175,259.1,175.7z M257.6,175.6c0.1-0.4,0-0.8-0.2-1c-0.2-0.2-0.5-0.3-0.9-0.4c-0.1,0-0.2,0-0.3,0
				s-0.2,0-0.2,0l-0.4,2.4l0.5,0.1c0.4,0.1,0.8,0,1-0.1C257.3,176.3,257.5,176,257.6,175.6z"/>
			<path class="st13" d="M263.5,178c-0.6,4-4.3,6.8-8.3,6.2c-4-0.6-6.8-4.3-6.2-8.3c0.6-4,4.3-6.8,8.3-6.2
				C261.3,170.3,264.1,174,263.5,178z M257.1,171.4c-3.1-0.4-5.9,1.7-6.4,4.7s1.7,5.9,4.8,6.4c3.1,0.4,5.9-1.7,6.4-4.7
				C262.3,174.7,260.1,171.9,257.1,171.4z"/>
		</g>
	</g>
</g>
</svg>
