<?xml version="1.0" encoding="utf-8"?>
<!-- Generator: Adobe Illustrator 21.1.0, SVG Export Plug-In . SVG Version: 6.00 Build 0)  -->
<svg version="1.1" xmlns="http://www.w3.org/2000/svg" xmlns:xlink="http://www.w3.org/1999/xlink" x="0px" y="0px"
	 viewBox="0 0 950 954" style="enable-background:new 0 0 950 954;" xml:space="preserve">
<style type="text/css">
	.st0{fill:none;stroke:#7AEDE2;stroke-miterlimit:10;}
	.st1{fill:#F8F8F8;}
	.st2{fill:none;stroke:#78D6EF;stroke-miterlimit:10;}
	.st3{fill:none;stroke:#3B2B7A;stroke-miterlimit:10;}
	.st4{fill:#78D6EF;stroke:#1D1D1B;stroke-miterlimit:10;}
	.st5{fill:#FFFFFF;}
	.st6{fill:none;stroke:#1D1D1B;stroke-miterlimit:10;}
	.st7{fill:#FFFFFF;stroke:#000000;stroke-linejoin:round;stroke-miterlimit:10;}
	.st8{fill:#F8F8F8;stroke:#000000;stroke-miterlimit:10;}
	.st9{fill:none;stroke:#000000;stroke-linejoin:round;stroke-miterlimit:10;}
	.st10{fill:none;}
	.st11{font-family:'TGL0-17';}
	.st12{font-size:13.6132px;}
	.st13{fill:#7AEDE2;}
	.st14{fill:#FFFFFF;stroke:#000000;stroke-miterlimit:10;}
	.st15{fill:#7AEDE2;stroke:#000000;stroke-miterlimit:10;}
	.st16{fill:#FFFFFF;stroke:#000000;stroke-linecap:round;stroke-miterlimit:10;}
	.st17{fill:#FFFFFF;stroke:#1D1D1B;stroke-linejoin:round;stroke-miterlimit:10;}
	.st18{fill:#7AEDE2;stroke:#1D1D1B;stroke-linejoin:round;stroke-miterlimit:10;}
	.st19{fill:#FFFFFF;stroke:#1D1D1B;stroke-linecap:round;stroke-linejoin:round;stroke-miterlimit:10;}
	.st20{fill:none;stroke:#1D1D1B;stroke-linecap:round;stroke-miterlimit:10;}
	.st21{fill:none;stroke:#3B2B7A;stroke-linecap:round;stroke-miterlimit:10;}
	.st22{fill:#FFFFFF;stroke:#1D1D1B;stroke-linecap:round;stroke-miterlimit:10;}
	.st23{fill:#F8F8F8;stroke:#1D1D1B;stroke-linecap:round;stroke-miterlimit:10;}
	.st24{fill:#78D6EF;stroke:#1D1D1B;stroke-linejoin:round;stroke-miterlimit:10;}
	.st25{fill:none;stroke:#1D1D1B;stroke-linejoin:round;stroke-miterlimit:10;}
	.st26{fill:#FFFFFF;stroke:#302C29;stroke-miterlimit:10;}
	.st27{fill:none;stroke:#302C29;stroke-miterlimit:10;}
	.st28{fill:#302C29;}
	.st29{fill:none;stroke:#302C29;stroke-miterlimit:10;stroke-dasharray:2,1.5;}
	.st30{fill:#7AEDE2;stroke:#1D1D1B;stroke-miterlimit:10;}
	.st31{fill:none;stroke:#7AEDE2;stroke-linecap:round;stroke-linejoin:round;stroke-miterlimit:10;}
	.st32{fill:#3B2B7A;}
	.st33{font-family:'FreightBigProBold-Regular';}
	.st34{font-size:62px;}
	.st35{display:none;}
	.st36{display:inline;fill:#F8F8F8;}
</style>
<g id="Calque_3">
	<circle class="st0" cx="475" cy="477" r="317.5"/>
</g>
<g id="Calque_1">
	<g>
		<ellipse class="st1" cx="475" cy="794.7" rx="158" ry="157.6"/>
		<g>
			<ellipse class="st2" cx="475" cy="794.7" rx="136.8" ry="136.5"/>
			<ellipse class="st3" cx="475" cy="794.7" rx="132.2" ry="131.9"/>
			<ellipse class="st0" cx="475" cy="794.7" rx="141.6" ry="141.3"/>
			<g>
				<g>
					<g>
						<path class="st4" d="M413.6,707.3c8.7,0,16.9-1.3,16.9-1.3s4.5,7.3,6.5,22.5c0,0,0.6,17.2-2.7,87.6c0,0-5.8,2.5-12.5,0.5
							l-8.2-77.3l-9.6,76.7c-6.8,2-12.5-0.5-12.5-0.5c-3.3-70.3-1.5-85.8-1.5-85.8c2.2-15.3,6.6-23.6,6.6-23.6
							S404.8,707.3,413.6,707.3"/>
						<path class="st5" d="M397.4,701l-0.7,5c0,0,5.5,1.3,16.9,1.3c11.4,0,16.9-1.3,16.9-1.3l-0.8-5c0,0-9.1,1.2-16,1.2
							C406.8,702.2,397.4,701,397.4,701"/>
						<path class="st4" d="M397.4,701c0,0,9.4,1.2,16.3,1.2c6.9,0,16-1.2,16-1.2l0.8,5c0,0-5.5,1.3-16.9,1.3
							c-11.4,0-16.9-1.3-16.9-1.3L397.4,701z"/>
						<g>
							<defs>
								<rect id="SVGID_1_" x="431.2" y="708.8" width="0" height="0"/>
							</defs>
							<clipPath id="SVGID_2_">
								<use xlink:href="#SVGID_1_"  style="overflow:visible;"/>
							</clipPath>
						</g>
						<g>
							<defs>
								<rect id="SVGID_3_" x="396.2" y="708.8" width="0" height="0"/>
							</defs>
							<clipPath id="SVGID_4_">
								<use xlink:href="#SVGID_3_"  style="overflow:visible;"/>
							</clipPath>
						</g>
						<polyline class="st6" points="413.3,741 414,736.3 413.7,707.3 413.7,702.2 						"/>
						<path class="st6" d="M410.8,707.1v17c0,0,0.6,2.3,3.2,2.5"/>
						<path class="st6" d="M401.4,706.7c0,0-1.7,11.2-9.2,11.6"/>
						<path class="st6" d="M425.9,706.7c0,0,1,10.6,8.8,10.8"/>
						<g>
							<path class="st6" d="M404.9,707.1c0,0-0.2-4.3,0.1-5.4"/>
							<path class="st6" d="M422.2,707.1c0,0,0.2-4.3-0.1-5.4"/>
						</g>
					</g>
				</g>
				<g>
					<polygon class="st7" points="511.7,774.5 441.6,740.2 459.5,704 529.5,738.3 					"/>
					<path d="M470.4,728.9c0,0.1-0.1,0.2-0.2,0.2c-0.1,0.1-0.1,0.1-0.2,0.1c-0.1,0-0.2,0-0.3,0c-0.1,0-0.2,0-0.3-0.1
						c-0.1,0-0.2-0.1-0.2-0.2c-0.1-0.1-0.1-0.1-0.1-0.2c0-0.1,0-0.2,0-0.3s0-0.2,0.1-0.3l3.7-7.4c0-0.1,0.1-0.2,0.2-0.2
						c0.1-0.1,0.1-0.1,0.2-0.1c0.1,0,0.2,0,0.3,0s0.2,0,0.3,0.1c0.1,0.1,0.2,0.2,0.3,0.3c0.1,0.1,0.1,0.3,0.1,0.4l0,6.3l5.1-3.8
						c0.1-0.1,0.2-0.1,0.3-0.1c0.1,0,0.3,0,0.4,0.1c0.1,0,0.1,0.1,0.2,0.2c0.1,0.1,0.1,0.1,0.1,0.2c0,0.1,0,0.2,0,0.3
						c0,0.1,0,0.2-0.1,0.3l-3.7,7.4c0,0.1-0.1,0.2-0.2,0.2c-0.1,0.1-0.1,0.1-0.2,0.1c-0.1,0-0.2,0-0.3,0c-0.1,0-0.2,0-0.3-0.1
						c-0.1,0-0.2-0.1-0.2-0.2c-0.1-0.1-0.1-0.1-0.1-0.2c0-0.1,0-0.2,0-0.3c0-0.1,0-0.2,0.1-0.3l2.4-4.8l-3.8,2.9
						c-0.1,0.1-0.2,0.1-0.4,0.1c-0.1,0-0.3,0-0.4-0.1c-0.1-0.1-0.2-0.2-0.3-0.3c-0.1-0.1-0.1-0.2-0.1-0.3l0-4.8L470.4,728.9z"/>
					<path d="M478.9,733.3c-0.1,0.1-0.2,0.2-0.4,0.2c-0.1,0-0.3,0-0.4-0.1c-0.1,0-0.2-0.1-0.2-0.2c-0.1-0.1-0.1-0.1-0.1-0.2
						c0-0.1,0-0.2,0-0.3c0-0.1,0-0.2,0.1-0.3c0-0.1,0.1-0.1,0.1-0.2l6.1-6.2c0.1-0.1,0.2-0.2,0.4-0.2c0.1,0,0.3,0,0.4,0.1
						c0.1,0.1,0.2,0.2,0.3,0.3c0.1,0.1,0.1,0.3,0.1,0.4l-1.2,8.6c0,0,0,0.1,0,0.1c0,0,0,0.1,0,0.1c0,0.1-0.1,0.2-0.2,0.2
						c-0.1,0.1-0.1,0.1-0.2,0.1s-0.2,0-0.3,0s-0.2,0-0.3-0.1c-0.1-0.1-0.2-0.2-0.3-0.3c-0.1-0.1-0.1-0.3-0.1-0.4l0.2-1.7l-2.8-1.4
						L478.9,733.3z M483.1,732.1l0.5-3.5l-2.5,2.5L483.1,732.1z"/>
					<path d="M491.4,738c-0.5,0.4-1.1,0.6-1.6,0.7c-0.6,0-1.2-0.1-1.8-0.4l-1.2-0.6l-1.2-0.6c0,0,0,0,0,0c0,0,0,0,0,0l0,0
						c-0.1,0-0.2-0.1-0.2-0.2c-0.1-0.1-0.1-0.1-0.1-0.2c0-0.1,0-0.2,0-0.3c0-0.1,0-0.2,0.1-0.3l3.7-7.4c0-0.1,0.1-0.2,0.2-0.2
						c0.1-0.1,0.1-0.1,0.2-0.1c0.1,0,0.2,0,0.3,0c0.1,0,0.2,0,0.3,0.1l2.5,1.2c0.5,0.3,0.9,0.6,1.2,0.9c0.3,0.4,0.5,0.8,0.6,1.3
						c0.1,0.5,0.1,1-0.1,1.6c-0.1,0.6-0.4,1.3-0.8,2c-0.3,0.6-0.6,1.1-0.9,1.5C492.1,737.5,491.8,737.8,491.4,738z M488.6,737.1
						c0.3,0.2,0.7,0.3,1,0.3c0.3,0,0.6-0.1,0.8-0.3c0.3-0.2,0.5-0.4,0.8-0.8c0.3-0.4,0.5-0.8,0.8-1.4c0.2-0.4,0.4-0.9,0.5-1.2
						s0.2-0.8,0.2-1.1c0-0.3-0.1-0.7-0.2-0.9c-0.2-0.3-0.4-0.5-0.8-0.7l-1.9-0.9l-3,6.2l0.9,0.5L488.6,737.1z"/>
					<path d="M502.1,734.5c0.1,0,0.2,0.1,0.2,0.2c0.1,0.1,0.1,0.1,0.1,0.2c0,0.1,0,0.2,0,0.3c0,0.1,0,0.2-0.1,0.3
						c0,0.1-0.1,0.1-0.2,0.2c-0.1,0.1-0.1,0.1-0.2,0.1c-0.1,0-0.2,0-0.3,0c-0.1,0-0.2,0-0.3-0.1l-4.3-2.1l-1.2,2.5l3.1,1.5
						c0.1,0,0.1,0.1,0.2,0.2c0.1,0.1,0.1,0.1,0.1,0.2s0,0.2,0,0.3s0,0.2-0.1,0.3c0,0.1-0.1,0.2-0.2,0.2c-0.1,0.1-0.2,0.1-0.2,0.1
						c-0.1,0-0.2,0-0.3,0c-0.1,0-0.2,0-0.2-0.1l-3.1-1.5l-1.2,2.5l4.3,2.1c0.1,0,0.2,0.1,0.2,0.2c0.1,0.1,0.1,0.1,0.1,0.2
						c0,0.1,0,0.2,0,0.3s0,0.2-0.1,0.3c0,0.1-0.1,0.2-0.2,0.2c-0.1,0.1-0.1,0.1-0.2,0.1c-0.1,0-0.2,0-0.3,0c-0.1,0-0.2,0-0.3-0.1
						l-5-2.4c-0.1,0-0.2-0.1-0.2-0.2c-0.1-0.1-0.1-0.1-0.1-0.2c0-0.1,0-0.2,0-0.3c0-0.1,0-0.2,0.1-0.3l3.7-7.4
						c0-0.1,0.1-0.2,0.2-0.2c0.1-0.1,0.1-0.1,0.2-0.1c0.1,0,0.2,0,0.3,0s0.2,0,0.3,0.1L502.1,734.5z"/>
					<path d="M507.5,737.9c0-0.1,0.1-0.2,0.2-0.2c0.1-0.1,0.1-0.1,0.2-0.1c0.1,0,0.2,0,0.3,0c0.1,0,0.2,0,0.3,0.1
						c0.1,0,0.2,0.1,0.2,0.2c0.1,0.1,0.1,0.1,0.1,0.2c0,0.1,0,0.2,0,0.3c0,0.1,0,0.2-0.1,0.3l-3.7,7.4c0,0.1-0.1,0.2-0.2,0.2
						c-0.1,0.1-0.1,0.1-0.2,0.1c-0.1,0-0.2,0-0.3,0c-0.1,0-0.2,0-0.3-0.1c-0.1,0-0.2-0.1-0.2-0.2c-0.1-0.1-0.1-0.1-0.1-0.2
						c0-0.1,0-0.2,0-0.3c0-0.1,0-0.2,0.1-0.3L507.5,737.9z"/>
					<path d="M507.5,747.1c0,0.1-0.1,0.2-0.2,0.2c-0.1,0.1-0.1,0.1-0.2,0.1c-0.1,0-0.2,0-0.3,0c-0.1,0-0.2,0-0.3-0.1
						c-0.1,0-0.2-0.1-0.2-0.2c-0.1-0.1-0.1-0.1-0.1-0.2c0-0.1,0-0.2,0-0.3c0-0.1,0-0.2,0.1-0.3l3.7-7.4c0-0.1,0.1-0.2,0.2-0.2
						c0.1-0.1,0.1-0.1,0.2-0.1c0.1,0,0.2,0,0.3,0c0.1,0,0.2,0,0.3,0.1c0.1,0.1,0.2,0.1,0.3,0.2c0.1,0.1,0.1,0.2,0.1,0.3l1,7.6
						l2.6-5.4c0-0.1,0.1-0.2,0.2-0.2c0.1-0.1,0.1-0.1,0.2-0.1c0.1,0,0.2,0,0.3,0c0.1,0,0.2,0,0.3,0.1c0.1,0,0.2,0.1,0.2,0.2
						c0.1,0.1,0.1,0.1,0.1,0.2c0,0.1,0,0.2,0,0.3c0,0.1,0,0.2-0.1,0.3l-3.7,7.4c0,0.1-0.1,0.1-0.1,0.2c-0.1,0.1-0.1,0.1-0.2,0.1
						c-0.1,0-0.2,0.1-0.3,0c-0.1,0-0.2,0-0.3-0.1c-0.1-0.1-0.2-0.1-0.3-0.2c-0.1-0.1-0.1-0.2-0.1-0.3l-1-7.6l-1.3,2.7L507.5,747.1z"
						/>
					<path d="M472.8,735.3c0.1,0,0.2,0.1,0.2,0.2c0.1,0.1,0.1,0.1,0.1,0.2c0,0.1,0,0.2,0,0.3c0,0.1,0,0.2-0.1,0.3
						c0,0.1-0.1,0.1-0.2,0.2c-0.1,0.1-0.1,0.1-0.2,0.1c-0.1,0-0.2,0-0.3,0c-0.1,0-0.2,0-0.3-0.1l-4.3-2.1l-1.2,2.5l3.1,1.5
						c0.1,0,0.1,0.1,0.2,0.2c0.1,0.1,0.1,0.1,0.1,0.2c0,0.1,0,0.2,0,0.3c0,0.1,0,0.2-0.1,0.3c0,0.1-0.1,0.2-0.2,0.2
						c-0.1,0.1-0.2,0.1-0.2,0.1c-0.1,0-0.2,0-0.3,0c-0.1,0-0.2,0-0.2-0.1l-3.1-1.5l-1.5,3.1c0,0.1-0.1,0.2-0.2,0.2
						c-0.1,0.1-0.1,0.1-0.2,0.1c-0.1,0-0.2,0-0.3,0c-0.1,0-0.2,0-0.3-0.1c-0.1,0-0.2-0.1-0.2-0.2c-0.1-0.1-0.1-0.1-0.1-0.2
						c0-0.1,0-0.2,0-0.3c0-0.1,0-0.2,0.1-0.3l3.7-7.4c0-0.1,0.1-0.2,0.2-0.2c0.1-0.1,0.1-0.1,0.2-0.1c0.1,0,0.2,0,0.3,0
						c0.1,0,0.2,0,0.3,0.1l2.5,1.2L472.8,735.3z"/>
					<path d="M476.7,743.2l0.2,3.7c0,0.1,0,0.2-0.1,0.3c0,0.1-0.1,0.2-0.2,0.2c-0.1,0.1-0.1,0.1-0.2,0.1c-0.1,0-0.2,0-0.3,0
						c-0.1,0-0.2,0-0.3-0.1c-0.1-0.1-0.2-0.1-0.3-0.2c-0.1-0.1-0.1-0.2-0.1-0.3l-0.2-4.3l-1.9-0.9l-1.5,3.1c0,0.1-0.1,0.2-0.2,0.2
						c-0.1,0.1-0.1,0.1-0.2,0.1c-0.1,0-0.2,0-0.3,0c-0.1,0-0.2,0-0.3-0.1c-0.1,0-0.2-0.1-0.2-0.2c-0.1-0.1-0.1-0.1-0.1-0.2
						c0-0.1,0-0.2,0-0.3c0-0.1,0-0.2,0.1-0.3l1.8-3.7l1.8-3.7c0-0.1,0.1-0.2,0.2-0.2c0.1-0.1,0.1-0.1,0.2-0.1c0.1,0,0.2,0,0.3,0
						s0.2,0,0.3,0.1l3.1,1.5c0.3,0.2,0.6,0.4,0.9,0.7c0.2,0.3,0.4,0.6,0.5,0.9c0.1,0.3,0.2,0.7,0.1,1.1c0,0.4-0.1,0.7-0.3,1
						c-0.1,0.2-0.3,0.5-0.5,0.7c-0.2,0.2-0.4,0.4-0.6,0.5c-0.2,0.1-0.5,0.2-0.7,0.3c-0.3,0.1-0.5,0.1-0.8,0.1
						C476.9,743.2,476.9,743.2,476.7,743.2C476.8,743.2,476.7,743.2,476.7,743.2z M474,740.5l2.5,1.2c0.1,0,0.2,0.1,0.4,0.1
						c0.2,0,0.3,0,0.5,0c0.2,0,0.4-0.1,0.5-0.2c0.2-0.1,0.3-0.3,0.4-0.5c0.1-0.1,0.1-0.3,0.1-0.5c0-0.2,0-0.3,0-0.5
						c0-0.2-0.1-0.3-0.2-0.5c-0.1-0.2-0.3-0.3-0.5-0.4l-2.5-1.2l-0.6,1.2L474,740.5z"/>
					<path d="M479.2,748.7c-0.1,0.1-0.2,0.2-0.4,0.2c-0.1,0-0.3,0-0.4-0.1c-0.1,0-0.2-0.1-0.2-0.2c-0.1-0.1-0.1-0.1-0.1-0.2
						c0-0.1,0-0.2,0-0.3c0-0.1,0-0.2,0.1-0.3c0-0.1,0.1-0.1,0.1-0.2l6.1-6.2c0.1-0.1,0.2-0.2,0.4-0.2c0.1,0,0.3,0,0.4,0.1
						c0.1,0.1,0.2,0.2,0.3,0.3c0.1,0.1,0.1,0.3,0.1,0.4l-1.2,8.6c0,0,0,0.1,0,0.1c0,0,0,0.1,0,0.1c0,0.1-0.1,0.2-0.2,0.2
						c-0.1,0.1-0.1,0.1-0.2,0.1s-0.2,0-0.3,0s-0.2,0-0.3-0.1c-0.1-0.1-0.2-0.2-0.3-0.3c-0.1-0.1-0.1-0.3-0.1-0.4l0.2-1.7l-2.8-1.4
						L479.2,748.7z M483.4,747.4l0.5-3.5l-2.5,2.5L483.4,747.4z"/>
					<path d="M486.8,752.1c0,0.1-0.1,0.2-0.2,0.2c-0.1,0.1-0.1,0.1-0.2,0.1c-0.1,0-0.2,0-0.3,0c-0.1,0-0.2,0-0.3-0.1
						c-0.1,0-0.2-0.1-0.2-0.2c-0.1-0.1-0.1-0.1-0.1-0.2c0-0.1,0-0.2,0-0.3s0-0.2,0.1-0.3l3.7-7.4c0-0.1,0.1-0.2,0.2-0.2
						c0.1-0.1,0.1-0.1,0.2-0.1c0.1,0,0.2,0,0.3,0s0.2,0,0.3,0.1c0.1,0.1,0.2,0.1,0.3,0.2c0.1,0.1,0.1,0.2,0.1,0.3l1,7.6l2.6-5.4
						c0-0.1,0.1-0.2,0.2-0.2c0.1-0.1,0.1-0.1,0.2-0.1c0.1,0,0.2,0,0.3,0c0.1,0,0.2,0,0.3,0.1c0.1,0,0.2,0.1,0.2,0.2
						c0.1,0.1,0.1,0.1,0.1,0.2c0,0.1,0,0.2,0,0.3c0,0.1,0,0.2-0.1,0.3l-3.7,7.4c0,0.1-0.1,0.1-0.1,0.2s-0.1,0.1-0.2,0.1
						s-0.2,0.1-0.3,0c-0.1,0-0.2,0-0.3-0.1c-0.1-0.1-0.2-0.1-0.3-0.2c-0.1-0.1-0.1-0.2-0.1-0.3l-1-7.6l-1.3,2.7L486.8,752.1z"/>
					<path d="M498.4,755.9c0.1-0.1,0.2-0.1,0.3-0.1c0.1,0,0.2,0,0.4,0.1c0.1,0,0.2,0.1,0.2,0.2c0.1,0.1,0.1,0.2,0.1,0.2
						c0,0.1,0,0.2,0,0.3c0,0.1,0,0.2-0.1,0.2c0,0.1-0.1,0.2-0.2,0.2c-0.1,0.1-0.2,0.1-0.3,0.2c-0.1,0.1-0.2,0.1-0.3,0.1
						c-0.1,0-0.2,0.1-0.3,0.1c-0.9,0.3-1.8,0.3-2.6-0.2c-0.4-0.2-0.8-0.4-1.1-0.7c-0.3-0.3-0.5-0.6-0.6-1c-0.1-0.4-0.2-0.8-0.2-1.2
						c0-0.5,0.1-0.9,0.3-1.5c0.1-0.3,0.2-0.5,0.3-0.7c0.1-0.2,0.2-0.5,0.3-0.7c0.2-0.4,0.4-0.8,0.6-1.1c0.2-0.3,0.5-0.7,0.7-0.9
						c0.3-0.3,0.5-0.5,0.8-0.7c0.3-0.2,0.6-0.3,0.9-0.4c0.3-0.1,0.7-0.1,1,0c0.4,0,0.8,0.2,1.2,0.4c0.3,0.1,0.5,0.3,0.8,0.5
						c0.2,0.2,0.4,0.4,0.6,0.7c0.2,0.2,0.3,0.5,0.4,0.8c0.1,0.3,0.1,0.5,0.2,0.8c0,0.1,0,0.3-0.1,0.4c0,0.1-0.1,0.2-0.2,0.2
						c-0.1,0.1-0.2,0.1-0.2,0.1c-0.1,0-0.2,0-0.3,0s-0.2,0-0.3-0.1c-0.1-0.1-0.2-0.1-0.2-0.2c-0.1-0.1-0.1-0.2-0.1-0.3
						c0-0.1,0-0.2-0.1-0.3c0-0.1,0-0.2-0.1-0.3c-0.1-0.3-0.2-0.5-0.4-0.7c-0.2-0.2-0.4-0.4-0.6-0.5c-0.4-0.2-0.7-0.3-1-0.3
						c-0.3,0-0.6,0.1-0.9,0.3c-0.3,0.2-0.5,0.5-0.8,0.8c-0.2,0.4-0.5,0.8-0.7,1.3c-0.3,0.6-0.5,1.1-0.6,1.5
						c-0.1,0.4-0.2,0.8-0.2,1.1c0,0.3,0.1,0.6,0.3,0.8c0.2,0.2,0.4,0.4,0.8,0.6c0.2,0.1,0.4,0.1,0.6,0.2c0.2,0,0.4,0,0.6,0
						c0.2,0,0.4-0.1,0.5-0.1C498.1,756.1,498.3,756,498.4,755.9z"/>
					<path d="M509.6,753.3c0.1,0,0.2,0.1,0.2,0.2c0.1,0.1,0.1,0.1,0.1,0.2c0,0.1,0,0.2,0,0.3c0,0.1,0,0.2-0.1,0.3
						c0,0.1-0.1,0.1-0.2,0.2c-0.1,0.1-0.1,0.1-0.2,0.1c-0.1,0-0.2,0-0.3,0c-0.1,0-0.2,0-0.3-0.1l-4.3-2.1l-1.2,2.5l3.1,1.5
						c0.1,0,0.1,0.1,0.2,0.2c0.1,0.1,0.1,0.1,0.1,0.2c0,0.1,0,0.2,0,0.3c0,0.1,0,0.2-0.1,0.3c0,0.1-0.1,0.2-0.2,0.2
						c-0.1,0.1-0.2,0.1-0.2,0.1c-0.1,0-0.2,0-0.3,0c-0.1,0-0.2,0-0.2-0.1l-3.1-1.5l-1.2,2.5l4.3,2.1c0.1,0,0.2,0.1,0.2,0.2
						c0.1,0.1,0.1,0.1,0.1,0.2c0,0.1,0,0.2,0,0.3c0,0.1,0,0.2-0.1,0.3c0,0.1-0.1,0.2-0.2,0.2c-0.1,0.1-0.1,0.1-0.2,0.1
						c-0.1,0-0.2,0-0.3,0c-0.1,0-0.2,0-0.3-0.1l-5-2.4c-0.1,0-0.2-0.1-0.2-0.2c-0.1-0.1-0.1-0.1-0.1-0.2c0-0.1,0-0.2,0-0.3
						c0-0.1,0-0.2,0.1-0.3l3.7-7.4c0-0.1,0.1-0.2,0.2-0.2c0.1-0.1,0.1-0.1,0.2-0.1c0.1,0,0.2,0,0.3,0c0.1,0,0.2,0,0.3,0.1
						L509.6,753.3z"/>
					<ellipse class="st8" cx="457.8" cy="725.1" rx="3.4" ry="3.4"/>
					<path class="st9" d="M452,719.1c-6.4-6.3-19.2-13.7-21.9-15.3"/>
					<path class="st9" d="M430.5,706c2.9,8.4,17,19.2,24.9,19.9c1.6,0.1,2-1-0.1-3.2"/>
				</g>
			</g>
			<g>
				<rect x="441.3" y="841.2" class="st7" width="51.2" height="56.4"/>
				<rect x="441.3" y="857.6" class="st10" width="51.2" height="23.4"/>
				<text transform="matrix(1.0022 0 0 1 451.6172 867.3012)"><tspan x="0" y="0" class="st11 st12">100%</tspan><tspan x="6" y="13.6" class="st11 st12">LIN</tspan></text>
			</g>
			<g>
				<path class="st13" d="M474.3,816.2c0,0-0.1,0.1-0.2,0.1s-0.2,0.1-0.3,0.1c-0.1,0-0.3,0-0.5,0c-0.2,0-0.4,0-0.6,0
					c-0.4-0.1-0.8-0.2-1-0.3c-0.3-0.2-0.5-0.4-0.7-0.7c-0.1-0.3-0.3-0.6-0.3-0.9s0-0.7,0-1.1c0.1-0.4,0.1-0.7,0.3-1.1
					c0.2-0.3,0.3-0.6,0.6-0.8c0.2-0.2,0.5-0.4,0.8-0.4c0.3-0.1,0.7-0.1,1.1-0.1c0.2,0,0.4,0.1,0.5,0.1c0.1,0.1,0.3,0.1,0.4,0.2
					c0.1,0.1,0.2,0.1,0.3,0.2c0.1,0,0.1,0.1,0.2,0.2c0,0,0.1,0.1,0.1,0.2c0,0.1,0,0.1,0,0.2c0,0.1-0.1,0.2-0.2,0.3
					c-0.1,0.1-0.2,0.2-0.3,0.3c-0.1-0.1-0.1-0.1-0.2-0.2s-0.1-0.1-0.2-0.2c-0.1-0.1-0.2-0.1-0.3-0.2c-0.1,0-0.2,0-0.4-0.1
					c-0.3,0-0.5,0-0.7,0.1s-0.4,0.2-0.5,0.3c-0.1,0.2-0.2,0.3-0.3,0.6c-0.1,0.2-0.1,0.4-0.1,0.7c0,0.3,0,0.5,0,0.7
					c0,0.2,0.1,0.4,0.2,0.6c0.1,0.2,0.2,0.3,0.4,0.5s0.4,0.2,0.7,0.2c0.1,0,0.3,0,0.4,0c0.1,0,0.2,0,0.4-0.1c0.1,0,0.2-0.1,0.3-0.1
					c0.1-0.1,0.1-0.1,0.2-0.1c0,0,0.1,0.1,0.1,0.2c0,0,0.1,0.1,0.1,0.2c0,0.1,0.1,0.1,0.1,0.2c0,0.1,0,0.1,0,0.2
					c0,0.1,0,0.1-0.1,0.2C474.4,816.1,474.4,816.1,474.3,816.2z"/>
				<path class="st13" d="M480.9,814.8c-0.1,0.4-0.1,0.7-0.3,1c-0.1,0.3-0.3,0.6-0.5,0.8c-0.2,0.2-0.5,0.4-0.8,0.5
					c-0.3,0.1-0.7,0.1-1.1,0.1c-0.4-0.1-0.8-0.2-1-0.4c-0.3-0.2-0.5-0.4-0.6-0.7c-0.1-0.3-0.2-0.6-0.3-0.9c0-0.3,0-0.7,0-1
					c0.1-0.4,0.1-0.7,0.3-1c0.2-0.3,0.3-0.6,0.6-0.8c0.2-0.2,0.5-0.4,0.8-0.5c0.3-0.1,0.7-0.1,1.1-0.1c0.4,0.1,0.8,0.2,1,0.4
					c0.3,0.2,0.5,0.4,0.6,0.6c0.1,0.3,0.3,0.6,0.3,0.9C481,814.1,481,814.4,480.9,814.8z M479.9,814.6c0-0.3,0-0.5,0-0.7
					c0-0.2-0.1-0.4-0.1-0.6c-0.1-0.2-0.2-0.3-0.3-0.5c-0.1-0.1-0.3-0.2-0.6-0.2c-0.2,0-0.4,0-0.6,0.1c-0.2,0.1-0.3,0.2-0.5,0.3
					s-0.2,0.3-0.3,0.6c-0.1,0.2-0.1,0.4-0.2,0.7c0,0.3,0,0.5,0,0.7c0,0.2,0,0.5,0.1,0.6c0.1,0.2,0.2,0.4,0.3,0.5
					c0.1,0.1,0.3,0.2,0.6,0.2s0.4,0,0.6-0.1c0.2-0.1,0.3-0.2,0.4-0.3c0.1-0.2,0.2-0.3,0.3-0.6C479.7,815.1,479.8,814.9,479.9,814.6z
					"/>
				<path class="st13" d="M486.5,818.3l-0.9-0.1l-1.7-3.7l-0.5,3.4l-1-0.1l0.7-5.1c0,0,0.1,0,0.2,0c0.1,0,0.2,0,0.3,0
					c0.1,0,0.3,0.1,0.4,0.1c0.1,0.1,0.2,0.2,0.2,0.3l1.5,3.5l0.5-3.5c0.1,0,0.2,0,0.2,0c0.1,0,0.1,0,0.1,0c0.1,0,0.1,0,0.2,0.1
					c0.1,0,0.1,0.1,0.2,0.1s0.1,0.1,0.1,0.2c0,0.1,0,0.2,0,0.3L486.5,818.3L486.5,818.3z"/>
				<path class="st13" d="M490.1,815.6l1.6,0.2l-0.1,0.8l-1.6-0.2l-0.3,2.3l-1.1-0.2l0.8-5.2l3.2,0.5c0,0.1,0,0.1,0,0.2
					c0,0,0,0.1,0,0.1c0,0.1-0.1,0.3-0.2,0.3c-0.1,0.1-0.3,0.1-0.5,0.1l-1.6-0.2L490.1,815.6z"/>
				<path class="st13" d="M494.2,814.1c0.1,0,0.2,0,0.2,0c0.1,0,0.1,0,0.1,0c0.1,0,0.1,0,0.2,0.1c0.1,0,0.1,0.1,0.2,0.1
					c0.1,0,0.1,0.1,0.2,0.2c0,0.1,0,0.2,0,0.3l-0.7,4.6l-1.1-0.2L494.2,814.1z"/>
				<path class="st13" d="M501,817.6c-0.1,0.4-0.1,0.7-0.3,1c-0.2,0.3-0.3,0.6-0.6,0.8c-0.2,0.2-0.5,0.4-0.9,0.5
					c-0.3,0.1-0.7,0.1-1.1,0.1l-1.6-0.2l0.7-5.1c0.3,0,0.6,0,0.9,0c0.2,0,0.4,0.1,0.6,0.1c0.5,0.1,0.9,0.2,1.3,0.4
					c0.3,0.2,0.6,0.4,0.7,0.7c0.2,0.3,0.3,0.6,0.3,0.9C501.1,817,501.1,817.3,501,817.6z M499.9,817.5c0-0.3,0-0.5,0-0.7
					c0-0.2-0.1-0.4-0.2-0.6c-0.1-0.2-0.2-0.3-0.4-0.4c-0.2-0.1-0.4-0.2-0.7-0.3c-0.1,0-0.3,0-0.5,0l-0.5,3.5l0.4,0.1
					c0.3,0,0.6,0,0.8,0c0.2,0,0.4-0.2,0.5-0.3s0.2-0.3,0.3-0.5S499.9,817.8,499.9,817.5z"/>
				<path class="st13" d="M505.3,820.1c0.3,0,0.4,0.1,0.5,0.3c0.1,0.1,0.1,0.3,0.1,0.4c0,0.1,0,0.1,0,0.1s0,0.1,0,0.1l-3.3-0.5
					l0.7-5.1l3.2,0.5c0,0.1,0,0.1,0,0.2c0,0,0,0.1,0,0.1c0,0.2-0.1,0.3-0.2,0.4c-0.1,0.1-0.3,0.1-0.5,0.1l-1.5-0.2l-0.2,1.3l1.6,0.2
					l-0.1,0.8l-1.6-0.2l-0.2,1.4L505.3,820.1L505.3,820.1z"/>
				<path class="st13" d="M511.6,821.9l-0.9-0.1l-1.7-3.7l-0.5,3.4l-1-0.1l0.7-5.1c0,0,0.1,0,0.2,0c0.1,0,0.2,0,0.3,0
					c0.1,0,0.3,0.1,0.4,0.1c0.1,0.1,0.2,0.2,0.2,0.3l1.5,3.5l0.5-3.5c0.1,0,0.2,0,0.2,0c0.1,0,0.1,0,0.1,0c0.1,0,0.1,0,0.2,0.1
					c0.1,0,0.1,0.1,0.2,0.1c0.1,0,0.1,0.1,0.1,0.2s0,0.2,0,0.3L511.6,821.9L511.6,821.9z"/>
				<path class="st13" d="M517.4,822.5c0,0-0.1,0.1-0.2,0.1c-0.1,0-0.2,0.1-0.3,0.1c-0.1,0-0.3,0-0.5,0c-0.2,0-0.4,0-0.6,0
					c-0.4-0.1-0.8-0.2-1-0.3c-0.3-0.2-0.5-0.4-0.7-0.7c-0.1-0.3-0.3-0.6-0.3-0.9c-0.1-0.3,0-0.7,0-1.1c0.1-0.4,0.1-0.7,0.3-1.1
					c0.2-0.3,0.3-0.6,0.6-0.8c0.2-0.2,0.5-0.4,0.8-0.4c0.3-0.1,0.7-0.1,1.1-0.1c0.2,0,0.4,0.1,0.5,0.1c0.1,0.1,0.3,0.1,0.4,0.2
					c0.1,0.1,0.2,0.1,0.3,0.2c0.1,0,0.1,0.1,0.2,0.2c0,0,0.1,0.1,0.1,0.2c0,0.1,0,0.1,0,0.2c0,0.1-0.1,0.2-0.2,0.3
					c-0.1,0.1-0.2,0.2-0.3,0.3c-0.1-0.1-0.1-0.1-0.2-0.2c-0.1-0.1-0.1-0.1-0.2-0.2c-0.1-0.1-0.2-0.1-0.3-0.2
					c-0.1-0.1-0.3-0.1-0.4-0.1c-0.3,0-0.5,0-0.7,0.1s-0.4,0.2-0.5,0.3c-0.1,0.2-0.2,0.3-0.3,0.6c-0.1,0.2-0.1,0.4-0.2,0.6
					c0,0.3,0,0.5,0,0.7s0.1,0.4,0.2,0.6c0.1,0.2,0.2,0.3,0.4,0.5s0.4,0.2,0.7,0.2c0.1,0,0.3,0,0.4,0c0.1,0,0.2,0,0.4-0.1
					c0.1,0,0.2-0.1,0.3-0.1c0.1-0.1,0.1-0.1,0.2-0.1c0,0,0.1,0.1,0.1,0.2c0,0,0.1,0.1,0.1,0.2c0,0.1,0.1,0.1,0.1,0.2
					c0,0.1,0,0.1,0,0.2c0,0.1,0,0.1-0.1,0.2C517.5,822.4,517.4,822.4,517.4,822.5z"/>
				<path class="st13" d="M522.2,822.6c0.3,0,0.4,0.1,0.5,0.3c0.1,0.1,0.1,0.3,0.1,0.4c0,0.1,0,0.1,0,0.1c0,0,0,0.1,0,0.1l-3.3-0.5
					l0.7-5.1l3.2,0.5c0,0.1,0,0.1,0,0.2c0,0,0,0.1,0,0.1c0,0.2-0.1,0.3-0.2,0.4c-0.1,0.1-0.3,0.1-0.5,0.1l-1.5-0.2l-0.2,1.3l1.6,0.2
					l-0.1,0.8l-1.6-0.2l-0.2,1.4L522.2,822.6L522.2,822.6z"/>
				<path class="st13" d="M527.9,819c0.1,0,0.2,0,0.2,0c0.1,0,0.1,0,0.1,0c0.1,0,0.1,0,0.2,0.1c0.1,0,0.1,0.1,0.2,0.1
					s0.1,0.1,0.2,0.2c0,0.1,0,0.2,0,0.3l-0.7,4.6l-1.1-0.2L527.9,819L527.9,819z"/>
				<path class="st13" d="M534.3,825.2l-0.9-0.1l-1.7-3.7l-0.5,3.4l-1-0.1l0.7-5.1c0,0,0.1,0,0.2,0c0.1,0,0.2,0,0.3,0
					c0.1,0,0.3,0.1,0.4,0.1c0.1,0.1,0.2,0.2,0.2,0.3l1.5,3.5l0.5-3.5c0.1,0,0.2,0,0.2,0c0.1,0,0.1,0,0.1,0c0.1,0,0.1,0,0.2,0.1
					c0.1,0,0.1,0.1,0.2,0.1c0.1,0,0.1,0.1,0.1,0.2c0,0.1,0,0.2,0,0.3L534.3,825.2L534.3,825.2z"/>
				<path class="st13" d="M540.9,821.8l-1.6-0.2l0,0c0-0.1,0-0.1,0-0.2c0,0,0-0.1,0-0.1c0-0.1,0.1-0.3,0.2-0.3
					c0.1-0.1,0.3-0.1,0.5-0.1l3.6,0.5c0,0.1,0,0.2,0,0.3c0,0.1-0.1,0.3-0.2,0.3s-0.3,0.1-0.5,0.1l-1-0.1l-0.6,4.3l-1.1-0.2
					L540.9,821.8L540.9,821.8z"/>
				<path class="st13" d="M547.3,826.3c0.3,0,0.4,0.1,0.5,0.3c0.1,0.1,0.1,0.3,0.1,0.4c0,0.1,0,0.1,0,0.1s0,0.1,0,0.1l-3.3-0.5
					l0.7-5.1l3.2,0.5c0,0.1,0,0.1,0,0.2c0,0,0,0.1,0,0.1c0,0.2-0.1,0.3-0.2,0.4c-0.1,0.1-0.3,0.1-0.5,0.1l-1.5-0.2l-0.2,1.3l1.6,0.2
					l-0.1,0.8l-1.6-0.2l-0.2,1.4L547.3,826.3L547.3,826.3z"/>
				<path class="st13" d="M551.5,826l-1.2,1.6l-1.1-0.2l1.9-2.3l-1-2.6c0.1,0,0.2,0,0.3-0.1c0.1,0,0.2,0,0.3,0
					c0.3,0,0.5,0.2,0.6,0.5l0.5,1.5l1-1.2c0.1-0.1,0.2-0.3,0.3-0.3c0.1-0.1,0.3-0.1,0.4-0.1c0.1,0,0.2,0,0.3,0.1s0.2,0.1,0.2,0.1
					l-1.8,2.2l1.1,2.8c-0.1,0-0.2,0-0.3,0c-0.1,0-0.2,0-0.3,0c-0.2,0-0.4-0.1-0.5-0.2s-0.2-0.2-0.2-0.4L551.5,826z"/>
				<path class="st13" d="M556.8,824.1l-1.6-0.2l0,0c0-0.1,0-0.1,0-0.2c0,0,0-0.1,0-0.1c0-0.1,0.1-0.3,0.2-0.3
					c0.1-0.1,0.3-0.1,0.5-0.1l3.6,0.5c0,0.1,0,0.2,0,0.3c0,0.1-0.1,0.3-0.2,0.3c-0.1,0.1-0.3,0.1-0.5,0.1l-1-0.1l-0.6,4.3l-1.1-0.2
					L556.8,824.1z"/>
				<path class="st13" d="M561.2,823.9c0.1,0,0.2,0,0.2,0c0.1,0,0.1,0,0.1,0c0.1,0,0.1,0,0.2,0.1c0.1,0,0.1,0.1,0.2,0.1
					s0.1,0.1,0.2,0.2c0,0.1,0,0.2,0,0.3l-0.7,4.6l-1.1-0.2L561.2,823.9L561.2,823.9z"/>
				<path class="st13" d="M564.7,828.8l1.5,0.2c0.1,0,0.2,0,0.3,0.1c0.1,0,0.1,0.1,0.2,0.1c0,0,0.1,0.1,0.1,0.2c0,0.1,0,0.2,0,0.2
					c0,0,0,0.1,0,0.2s0,0.1,0,0.1l-3.2-0.5l0.7-5.1c0.1,0,0.2,0,0.2,0c0.1,0,0.1,0,0.1,0c0.1,0,0.1,0,0.2,0.1c0.1,0,0.1,0.1,0.2,0.1
					s0.1,0.1,0.2,0.2c0,0.1,0,0.2,0,0.3L564.7,828.8z"/>
				<path class="st13" d="M571.2,829.7c0.3,0,0.4,0.1,0.5,0.3c0.1,0.1,0.1,0.3,0.1,0.4c0,0.1,0,0.1,0,0.1c0,0,0,0.1,0,0.1l-3.3-0.5
					l0.7-5.1l3.2,0.5c0,0.1,0,0.1,0,0.2c0,0,0,0.1,0,0.1c0,0.2-0.1,0.3-0.2,0.4s-0.3,0.1-0.5,0.1l-1.5-0.2l-0.2,1.3l1.6,0.2
					l-0.1,0.8l-1.6-0.2l-0.2,1.4L571.2,829.7L571.2,829.7z"/>
				<path class="st13" d="M573.6,829.7c0.1,0.1,0.3,0.3,0.5,0.4c0.2,0.1,0.4,0.2,0.7,0.3c0.1,0,0.2,0,0.3,0c0.1,0,0.2,0,0.3-0.1
					s0.2-0.1,0.2-0.2c0-0.1,0.1-0.2,0.1-0.3c0-0.1,0-0.3,0-0.3c-0.1-0.1-0.1-0.2-0.2-0.3c-0.1-0.1-0.2-0.1-0.3-0.2
					c-0.1-0.1-0.2-0.1-0.3-0.2c-0.1-0.1-0.3-0.2-0.5-0.3c-0.2-0.1-0.3-0.2-0.4-0.3c-0.1-0.1-0.2-0.3-0.3-0.5c0-0.2-0.1-0.4,0-0.6
					c0-0.3,0.1-0.5,0.2-0.6s0.3-0.3,0.5-0.4c0.2-0.1,0.4-0.2,0.6-0.2c0.2,0,0.5,0,0.7,0c0.2,0,0.3,0,0.5,0.1
					c0.1,0.1,0.3,0.1,0.4,0.2c0.1,0.1,0.2,0.1,0.3,0.2c0.1,0,0.1,0.1,0.2,0.1c0.1,0.1,0.2,0.2,0.2,0.4c0,0.1-0.1,0.1-0.1,0.2
					c-0.1,0.1-0.2,0.2-0.3,0.3c-0.1-0.1-0.3-0.2-0.5-0.4c-0.2-0.1-0.4-0.2-0.6-0.2c-0.1,0-0.2,0-0.3,0c-0.1,0-0.2,0-0.3,0.1
					c-0.1,0-0.2,0.1-0.2,0.2c0,0.1-0.1,0.2-0.1,0.3s0,0.2,0,0.3c0,0.1,0.1,0.2,0.2,0.3c0.1,0.1,0.2,0.1,0.3,0.2s0.2,0.1,0.3,0.2
					c0.1,0.1,0.3,0.2,0.5,0.3c0.2,0.1,0.3,0.2,0.4,0.3c0.1,0.1,0.2,0.3,0.3,0.5c0,0.2,0.1,0.4,0.1,0.6c0,0.3-0.1,0.5-0.3,0.7
					c-0.1,0.2-0.3,0.3-0.5,0.5c-0.2,0.1-0.4,0.2-0.7,0.2s-0.5,0-0.8,0c-0.4-0.1-0.7-0.1-0.9-0.2s-0.4-0.2-0.5-0.3
					c-0.1,0-0.1-0.1-0.1-0.2s-0.1-0.1,0-0.2c0-0.1,0.1-0.2,0.2-0.3C573.4,829.9,573.5,829.8,573.6,829.7z"/>
				<path class="st13" d="M484.2,800.6c-0.1,1-0.4,1.9-0.8,2.8c-0.3,0.8-0.8,1.6-1.4,2.1c-0.6,0.6-1.3,1-2.2,1.3
					c-0.9,0.2-1.8,0.3-3,0.2c-1.1-0.2-2-0.5-2.7-1c-0.7-0.5-1.3-1.1-1.7-1.8c-0.4-0.7-0.6-1.5-0.7-2.5c-0.1-0.9-0.1-1.9,0.1-2.8
					c0.1-1,0.4-1.8,0.8-2.7c0.4-0.8,0.9-1.5,1.5-2.1c0.6-0.6,1.3-1,2.2-1.2c0.9-0.3,1.8-0.3,2.9-0.2c1.1,0.2,2,0.5,2.7,1
					c0.7,0.5,1.3,1.1,1.7,1.8c0.4,0.7,0.6,1.5,0.7,2.4C484.4,798.6,484.4,799.6,484.2,800.6z M481.3,800.2c0.1-0.7,0.2-1.3,0.1-1.9
					c0-0.6-0.1-1.1-0.3-1.6c-0.2-0.5-0.5-0.9-0.8-1.2c-0.4-0.3-0.9-0.5-1.5-0.6c-0.6-0.1-1.2-0.1-1.6,0.2c-0.4,0.2-0.9,0.5-1.2,0.9
					c-0.4,0.4-0.6,0.9-0.8,1.4c-0.2,0.6-0.4,1.2-0.5,1.8c-0.1,0.7-0.1,1.3-0.1,1.9c0,0.6,0.1,1.2,0.3,1.7c0.2,0.5,0.5,0.9,0.9,1.2
					c0.4,0.3,0.9,0.5,1.5,0.6c0.6,0.1,1.2,0,1.6-0.2c0.5-0.2,0.9-0.5,1.2-0.9c0.3-0.4,0.6-0.9,0.8-1.5
					C481.1,801.5,481.2,800.8,481.3,800.2z"/>
				<path class="st13" d="M493.2,806.7c0.7,0.1,1.1,0.3,1.3,0.6c0.2,0.3,0.3,0.7,0.2,1c0,0.1,0,0.3-0.1,0.4c0,0.1,0,0.2-0.1,0.3
					l-8.9-1.3l2-13.6l8.5,1.2c0,0.2,0,0.3,0,0.4c0,0.1,0,0.2,0,0.4c-0.1,0.5-0.3,0.8-0.5,1c-0.3,0.2-0.7,0.3-1.4,0.2l-4.1-0.6
					l-0.5,3.4l4.4,0.6l-0.3,2.2l-4.4-0.6l-0.6,3.8L493.2,806.7L493.2,806.7z"/>
				<path class="st13" d="M498.4,795.7c0.2,0,0.4,0,0.6,0c0.2,0,0.3,0,0.4,0c0.2,0,0.4,0.1,0.6,0.2c0.2,0.1,0.4,0.2,0.6,0.3
					s0.3,0.3,0.4,0.5c0.1,0.2,0.1,0.5,0,0.9l-0.7,4.9c0.1-0.3,0.2-0.6,0.4-0.8c0.2-0.3,0.5-0.5,0.7-0.8l3.4-3.3
					c0.4-0.4,0.7-0.6,1.1-0.7c0.4-0.1,0.7-0.2,1-0.1c0.4,0.1,0.7,0.1,1,0.3c0.3,0.2,0.5,0.3,0.6,0.5L503,803l4.1,7.6
					c-0.6,0.3-1.1,0.4-1.7,0.3c-0.9-0.1-1.6-0.6-2-1.4l-2.4-4.3c-0.2-0.4-0.4-0.7-0.5-1.2c-0.2-0.4-0.2-0.8-0.2-1.2l-1,6.9l-2.8-0.4
					L498.4,795.7L498.4,795.7z"/>
				<path class="st13" d="M520.5,805.8c-0.1,1-0.4,1.9-0.8,2.8c-0.3,0.8-0.9,1.6-1.4,2.1c-0.6,0.6-1.3,1-2.2,1.3
					c-0.8,0.3-1.8,0.3-2.9,0.2c-1.1-0.2-2-0.5-2.7-1c-0.7-0.5-1.3-1.1-1.7-1.8c-0.4-0.7-0.6-1.5-0.7-2.5c-0.1-0.9-0.1-1.8,0.1-2.8
					c0.1-1,0.4-1.8,0.8-2.7c0.4-0.8,0.9-1.5,1.5-2.1c0.6-0.6,1.3-1,2.2-1.2c0.9-0.3,1.8-0.3,2.9-0.2c1.1,0.2,2,0.5,2.7,1
					c0.7,0.5,1.3,1.1,1.7,1.8c0.4,0.7,0.6,1.5,0.8,2.4C520.6,803.9,520.6,804.9,520.5,805.8z M517.6,805.5c0.1-0.7,0.2-1.3,0.1-1.9
					c0-0.6-0.1-1.1-0.3-1.6c-0.2-0.5-0.5-0.9-0.8-1.2c-0.4-0.3-0.9-0.5-1.4-0.6c-0.6-0.1-1.2-0.1-1.6,0.2c-0.5,0.2-0.9,0.5-1.2,0.9
					c-0.3,0.4-0.6,0.9-0.8,1.4s-0.4,1.2-0.5,1.8c-0.1,0.7-0.1,1.3-0.1,1.9c0,0.6,0.1,1.2,0.3,1.7c0.2,0.5,0.5,0.9,0.9,1.2
					c0.4,0.3,0.9,0.5,1.5,0.6s1.2,0,1.6-0.2c0.4-0.2,0.9-0.5,1.1-1c0.3-0.4,0.6-0.9,0.8-1.5C517.3,806.7,517.5,806.1,517.6,805.5z"
					/>
				<path class="st13" d="M523.9,808.6c-1-0.1-1.4-0.7-1.3-1.5c0-0.3,0.1-0.6,0.2-0.9l5.1,0.7c0.4,0.1,0.8,0.2,1.1,0.4
					c0.3,0.2,0.4,0.6,0.3,1.1c0,0.1,0,0.3-0.1,0.4c-0.1,0.1-0.1,0.3-0.1,0.4L523.9,808.6z"/>
				<path class="st13" d="M533.9,803.2l-4.3-0.6l0,0c0-0.2,0-0.3,0-0.4c0-0.1,0-0.2,0.1-0.4c0.1-0.4,0.2-0.7,0.6-1
					c0.3-0.3,0.8-0.4,1.4-0.3l9.6,1.4c0,0.3,0,0.6-0.1,0.9c-0.1,0.4-0.2,0.7-0.5,0.9s-0.8,0.3-1.4,0.2l-2.6-0.4l-1.7,11.4l-2.9-0.4
					L533.9,803.2L533.9,803.2z"/>
				<path class="st13" d="M548.4,814.7c0.7,0.1,1.1,0.3,1.3,0.6c0.2,0.3,0.3,0.7,0.2,1c0,0.1,0,0.3-0.1,0.4c0,0.1,0,0.2-0.1,0.3
					l-8.9-1.3l2-13.6l8.5,1.2c0,0.2,0,0.3,0,0.4c0,0.1,0,0.2-0.1,0.4c-0.1,0.5-0.3,0.8-0.5,1c-0.3,0.2-0.7,0.3-1.4,0.2l-4-0.6
					l-0.5,3.4l4.4,0.6l-0.3,2.2l-4.4-0.6l-0.6,3.8l4.4,0.6L548.4,814.7z"/>
				<path class="st13" d="M556.8,813.6l-3.3,4.2l-3.1-0.4l5.1-6.2l-2.6-7c0.3-0.1,0.6-0.1,0.9-0.2c0.3,0,0.6,0,0.9,0
					c0.7,0.1,1.2,0.5,1.5,1.2l1.5,4l2.5-3.2c0.3-0.4,0.6-0.7,0.9-0.8c0.3-0.1,0.7-0.2,1.1-0.1c0.3,0,0.5,0.1,0.8,0.2
					s0.4,0.3,0.7,0.4l-4.8,5.9l3,7.5c-0.3,0-0.6,0.1-0.9,0.1c-0.3,0-0.6,0-0.8,0c-0.5-0.1-1-0.3-1.2-0.5c-0.3-0.3-0.5-0.6-0.6-1
					L556.8,813.6z"/>
				<path class="st13" d="M576.1,812.3c0,0.3-0.1,0.5-0.2,0.8c-0.1,0.2-0.2,0.4-0.4,0.5c-0.1,0.2-0.3,0.2-0.5,0.4
					c-0.2,0.1-0.4,0.1-0.6,0.2l1.3,3.2c-0.2,0-0.3,0.1-0.5,0.1c-0.2,0-0.3,0-0.4,0c-0.3,0-0.5-0.1-0.6-0.3s-0.3-0.3-0.4-0.6
					l-0.9-2.2l-0.6-0.1l-0.4,2.7l-1.5-0.2l1-7c0.3,0,0.7,0,1,0.1c0.3,0,0.6,0.1,0.9,0.1c1,0.1,1.8,0.4,2.2,0.8
					C576,811.1,576.2,811.7,576.1,812.3z M574.5,812.3c0.1-0.4,0-0.8-0.2-1c-0.2-0.2-0.5-0.3-0.9-0.4c-0.1,0-0.2,0-0.3,0
					c-0.1,0-0.2,0-0.2,0l-0.4,2.4l0.5,0.1c0.4,0.1,0.8,0,1-0.1C574.3,813,574.5,812.7,574.5,812.3z"/>
				<path class="st13" d="M580.5,814.7c-0.6,4-4.3,6.8-8.3,6.2c-4-0.6-6.8-4.3-6.2-8.3c0.6-4,4.3-6.8,8.3-6.2S581,810.7,580.5,814.7
					z M574,808.1c-3.1-0.4-5.9,1.7-6.4,4.7c-0.4,3.1,1.7,5.9,4.8,6.4s5.9-1.7,6.4-4.7C579.2,811.4,577.1,808.5,574,808.1z"/>
			</g>
		</g>
	</g>
	<g>
		<ellipse class="st1" cx="792.6" cy="477" rx="158" ry="157.6"/>
		<ellipse class="st2" cx="792.6" cy="477" rx="136.8" ry="136.5"/>
		<ellipse class="st3" cx="792.6" cy="477" rx="132.2" ry="131.9"/>
		<ellipse class="st0" cx="792.6" cy="477" rx="141.6" ry="141.3"/>
		<path class="st14" d="M828.5,426.3c-9-9-15.3-14.6-18.5-18c-1-1.1-16.6,5.7-16.6,5.7"/>
		<path class="st14" d="M800.4,460.7c-22.5,0.4-25.8-3.7-30.5-15.8l28.4-7.2L800.4,460.7z"/>
		<path class="st15" d="M732.8,450.2c-4.7,0.5-7,3.6-8.6,8.6c-1.6-5-3.9-8.1-8.6-8.6c-8-0.8-12.2,7.6-5.7,17.2
			c3.5,5.1,9.9,11.7,14.3,15.6c4.5-3.9,10.8-10.4,14.3-15.6C745,457.8,740.8,449.4,732.8,450.2z"/>
		<path class="st16" d="M812.3,433.9c-13.9-3.8-31-9.2-37.4-9.2c-5.6,0-25.6,0.2-29.2,1.6c-3.6,1.3-25.9,12.1-28.8,13.5
			c-2.9,1.4,5,9,12.2,8.8c7.2-0.2,27.7-5.3,29.5-5.6s33.4,6.5,34.3,7.4s10.6,13.1,12.7,18.3c5.3,13.1-7.4,16.8-14.5,15.3
			c0,0-17.9-15.5-37-15.5c-19.1,0-29.6,18.3-22.9,18.3c7,0,17.6,0.2,21.6,1.3c6.4,1.8,17.6,15.3,21.3,18.8
			c3.8,3.7,38.7,21.5,41.3,25.7c2.2,3.6,11.9,19.4,15.4,24.2c9.4,12.9,62-15.8,53.6-28.8c-5.3-8.2-15.5-22.5-17.6-25.2
			c-2.2-2.6-28.8-70-29.5-72.4c-0.7-2.4-48.2-18-51.8-19.2s-5.5,3.1-13.8,13.5"/>
	</g>
	<g>
		<ellipse class="st1" cx="475" cy="159.3" rx="158" ry="157.6"/>
		<ellipse class="st2" cx="475" cy="159.3" rx="136.8" ry="136.5"/>
		<g>
			
				<rect x="494.3" y="132.1" transform="matrix(0.9921 -0.1258 0.1258 0.9921 -16.298 67.274)" class="st13" width="60.7" height="61.3"/>
			<g>
				<g>
					<polygon class="st17" points="468,133.4 571.5,120.3 592.9,120.7 572.3,126.4 468.8,139.5 					"/>
					<path class="st17" d="M462.8,130.2l4.1-0.5c0.3,0,0.6,0.2,0.7,0.5l1.6,12.5c0,0.3-0.2,0.6-0.5,0.7l-4.1,0.5
						c-0.3,0-0.6-0.2-0.7-0.5l-1.6-12.5C462.3,130.6,462.5,130.3,462.8,130.2z"/>
				</g>
				<path class="st18" d="M491.3,139.1c2,1.7,7.2,5.4,8.7,5.7c2.3,0.4,2.8,4,0,4.4c-2.8,0.4-9.1-4.8-10.5-6.1
					C487.2,140.9,489.3,137.4,491.3,139.1z"/>
				<path class="st18" d="M489.4,147c1.7-2,5.4-7.1,5.7-8.7c0.4-2.3,4-2.8,4.4,0c0.4,2.8-4.8,9-6.1,10.5
					C491.2,151,487.7,148.9,489.4,147z"/>
				<path class="st18" d="M505,137.3c2,1.7,7.2,5.4,8.7,5.7c2.3,0.4,2.8,4,0,4.4c-2.8,0.4-9.1-4.8-10.5-6.1
					C501,139.1,503.1,135.6,505,137.3z"/>
				<path class="st18" d="M503.2,145.2c1.7-2,5.4-7.1,5.7-8.7c0.4-2.3,4-2.8,4.4,0s-4.8,9-6.1,10.5
					C505,149.3,501.5,147.2,503.2,145.2z"/>
				<path class="st18" d="M518.8,135.6c2,1.7,7.2,5.4,8.7,5.7c2.3,0.4,2.8,4,0,4.4c-2.8,0.4-9.1-4.8-10.5-6.1
					C514.7,137.4,516.8,133.9,518.8,135.6z"/>
				<path class="st18" d="M516.9,143.5c1.7-2,5.4-7.1,5.7-8.7c0.4-2.3,4-2.8,4.4,0c0.4,2.8-4.8,9-6.1,10.5
					C518.7,147.5,515.2,145.4,516.9,143.5z"/>
				<path class="st18" d="M532.5,133.8c2,1.7,7.2,5.4,8.7,5.7c2.3,0.4,2.8,4,0,4.4c-2.8,0.4-9.1-4.8-10.5-6.1
					C528.5,135.6,530.6,132.2,532.5,133.8z"/>
				<path class="st18" d="M530.7,141.7c1.7-2,5.4-7.1,5.7-8.7c0.4-2.3,4-2.8,4.4,0c0.4,2.8-4.8,9-6.1,10.5
					C532.5,145.8,529,143.7,530.7,141.7z"/>
				<path class="st18" d="M546.3,132.1c2,1.7,7.2,5.4,8.7,5.7c2.3,0.4,2.8,4,0,4.4s-9.1-4.8-10.5-6.1
					C542.2,133.9,544.3,130.4,546.3,132.1z"/>
				<path class="st18" d="M544.4,140c1.7-2,5.4-7.1,5.7-8.7c0.4-2.3,4-2.8,4.4,0c0.4,2.8-4.8,9-6.1,10.5
					C546.2,144.1,542.7,142,544.4,140z"/>
				<path class="st18" d="M492.9,151.5c2,1.7,7.2,5.4,8.7,5.7c2.3,0.4,2.8,4,0,4.4c-2.8,0.4-9.1-4.8-10.5-6.1
					C488.8,153.3,490.9,149.8,492.9,151.5z"/>
				<path class="st18" d="M491,159.4c1.7-2,5.4-7.1,5.7-8.7c0.4-2.3,4-2.8,4.4,0c0.4,2.8-4.8,9-6.1,10.5
					C492.8,163.5,489.3,161.4,491,159.4z"/>
				<path class="st18" d="M506.6,149.8c2,1.7,7.2,5.4,8.7,5.7c2.3,0.4,2.8,4,0,4.4s-9.1-4.8-10.5-6.1
					C502.5,151.5,504.6,148.1,506.6,149.8z"/>
				<path class="st18" d="M504.8,157.6c1.7-2,5.4-7.1,5.7-8.7c0.4-2.3,4-2.8,4.4,0s-4.8,9-6.1,10.5
					C506.6,161.7,503.1,159.6,504.8,157.6z"/>
				<path class="st18" d="M520.4,148c2,1.7,7.2,5.4,8.7,5.7c2.3,0.4,2.8,4,0,4.4c-2.8,0.4-9.1-4.8-10.5-6.1
					C516.3,149.8,518.4,146.3,520.4,148z"/>
				<path class="st18" d="M518.5,155.9c1.7-2,5.4-7.1,5.7-8.7c0.4-2.3,4-2.8,4.4,0c0.4,2.8-4.8,9-6.1,10.5
					C520.3,160,516.8,157.9,518.5,155.9z"/>
				<path class="st18" d="M534.1,146.3c2,1.7,7.2,5.4,8.7,5.7c2.3,0.4,2.8,4,0,4.4s-9.1-4.8-10.5-6.1
					C530,148.1,532.1,144.6,534.1,146.3z"/>
				<path class="st18" d="M532.3,154.2c1.7-2,5.4-7.1,5.7-8.7c0.4-2.3,4-2.8,4.4,0c0.4,2.8-4.8,9-6.1,10.5
					C534.1,158.2,530.6,156.1,532.3,154.2z"/>
				<path class="st18" d="M547.9,144.5c2,1.7,7.2,5.4,8.7,5.7c2.3,0.4,2.8,4,0,4.4c-2.8,0.4-9.1-4.8-10.5-6.1
					C543.8,146.3,545.9,142.8,547.9,144.5z"/>
				<path class="st18" d="M546,152.4c1.7-2,5.4-7.1,5.7-8.7c0.4-2.3,4-2.8,4.4,0c0.4,2.8-4.8,9-6.1,10.5
					C547.8,156.5,544.3,154.4,546,152.4z"/>
				<path class="st18" d="M494.5,163.9c2,1.7,7.2,5.4,8.7,5.7c2.3,0.4,2.8,4,0,4.4s-9.1-4.8-10.5-6.1
					C490.4,165.7,492.5,162.2,494.5,163.9z"/>
				<path class="st18" d="M492.6,171.8c1.7-2,5.4-7.1,5.7-8.7c0.4-2.3,4-2.8,4.4,0c0.4,2.8-4.8,9-6.1,10.5
					C494.4,175.9,490.9,173.8,492.6,171.8z"/>
				<path class="st18" d="M508.2,162.2c2,1.7,7.2,5.4,8.7,5.7c2.3,0.4,2.8,4,0,4.4s-9.1-4.8-10.5-6.1
					C504.1,164,506.2,160.5,508.2,162.2z"/>
				<path class="st18" d="M506.3,170.1c1.7-2,5.4-7.1,5.7-8.7c0.4-2.3,4-2.8,4.4,0s-4.8,9-6.1,10.5
					C508.1,174.1,504.7,172,506.3,170.1z"/>
				<path class="st18" d="M522,160.4c2,1.7,7.2,5.4,8.7,5.7c2.3,0.4,2.8,4,0,4.4s-9.1-4.8-10.5-6.1C517.9,162.2,520,158.8,522,160.4
					z"/>
				<path class="st18" d="M520.1,168.3c1.7-2,5.4-7.1,5.7-8.7c0.4-2.3,4-2.8,4.4,0c0.4,2.8-4.8,9-6.1,10.5
					C521.9,172.4,518.4,170.3,520.1,168.3z"/>
				<path class="st18" d="M535.7,158.7c2,1.7,7.2,5.4,8.7,5.7c2.3,0.4,2.8,4,0,4.4s-9.1-4.8-10.5-6.1
					C531.6,160.5,533.7,157,535.7,158.7z"/>
				<path class="st18" d="M533.9,166.6c1.7-2,5.4-7.1,5.7-8.7c0.4-2.3,4-2.8,4.4,0c0.4,2.8-4.8,9-6.1,10.5
					C535.6,170.7,532.2,168.6,533.9,166.6z"/>
				<path class="st18" d="M549.5,157c2,1.7,7.2,5.4,8.7,5.7c2.3,0.4,2.8,4,0,4.4c-2.8,0.4-9.1-4.8-10.5-6.1
					C545.4,158.7,547.5,155.3,549.5,157z"/>
				<path class="st18" d="M547.6,164.8c1.7-2,5.4-7.1,5.7-8.7c0.4-2.3,4-2.8,4.4,0c0.4,2.8-4.8,9-6.1,10.5
					C549.4,168.9,545.9,166.8,547.6,164.8z"/>
				<path class="st18" d="M496,176.4c2,1.7,7.2,5.4,8.7,5.7c2.3,0.4,2.8,4,0,4.4s-9.1-4.8-10.5-6.1
					C491.9,178.1,494.1,174.7,496,176.4z"/>
				<path class="st18" d="M494.2,184.2c1.7-2,5.4-7.1,5.7-8.7c0.4-2.3,4-2.8,4.4,0c0.4,2.8-4.8,9-6.1,10.5
					C496,188.3,492.5,186.2,494.2,184.2z"/>
				<path class="st18" d="M509.8,174.6c2,1.7,7.2,5.4,8.7,5.7c2.3,0.4,2.8,4,0,4.4c-2.8,0.4-9.1-4.8-10.5-6.1
					C505.7,176.4,507.8,172.9,509.8,174.6z"/>
				<path class="st18" d="M507.9,182.5c1.7-2,5.4-7.1,5.7-8.7c0.4-2.3,4-2.8,4.4,0s-4.8,9-6.1,10.5
					C509.7,186.6,506.2,184.5,507.9,182.5z"/>
				<path class="st18" d="M523.5,172.9c2,1.7,7.2,5.4,8.7,5.7c2.3,0.4,2.8,4,0,4.4s-9.1-4.8-10.5-6.1
					C519.4,174.7,521.6,171.2,523.5,172.9z"/>
				<path class="st18" d="M521.7,180.7c1.7-2,5.4-7.1,5.7-8.7c0.4-2.3,4-2.8,4.4,0c0.4,2.8-4.8,9-6.1,10.5
					C523.5,184.8,520,182.7,521.7,180.7z"/>
				<path class="st18" d="M537.3,171.1c2,1.7,7.2,5.4,8.7,5.7c2.3,0.4,2.8,4,0,4.4s-9.1-4.8-10.5-6.1
					C533.2,172.9,535.3,169.4,537.3,171.1z"/>
				<path class="st18" d="M535.4,179c1.7-2,5.4-7.1,5.7-8.7c0.4-2.3,4-2.8,4.4,0s-4.8,9-6.1,10.5C537.2,183.1,533.7,181,535.4,179z"
					/>
				<path class="st18" d="M551,169.4c2,1.7,7.2,5.4,8.7,5.7c2.3,0.4,2.8,4,0,4.4c-2.8,0.4-9.1-4.8-10.5-6.1
					C547,171.2,549.1,167.7,551,169.4z"/>
				<path class="st18" d="M549.2,177.3c1.7-2,5.4-7.1,5.7-8.7c0.4-2.3,4-2.8,4.4,0c0.4,2.8-4.8,9-6.1,10.5
					C551,181.3,547.5,179.2,549.2,177.3z"/>
				<path class="st18" d="M497.6,188.8c2,1.7,7.2,5.4,8.7,5.7c2.3,0.4,2.8,4,0,4.4s-9.1-4.8-10.5-6.1
					C493.5,190.6,495.6,187.1,497.6,188.8z"/>
				<path class="st18" d="M495.8,196.7c1.7-2,5.4-7.1,5.7-8.7c0.4-2.3,4-2.8,4.4,0c0.4,2.8-4.8,9-6.1,10.5
					C497.6,200.7,494.1,198.6,495.8,196.7z"/>
				<path class="st18" d="M511.4,187c2,1.7,7.2,5.4,8.7,5.7c2.3,0.4,2.8,4,0,4.4c-2.8,0.4-9.1-4.8-10.5-6.1
					C507.3,188.8,509.4,185.3,511.4,187z"/>
				<path class="st18" d="M509.5,194.9c1.7-2,5.4-7.1,5.7-8.7c0.4-2.3,4-2.8,4.4,0s-4.8,9-6.1,10.5
					C511.3,199,507.8,196.9,509.5,194.9z"/>
				<path class="st18" d="M525.1,185.3c2,1.7,7.2,5.4,8.7,5.7c2.3,0.4,2.8,4,0,4.4s-9.1-4.8-10.5-6.1
					C521,187.1,523.1,183.6,525.1,185.3z"/>
				<path class="st18" d="M523.3,193.2c1.7-2,5.4-7.1,5.7-8.7c0.4-2.3,4-2.8,4.4,0c0.4,2.8-4.8,9-6.1,10.5
					C525.1,197.3,521.6,195.1,523.3,193.2z"/>
				<path class="st18" d="M538.9,183.6c2,1.7,7.2,5.4,8.7,5.7c2.3,0.4,2.8,4,0,4.4s-9.1-4.8-10.5-6.1
					C534.8,185.3,536.9,181.9,538.9,183.6z"/>
				<path class="st18" d="M537,191.4c1.7-2,5.4-7.1,5.7-8.7c0.4-2.3,4-2.8,4.4,0s-4.8,9-6.1,10.5C538.8,195.5,535.3,193.4,537,191.4
					z"/>
				<path class="st18" d="M552.6,181.8c2,1.7,7.2,5.4,8.7,5.7c2.3,0.4,2.8,4,0,4.4c-2.8,0.4-9.1-4.8-10.5-6.1
					C548.5,183.6,550.6,180.1,552.6,181.8z"/>
				<path class="st18" d="M550.8,189.7c1.7-2,5.4-7.1,5.7-8.7c0.4-2.3,4-2.8,4.4,0c0.4,2.8-4.8,9-6.1,10.5
					C552.6,193.8,549.1,191.7,550.8,189.7z"/>
				<path class="st18" d="M487.7,137.6c0.2-1.1,0-4.9-0.9-7.3c-0.9-2.4,3.5-3.6,4.2-0.5c0.6,2.6,1.1,6.2,0.9,7.3
					C491.4,139.7,487.4,139.4,487.7,137.6z"/>
				<path class="st18" d="M495.5,136.7c0.2-1.1,0-4.9-0.9-7.3c-0.9-2.4,3.5-3.6,4.2-0.5c0.6,2.6,1.1,6.2,0.9,7.3
					C499.2,138.7,495.2,138.4,495.5,136.7z"/>
				<path class="st18" d="M503.3,135.7c0.2-1.1,0-4.9-0.9-7.3c-0.9-2.4,3.5-3.6,4.2-0.5c0.6,2.6,1.1,6.2,0.9,7.3
					C507,137.7,503,137.4,503.3,135.7z"/>
				<path class="st18" d="M511.1,134.7c0.2-1.1,0-4.9-0.9-7.3c-0.9-2.4,3.5-3.6,4.2-0.5c0.6,2.6,1.1,6.2,0.9,7.3
					C514.8,136.7,510.8,136.4,511.1,134.7z"/>
				<path class="st18" d="M518.9,133.7c0.2-1.1,0-4.9-0.9-7.3c-0.9-2.4,3.5-3.6,4.2-0.5c0.6,2.6,1.1,6.2,0.9,7.3
					C522.6,135.7,518.6,135.4,518.9,133.7z"/>
				<path class="st18" d="M526.7,132.7c0.2-1.1,0-4.9-0.9-7.3c-0.9-2.4,3.5-3.6,4.2-0.5c0.6,2.6,1.1,6.2,0.9,7.3
					C530.4,134.7,526.4,134.4,526.7,132.7z"/>
				<path class="st18" d="M534.5,131.7c0.2-1.1,0-4.9-0.9-7.3c-0.9-2.4,3.5-3.6,4.2-0.5c0.6,2.6,1.1,6.2,0.9,7.3
					C538.2,133.7,534.2,133.4,534.5,131.7z"/>
				<path class="st18" d="M542.3,130.7c0.2-1.1,0-4.9-0.9-7.3c-0.9-2.4,3.5-3.6,4.2-0.5c0.6,2.6,1.1,6.2,0.9,7.3
					C546,132.7,542,132.4,542.3,130.7z"/>
				<path class="st18" d="M550.1,129.7c0.2-1.1,0-4.9-0.9-7.3c-0.9-2.4,3.5-3.6,4.2-0.5c0.6,2.6,1.1,6.2,0.9,7.3
					C553.8,131.8,549.8,131.4,550.1,129.7z"/>
			</g>
		</g>
		<ellipse class="st3" cx="475" cy="159.3" rx="132.2" ry="131.9"/>
		<ellipse class="st0" cx="475" cy="159.3" rx="141.6" ry="141.3"/>
		<g>
			<path class="st19" d="M457.3,88.7c-0.8,3-24.6,86.2-25.5,86s19-84.5,19.8-87.5c0.8-3,2.7-5.1,4.3-4.7
				C457.5,82.9,458.1,85.7,457.3,88.7z"/>
			<line class="st20" x1="454.9" y1="86.3" x2="452" y2="97.5"/>
			<path class="st21" d="M454.3,90.8c13.8,3.5,20.3,27.3,42.8,16.7"/>
			<path class="st21" d="M451,89.6c-13.8-5-4.8-29.6-31.8-33.7"/>
		</g>
		<g>
			<path class="st22" d="M465.6,229.7l11.6,0.5c0.4-6,7-11,13.5-10.6c10.7,0.7,16.9,3.7,16.5,9.9c-0.9,13.8-25.8,6.4-30.5,6.1
				c-2.1-0.1-9.5,0.2-11.8,0.4L465.6,229.7z"/>
			<path class="st22" d="M454.2,228.8l-46-2.9c0,0,44.7,11.2,54.5,13.7L454.2,228.8z"/>
			<path class="st23" d="M482,230c0.3-4.2,4.8-7.6,9.3-7.3c7.4,0.5,11.7,2.5,11.4,6.8c-0.3,5.2-5.6,6-10.9,5.7
				C487.4,234.9,481.7,233.4,482,230z"/>
			<path class="st22" d="M425.8,192.5l42.6,54.5c-4.8,3.7-5.2,12-1.2,17.1c6.6,8.4,12.6,11.9,17.5,8c10.9-8.5-9.2-24.8-12.2-28.6
				c-2-2.5-4.9-6.7-5.1-8.7c-0.3-3.4,1.4-4.3-0.4-5.9C465.2,227.4,425.8,192.5,425.8,192.5z"/>
			<path class="st23" d="M470.8,251.1c-3.3,2.6-3.6,8.3-0.8,11.8c4.6,5.8,8.7,8.2,12.1,5.5c4.1-3.2,1.8-8-1.4-12.2
				C477.9,252.8,473.5,249,470.8,251.1z"/>
			
				<ellipse transform="matrix(0.9976 -6.899370e-02 6.899370e-02 0.9976 -14.9329 32.491)" class="st20" cx="462.9" cy="232.4" rx="1.8" ry="1.8"/>
		</g>
		<g>
			<g>
				<path class="st24" d="M407.9,145.7c7-8.7,7.4-24.2-11.5-27.5c-18.9-3.3-24.1,11.3-20.1,22l-2.6,17.1c-7.5,9-8.1,25.2,10.8,28.5
					c18.9,3.3,24.4-11.6,19.8-23.1L407.9,145.7c0.3-6.8-2.6-15.2-5.9-19.9"/>
				<path class="st25" d="M385.9,143.6c1-5.9,11.3-19.8,23.1-19.2"/>
				<path class="st25" d="M381.5,142.4c1.2-7,12.1-20.7,22.9-21.6"/>
				<path class="st25" d="M377.6,141.1c1.5-8.8,10-18.9,19.7-22.7"/>
				<path class="st25" d="M375.3,136.2c2.6-9.2,10.3-17,15.5-18.5"/>
				<path class="st25" d="M388,138.4c1,2.1,1.9,3,2.3,6.8"/>
				<path class="st25" d="M390.7,134.6c1.3,1.8,4.5,6,3.9,11.4"/>
				<path class="st25" d="M394.2,130.8c1.7,2.8,5.4,8,5.1,15.6"/>
				<path class="st25" d="M397.9,127.9c2.5,3.5,6.2,10.3,5.9,18.5"/>
				<path class="st25" d="M406,124.6c2.9,5.3,4.8,10.7,5.2,15.3"/>
				<path class="st25" d="M394.6,163.1c-0.5,2.7-10.9,17.1-22.7,16.5"/>
				<path class="st25" d="M399.1,163.2c-0.8,4.4-11.4,19.2-22.3,20"/>
				<path class="st25" d="M403.3,162.9c-1.5,8.8-10,18.9-19.7,22.7"/>
				<path class="st25" d="M405.7,167.8c-2.6,9.2-10.3,17-15.5,18.5"/>
				<path class="st25" d="M382.9,166.4c-0.7-1.8-1.2-3.8-1.3-5.9"/>
				<path class="st25" d="M379.2,168.9c-1.2-3-2.1-6.4-2-9.9"/>
				<path class="st25" d="M375.4,171.7c-1.4-3.9-2.4-7.5-2.3-13.4"/>
				<path class="st25" d="M372,173.2c-1.4-2.8-1.6-4.1-2.3-9.1"/>
				<path class="st25" d="M390.2,162.3c-1.4,4.7-8.3,12-19.6,15.4"/>
				<path class="st25" d="M386,161.6c-1,3.9-8.5,10.3-17,12.6"/>
			</g>
			<path class="st17" d="M405.1,162.5c-7.3,2.3-25.8-0.9-31.8-5.5l2.9-16.9c6.1,4.6,24.6,7.8,31.8,5.5L405.1,162.5z"/>
		</g>
	</g>
	<g>
		<ellipse class="st1" cx="157.4" cy="477" rx="158" ry="157.3"/>
		<g>
			<path class="st26" d="M192.1,508.4c12.2,0,29.9-3.6,29.9-3.6s-0.5-3.3-1.3-5.2c0,0-14.5,3.5-28.5,3.5s-28.5-3.5-28.5-3.5
				c-0.9,1.8-1.3,5.2-1.3,5.2 M192.1,508.3c-13.6,0-29.9-3.5-29.9-3.5s-10.5,27.6-14.7,64.5c35.7,8.4,53.4,8.1,88.8,0
				c-4.6-39.3-14.4-64.5-14.4-64.5"/>
			<path class="st27" d="M192.1,503.2v72.2"/>
			<ellipse class="st28" cx="195.1" cy="505.7" rx="1.5" ry="1.4"/>
			<path class="st27" d="M177.9,507.3c0,0,0,5.5-3.8,6.4c-3.7,0.9-14.7-0.3-14.7-0.3"/>
			<path class="st27" d="M206.5,507.3c0,0,0,5.5,3.8,6.4c3.7,0.9,14.7-0.3,14.7-0.3"/>
			<path class="st27" d="M192.1,539.7c2.8,0,4.1-1.4,4.5-2.1c0,0,0.2-0.4,0.2-1v-27.7"/>
			<path class="st27" d="M192.1,539.7c-0.1,0-0.1,0-0.2,0 M196.9,508.1v0.2"/>
			<path class="st26" d="M179.5,502c0,0-0.6,2.2-0.8,6.9l-3.4-0.3c0,0-0.1-3.3,0.9-6.8C176.2,501.8,178.8,501.5,179.5,502z"/>
			<path class="st26" d="M204.9,502c0,0,0.6,2.2,0.8,6.9l3.4-0.3c0,0,0.1-3.3-0.9-6.8C208.1,501.8,205.6,501.5,204.9,502z"/>
			<path class="st29" d="M148.5,566.5c35.7,8.4,52.4,8.3,87.9,0.2"/>
		</g>
		<polyline class="st30" points="91.9,460.7 92.7,465.2 144,465.2 145,460.7 		"/>
		<polygon class="st19" points="92.1,417.9 79.2,410.2 79.2,405.9 86.1,386.7 91.9,401 		"/>
		<polyline class="st18" points="92.1,412.8 79.2,405.9 79.2,410.2 92.1,417.9 92.1,412.8 92.1,412.8 		"/>
		<polygon class="st19" points="144.8,417.9 157.7,410.2 157.7,405.9 150.8,386.7 145,401 		"/>
		<polyline class="st18" points="144.8,412.8 157.7,405.9 157.7,410.2 144.8,417.9 144.8,412.8 144.8,412.8 		"/>
		<path class="st17" d="M91.9,460.7c0,0,0.4-58.6,0-59.7s-5.9-14.3-5.9-14.3l19.6-6.8c0,5.8,5.1,11.9,12.8,11.9l0,0
			c7.7,0,12.8-6,12.8-11.9l19.6,6.8c0,0-5.5,13.2-5.9,14.3c-0.4,1.1,0,59.7,0,59.7H91.9z"/>
		<path class="st17" d="M127.5,378.6c0,4.9-4.1,9.1-9,9.1l0,0c-4.9,0-9-4.2-9-9.1l0,0C111.7,382.3,125.1,382.3,127.5,378.6
			L127.5,378.6z"/>
		<path class="st31" d="M157.7,425.2c32.4-3.2,54.6,19.6,53.8,63.5"/>
		<polyline class="st31" points="199.1,476 211.5,488.7 221.1,473.7 		"/>
		<path class="st31" d="M140.8,537.2c-32.4,3.2-54.6-19.6-53.8-63.5"/>
		<polyline class="st31" points="99.4,486.4 87,473.7 77.4,488.7 		"/>
		<ellipse class="st3" cx="157.4" cy="477" rx="132.2" ry="131.6"/>
		<ellipse class="st2" cx="157.4" cy="477" rx="136.8" ry="136.2"/>
		<path class="st18" d="M105.6,379.9l3.8-1.3c0,5.6,4.5,9.1,9,9.1c4.5,0,9-3.6,9-9.1l3.8,1.3c-0.3,9.4-9,11.9-12.8,11.9
			C113.1,391.7,105.6,387.1,105.6,379.9z"/>
	</g>
	<rect x="392.9" y="406.5" class="st10" width="502.5" height="110.9"/>
	<text transform="matrix(1 0 0 1 392.938 448.2478)"><tspan x="0" y="0" class="st32 st33 st34">échanger,</tspan><tspan x="0" y="68" class="st32 st33 st34">acheter d’occasion</tspan></text>
	<line class="st2" x1="333.6" y1="109.1" x2="333.6" y2="814.8"/>
</g>
<g id="Calque_2" class="st35">
	<rect x="334" y="19.7" class="st36" width="616" height="934.3"/>
</g>
</svg>
