<?xml version="1.0" encoding="utf-8"?>
<!-- Generator: Adobe Illustrator 21.1.0, SVG Export Plug-In . SVG Version: 6.00 Build 0)  -->
<svg version="1.1" id="Calque_1" xmlns="http://www.w3.org/2000/svg" xmlns:xlink="http://www.w3.org/1999/xlink" x="0px" y="0px"
	 viewBox="0 0 432 414" style="enable-background:new 0 0 432 414;" xml:space="preserve">
<style type="text/css">
	.st0{fill:none;stroke:#3B2B7A;stroke-linecap:round;stroke-linejoin:round;stroke-miterlimit:10;}
	.st1{fill:#F15A24;}
</style>
<g>
	<path class="st0" d="M268,184.7c-2.4-3.8-4.2-17.6-0.2-26.8s13.1-30.8,11.4-49.1s-8.3-35.4-15.8-51.2c-5.6-12-27.4-39.9-53.5-46
		c-19.4-4.3-55.5-4.6-71.3,4.6s-29,25.9-35.8,39.8s-7.9,32.8-7.9,49.9c0,21.6,5.5,31.1,9.3,41.6c3.2,9,0.5,16.6-6.4,21
		c9.3-2.9,11.3-9.2,11.5-11"/>
	<path class="st0" d="M109.3,172.2c-0.8-8.3,0.8-23.8,2.4-38.8s-2.3-52.3,10.3-67.5c12.9-15.6,14.2-6.2,19.8-2.7s17.8,5.2,25-5.5
		c7.1-10.7,17.7-14.3,24.5-12.3c10.4,3,15.6,5.9,22.7,18.3c6.4,11.1,28.5,40.9,34.9,50s12.3,21.9,13.1,30.9
		c0.8,8.9-4.1,31.7,6.1,40.3"/>
	<path class="st0" d="M273.3,144.1c0,0-0.4,37.6-9.5,37.2c-4.3,27.8-18.3,51.1-26.9,62.6c-8.7,11.5-41.6,24.2-46,24.2
		c-9.5,0-35.7-3.6-54.7-27.8s-26.2-59.8-27-68.1"/>
	<path class="st0" d="M161.6,131.7c0-5.5-14.7-10.3-33.3-2.8C144.8,129.1,160,134.1,161.6,131.7z"/>
	<path class="st0" d="M190.7,124.7c-1-5.4,12.7-12.7,32.3-8.6C206.7,119.2,192.6,126.8,190.7,124.7z"/>
	<path class="st0" d="M125.8,147.3c4-3.7,14.4-10.3,25.7-7.4"/>
	<path class="st0" d="M129.7,149.5c3.1,0.1,6.7,1.7,12.6,1.7c5.9,0.1,13.1-4,14.2-4"/>
	<path class="st0" d="M227.1,133.4c-4.9-2.3-16.9-5.4-26.7,1"/>
	<path class="st0" d="M224.8,138.5c-2.9,1.1-5.8,3.5-11.1,4.4c-5.8,1-14.7-0.4-15.8,0.1"/>
	<path class="st0" d="M154.8,158.2c-6.5,6.5-12.2,10.4-18.7,11.9"/>
	<path class="st0" d="M200.4,146c3.7,0.5,10.3,2.2,14.5,1.2c4.2-1,16.1-8.7,16.1-8.7"/>
	<path class="st0" d="M128.3,151.1c3.3,0.1,10,4,14.2,4.1c5,0.1,7.6-1.6,11.5-4.8"/>
	<path class="st0" d="M189.8,137c0.1,5.3,2.7,11.5,3.9,13.4"/>
	<path class="st0" d="M175.4,187.6c-2.4,1.2-5.1,1.9-6.7,1.6c-1.6-0.3-4.2-3.3-1.1-4.7c1.1-0.5,3.3-0.7,6.8,1.3s6.4,1.1,8.2,0
		c1.8-1.1,3.6-4.6,7.1-4s4.2,3.1,3.2,4.3s-3,2.1-8.4-0.1"/>
	<path class="st0" d="M164.9,171.7c-2.7,7.4-6.1,16.2,0,19.3c3.5,1.8,7.4-0.4,8.4-0.8"/>
	<path class="st0" d="M183.5,188.8c2.4,0,7,3,11.3,1.4c4.3-1.6,6.5-3.9,5.6-8.9c-0.9-5-10.5-14.6-10.5-14.6"/>
	<path class="st0" d="M158.5,188.2c-4.6,7.6-6,9.1-7,13.1"/>
	<line class="st0" x1="176.6" y1="194.1" x2="175.3" y2="203"/>
	<line class="st0" x1="183.3" y1="194.1" x2="185.4" y2="202"/>
	<path class="st0" d="M158.5,221.1c2.2-1.3,6.8-5.2,8.9-8c2.1-2.9,5.1-6.7,7.9-6.4c2.9,0.2,4.5,1.3,5.4,1.5c0.9,0.2,4.6-2.9,7-2.5
		c2.3,0.3,7.1,2.5,10.4,4s12.1,5.5,14.6,6.4"/>
	<path class="st0" d="M159.7,224.6c3.3,2.9,7.4,9.5,24.7,8.6c17.4-0.9,22.7-7,28.1-13.1"/>
	<path class="st0" d="M210.4,218.6c-0.6,1.3-1.5,2.5-9.2,3.4s-19.7,1.3-25.2,1.8c-5.5,0.5-10.3,0.9-13.3,0"/>
	<path class="st0" d="M159.7,222.8c4,0,10.7-3.7,13.6-4.3c2.9-0.6,4.6,0.1,6.7,0c2-0.1,4-1.5,6.3-1.5c2.3,0,8.3-0.5,12.1,0.1
		c4,0.5,8.4,0.5,12.7-0.1"/>
	<path class="st0" d="M146.4,250.9c0.7,8.1,0.5,14.7,0,17.2"/>
	<path class="st0" d="M249.3,224.3c1.5,9.5,4.5,24.9,6,28.5"/>
	<path class="st0" d="M146.4,255.7c-4.4,2.4-11.4,6.7-16.6,10.8"/>
	<path class="st0" d="M255.3,211.4c7.7,0.9,26.5,8,27.7,11.4c1.2,3.4,1.8,17.1-6.5,20.9c-8.3,3.8-51.6,22-59.2,29.4
		c-7.7,7.4-33.8,27.4-41.9,93.1"/>
	<path class="st0" d="M180.8,336.4c-0.1-7.7-42.7-55.7-55.8-76.8s-1.5-25.4,6.2-26.2c0,0-24-9-30.9,26.2c-0.6,3-8,3.6-9.5,3.6
		c-1.5,0-9.8,0.6-10.7,6.5s-3.6,8.3-3.3,11c0.3,2.7,0.6,3.3,3.6,6.5c3,3.3,17.2,20.5,19.6,28.2c2.4,7.7,7.4,25.3,20.2,30.6"/>
	<path class="st0" d="M9.4,368.4c9.2-24.1,19.9-54.7,28.2-60.4c8.3-5.6,33.4-22.4,41.6-22.2"/>
	<path class="st0" d="M282.9,234.9c3.6,4.5,17.7,11.7,21.1,13.4c4,4.5,2.9,7.4,1.2,10.5c0,0,11.5,7.1,17.4,9.3s26.8,5.4,29.7,7.6
		s26.8,20.8,27.5,23.2c0.8,2.4,0.8,5.2,0.8,5.2s0.8-1,2.2,0c1.4,1,21.2,40.3,23,44.8c1.8,4.5,12.5,32.9,14.3,43.6"/>
	<path class="st0" d="M31.5,315.5c4,10.1,23,60.1,23,60.1"/>
	<path class="st0" d="M380.6,304c-2.6,14.5-12.1,62-13.3,68c-1.2,5.9-3.6,26.2-3.6,26.2"/>
	<path class="st0" d="M305.1,258.8c-3.5,8.2-41.6,23-43.2,30.4c-0.9,4-3.7,8.6-9.6,12.7c-5.9,4.1-29.6,11.2-37.6,11.7"/>
	<path class="st0" d="M122.3,216.8c-15.6,12-24.9,12.9-31.5,15.5c-6.6,2.6-11,11.7-12.5,18.3s-0.8,7,0,11.2s-12.1,5.7-12.9,12.3
		s-0.8,11-10.9,8.5c0,0,0,9.9,10,8.6"/>
	<g>
		<path class="st1" d="M148.6,143.3l-12.5,2.4c0.4,2.6,1.2,5.2,3.8,5.3l9.3-1.1C149.1,149.9,151.6,146.2,148.6,143.3z M147.3,146.3
			c-0.5,0.8-2.3,1.2-3.1,0.7c-0.9-0.5-1.4-1.4-0.1-2.6c0,0,2.2-0.4,2.8-0.5C147.5,143.9,147.7,145.6,147.3,146.3z"/>
	</g>
	<g>
		<path class="st1" d="M216.9,135.2l-12.7,1.6c-2,3.6,1.5,6.4,1.5,6.4l9.2-0.6C217.4,141.7,217.3,137.8,216.9,135.2z M214.7,138
			c-0.5,0.8-2.3,1.2-3.1,0.7c-0.9-0.5-1.4-1.4-0.1-2.6c0,0,2.2-0.4,2.8-0.5C214.9,135.6,215.2,137.3,214.7,138z"/>
	</g>
	<path class="st0" d="M158.3,151.3c0.5-3.3,0.3-6.8-3.7-7.6c-9.6-1.8-26.3,3.6-29.7,6.8"/>
	<path class="st0" d="M229,136.2c-4.2-2-21.8-2-30.4,2.7c-3.6,2-2.6,5.4-1.2,8.4c1.4,3,9,10,10.8,10.9"/>
</g>
</svg>
